<?xml version="1.0" encoding="UTF-8" standalone="no"?>
<svg
   version="1.0"
   width="368.73273pt"
   height="384.07025pt"
   viewBox="0 0 368.73273 384.07025"
   preserveAspectRatio="xMidYMid"
   id="svg150"
   sodipodi:docname="cup.svg"
   xml:space="preserve"
   xmlns:inkscape="http://www.inkscape.org/namespaces/inkscape"
   xmlns:sodipodi="http://sodipodi.sourceforge.net/DTD/sodipodi-0.dtd"
   xmlns="http://www.w3.org/2000/svg"
   xmlns:svg="http://www.w3.org/2000/svg"><defs
     id="defs150" /><sodipodi:namedview
     id="namedview150"
     pagecolor="#ffffff"
     bordercolor="#000000"
     borderopacity="0.25"
     inkscape:showpageshadow="2"
     inkscape:pageopacity="0.0"
     inkscape:pagecheckerboard="0"
     inkscape:deskcolor="#d1d1d1"
     inkscape:document-units="pt" /><g
     transform="matrix(0.1,0,0,-0.1,-225.96922,424.66382)"
     fill="#000000"
     stroke="none"
     id="g150"
     style="fill:#485543;fill-opacity:1;stroke-width:101;stroke-dasharray:none"><path
       d="m 3820,4241 c 0,-5 5,-13 10,-16 6,-3 10,-2 10,4 0,5 -4,13 -10,16 -5,3 -10,2 -10,-4 z"
       id="path1"
       style="fill:#485543;fill-opacity:1;stroke-width:101;stroke-dasharray:none" /><path
       d="m 3860,4156 c 0,-11 30,-66 36,-66 2,0 -3,15 -12,33 -19,36 -24,44 -24,33 z"
       id="path2"
       style="fill:#485543;fill-opacity:1;stroke-width:101;stroke-dasharray:none" /><path
       d="m 3610,4100 c -6,-11 -8,-20 -6,-20 3,0 10,9 16,20 6,11 8,20 6,20 -3,0 -10,-9 -16,-20 z"
       id="path3"
       style="fill:#485543;fill-opacity:1;stroke-width:101;stroke-dasharray:none" /><path
       d="m 3915,4055 c 52,-84 132,-173 371,-410 318,-316 388,-405 322,-405 -13,0 -30,-5 -38,-11 -12,-8 -10,-9 8,-4 32,9 62,-3 62,-26 0,-10 5,-19 10,-19 39,0 -34,158 -115,247 -60,67 -67,83 -32,83 51,0 198,-21 278,-41 86,-21 87,-21 112,-67 40,-74 50,-128 39,-209 -13,-92 -55,-184 -103,-228 -53,-47 -61,-45 -55,13 l 6,47 -13,-47 c -16,-56 -33,-78 -58,-78 -21,0 -24,11 -9,26 6,6 19,27 29,47 l 18,36 -43,46 c -24,25 -44,52 -44,60 0,8 -4,15 -10,15 -5,0 -10,-11 -10,-25 0,-18 4,-23 15,-19 28,11 16,-24 -17,-52 -27,-21 -28,-24 -6,-10 31,18 58,21 58,6 0,-14 -56,-47 -113,-66 -27,-9 -46,-18 -44,-20 2,-2 23,3 47,11 50,18 50,18 50,5 0,-5 -48,-25 -107,-45 -60,-19 -97,-33 -83,-30 14,3 50,11 80,17 30,5 62,14 70,19 42,25 60,31 77,25 17,-7 17,-8 -1,-22 -11,-8 -32,-14 -48,-14 -15,0 -28,-4 -28,-9 0,-5 -20,-17 -45,-27 -57,-21 -53,-29 5,-9 52,18 71,19 47,1 -13,-10 -15,-15 -5,-19 9,-4 8,-9 -7,-20 -11,-9 -29,-23 -40,-32 -19,-16 -19,-16 3,-5 13,7 41,27 62,46 38,34 94,59 112,48 16,-10 -48,-106 -112,-167 -108,-102 -269,-167 -379,-154 -31,4 -39,3 -26,-3 56,-24 182,0 283,56 89,48 62,12 -42,-58 -23,-16 -36,-28 -30,-28 23,0 135,83 178,132 l 44,51 28,-22 c 14,-11 34,-21 43,-21 9,1 1,7 -16,15 -18,8 -33,19 -33,24 0,5 52,61 115,124 63,63 112,116 110,119 -2,2 6,29 18,60 29,69 67,112 67,74 0,-8 9,-18 20,-21 11,-3 20,-13 20,-21 0,-8 7,-17 15,-20 13,-5 26,-36 39,-96 6,-24 3,-28 -16,-29 -18,0 -15,-3 12,-12 34,-12 35,-14 35,-65 -1,-28 2,-52 6,-52 4,0 4,-15 -1,-32 -21,-75 -245,-239 -333,-243 -23,-2 -78,-12 -121,-24 -44,-11 -95,-21 -115,-21 l -36,1 35,19 c 41,23 32,27 -10,5 -16,-8 -43,-17 -60,-18 -36,-4 -53,-17 -22,-17 12,0 22,-4 22,-10 0,-5 -19,-10 -42,-9 -35,0 -39,2 -23,10 16,7 13,8 -10,3 -139,-29 -180,-33 -190,-19 -9,10 -35,12 -115,10 l -105,-4 60,14 60,15 -52,-5 c -61,-5 -67,0 -20,15 l 32,10 -35,-5 c -86,-13 -185,-17 -170,-6 8,6 24,11 35,12 11,0 38,7 60,15 38,13 27,12 -42,-2 l -28,-5 25,16 c 18,12 19,15 5,10 -11,-4 -57,-14 -103,-22 -67,-13 -92,-13 -135,-4 -28,7 -65,14 -82,16 -88,11 -164,45 -101,45 13,0 33,3 43,6 15,5 16,4 3,-5 -11,-9 26,-11 150,-8 148,3 170,5 215,26 28,13 77,32 110,43 57,17 58,18 15,12 -104,-13 -202,-19 -206,-12 -8,12 45,40 99,54 58,14 37,17 -35,5 -27,-4 -48,-4 -48,0 0,7 86,29 116,29 8,0 12,5 9,11 -4,6 1,17 11,24 11,8 -9,3 -44,-11 -55,-21 -200,-49 -210,-39 -7,6 106,44 200,66 69,16 95,26 91,36 -3,7 -1,13 5,13 6,0 12,-5 14,-11 2,-7 70,7 193,41 105,28 192,54 195,57 3,3 -8,3 -24,-1 -79,-19 -82,-12 -6,13 47,16 79,30 72,30 -7,1 -10,6 -6,12 4,7 2,9 -7,6 -47,-19 -309,-102 -384,-121 -218,-57 -233,-39 -24,29 134,44 160,57 62,31 -55,-15 -73,-6 -25,12 15,6 61,21 102,33 94,27 203,76 196,87 -3,5 4,18 16,28 15,14 22,16 25,6 3,-6 9,-9 15,-6 5,3 2,13 -9,23 -17,17 -19,16 -47,-21 -34,-46 -72,-67 -187,-102 -105,-32 -130,-32 -64,0 28,14 42,22 32,19 -60,-17 -70,-18 -65,-4 3,8 11,31 18,51 13,35 43,58 76,58 8,0 12,-5 9,-11 -4,-5 10,-3 30,5 21,9 59,16 85,16 32,0 52,5 61,16 12,14 9,20 -16,40 -29,24 -154,67 -227,79 -21,3 -38,11 -38,18 0,9 -2,9 -8,0 -4,-7 -19,-17 -32,-23 l -25,-11 24,5 c 14,3 30,1 37,-5 7,-6 15,-6 18,-1 12,20 199,-32 247,-69 35,-27 11,-39 -81,-40 -41,0 -90,-1 -109,-2 -29,-2 -36,2 -42,23 l -7,25 -1,-26 c -1,-25 -5,-26 -63,-32 -35,-3 -74,-11 -88,-17 l -25,-10 25,4 c 14,3 43,8 64,12 25,4 37,3 33,-3 -4,-6 3,-8 18,-5 31,6 33,-6 3,-18 -21,-8 -22,-9 -3,-10 16,-1 14,-4 -10,-16 l -30,-15 28,6 c 22,4 27,2 27,-15 0,-25 -42,-70 -67,-71 -12,-1 -10,-3 7,-8 23,-7 22,-8 -20,-24 -25,-10 -35,-15 -22,-13 12,2 22,0 22,-5 0,-18 -165,-61 -245,-64 l -80,-3 40,19 c 22,10 49,18 60,18 h 20 l -20,-15 c -20,-16 -20,-16 0,-10 11,3 45,12 75,20 30,8 66,20 80,26 l 25,11 -25,-6 c -95,-22 -117,-17 -44,9 l 39,14 -35,-2 c -20,-2 -44,-7 -55,-13 -11,-6 -42,-16 -70,-22 -27,-6 -72,-17 -100,-25 -92,-24 -105,-27 -105,-17 0,24 201,111 287,124 16,3 43,12 59,21 24,14 25,16 7,13 -27,-6 -31,9 -5,16 14,4 14,5 -3,6 -18,2 -18,3 5,16 25,14 25,14 3,15 -25,0 -31,15 -10,23 20,9 -15,6 -43,-3 -24,-8 -24,-8 -2,-9 26,-1 29,-16 5,-25 -15,-6 -15,-8 -3,-16 11,-7 9,-11 -10,-18 -50,-18 -54,-22 -22,-16 56,10 35,-3 -50,-32 -46,-15 -89,-29 -95,-32 -7,-2 -13,0 -13,5 0,6 27,18 59,28 37,11 58,22 55,30 -3,7 9,17 28,23 31,10 30,11 -14,5 -52,-6 -66,10 -25,27 19,9 18,9 -8,5 -16,-3 -57,-10 -89,-15 -77,-12 -217,-58 -236,-77 -13,-13 -11,-13 15,0 73,37 275,70 275,45 0,-4 -1,-8 -3,-8 -1,0 -65,-16 -142,-35 -77,-19 -154,-35 -172,-35 -21,0 -50,-14 -91,-45 -33,-25 -63,-45 -66,-45 -3,0 -6,16 -6,36 0,30 8,44 43,78 23,23 53,50 67,59 14,10 7,8 -14,-4 -52,-30 -44,-5 13,39 23,17 37,32 29,32 -7,0 -46,-35 -87,-77 -53,-56 -73,-71 -68,-54 9,37 -8,11 -27,-40 -18,-51 -50,-87 -60,-70 -8,13 34,98 69,139 17,20 21,32 13,34 -22,8 105,146 197,216 22,17 24,20 6,12 -67,-33 -279,-275 -287,-328 -4,-21 -14,-27 -14,-9 0,10 -4,17 -10,17 -14,0 -13,-12 10,-73 11,-30 32,-65 46,-78 15,-13 37,-41 50,-61 31,-48 88,-87 215,-143 209,-94 291,-114 539,-135 128,-11 410,-4 410,11 0,6 161,49 184,49 18,0 3,-20 -16,-21 -13,-1 -16,-3 -8,-5 8,-2 38,2 65,10 34,10 42,15 25,15 -35,2 -8,17 45,24 l 40,6 -30,-14 c -38,-18 -24,-18 40,-1 119,32 272,130 370,238 55,61 65,67 44,25 -7,-14 -8,-18 -1,-12 6,6 25,44 43,85 28,64 32,85 30,145 -1,38 -7,76 -12,85 -6,10 -7,4 -3,-17 4,-21 2,-33 -4,-33 -18,0 -50,54 -55,90 l -4,35 -1,-33 c -2,-43 -26,-38 -30,6 -4,44 -22,41 -22,-4 0,-62 -20,-26 -22,39 -1,35 -3,47 -5,27 -6,-60 -13,-80 -28,-80 -8,0 -12,6 -10,13 3,6 1,26 -4,42 l -9,30 -1,-27 c -1,-16 -5,-28 -11,-28 -6,0 -11,30 -12,68 -1,60 -2,62 -7,23 -3,-25 -12,-46 -18,-49 -10,-3 -13,18 -13,85 0,48 -4,103 -10,121 -7,28 -7,33 5,28 36,-13 195,-128 220,-158 27,-32 27,-32 10,-3 -39,67 -91,119 -174,174 -91,62 -116,86 -173,166 -20,28 -53,66 -74,85 -24,22 -17,12 17,-27 54,-61 86,-109 78,-117 -2,-2 -51,5 -109,15 -58,10 -149,21 -204,25 l -98,7 -117,106 c -159,145 -261,250 -339,351 -75,97 -94,118 -67,75 z m 1153,-742 c 18,-14 31,-27 28,-30 -5,-6 -113,64 -122,79 -9,13 54,-19 94,-49 z m -338,-314 c 0,-5 -7,-9 -15,-9 -15,0 -20,12 -9,23 8,8 24,-1 24,-14 z m 397,-1 c -3,-8 -6,-5 -6,6 -1,11 2,17 5,13 3,-3 4,-12 1,-19 z m -241,-5 c -13,-33 -51,-83 -63,-83 -19,0 -16,8 23,56 39,47 50,55 40,27 z m -196,-13 c 0,-5 -7,-10 -16,-10 -8,0 -12,5 -9,10 3,6 10,10 16,10 5,0 9,-4 9,-10 z m 499,-37 c 16,-45 7,-98 -23,-138 -14,-18 -15,-11 -16,83 0,79 3,103 13,100 6,-3 18,-23 26,-45 z m -1489,-23 c -8,-5 -22,-10 -30,-10 -13,0 -13,1 0,10 8,5 22,10 30,10 13,0 13,-1 0,-10 z m -99,-24 c -12,-14 -128,-50 -146,-45 -6,2 -24,-5 -42,-14 -35,-19 -73,-22 -73,-7 0,17 62,42 94,37 17,-2 40,0 51,6 18,10 99,34 119,36 5,1 3,-5 -3,-13 z m 1193,8 c 9,-3 16,-12 16,-19 0,-14 -98,-105 -113,-105 -9,0 37,84 61,113 17,20 15,19 36,11 z m -1188,-43 c -7,-11 -74,-26 -82,-18 -5,5 78,36 85,31 1,-1 0,-7 -3,-13 z m -106,-27 c 0,-8 -67,-34 -90,-34 -12,0 -18,4 -15,10 10,16 105,39 105,24 z m 43,-25 c -16,-16 -132,-48 -139,-38 -5,9 0,12 41,22 11,3 38,12 60,20 41,16 56,14 38,-4 z m 103,-24 c -25,-19 -116,-49 -123,-41 -12,11 13,27 63,41 67,18 84,18 60,0 z m 179,-15 c -41,-19 -146,-38 -133,-25 10,10 128,44 153,43 13,0 6,-6 -20,-18 z m -315,-15 c 0,-18 -44,-37 -74,-33 -18,3 -16,7 14,26 41,26 60,28 60,7 z m -115,-24 c -16,-14 -79,-25 -71,-12 4,6 11,9 16,6 5,-3 11,-1 15,5 3,5 16,10 28,10 13,0 17,-4 12,-9 z m -101,-36 c -4,-8 -13,-15 -21,-15 -13,0 -13,3 -3,15 7,8 16,15 21,15 5,0 6,-7 3,-15 z m 273,-1 c -3,-3 -12,-4 -19,-1 -8,3 -5,6 6,6 11,1 17,-2 13,-5 z m -161,-13 c -7,-11 -46,-21 -46,-12 0,13 13,21 32,21 11,0 17,-4 14,-9 z m 84,-1 c 0,-5 -12,-10 -26,-10 -14,0 -23,4 -19,10 3,6 15,10 26,10 10,0 19,-4 19,-10 z m 54,-31 c -7,-11 26,-9 94,8 12,3 22,1 22,-5 0,-17 -51,-24 -129,-16 -56,6 -70,9 -51,15 40,11 72,10 64,-2 z m 286,-14 c 0,-2 -17,-13 -37,-24 -21,-11 -31,-20 -23,-21 11,0 11,-3 2,-12 -10,-10 -15,-10 -21,1 -7,10 -13,10 -29,2 -25,-13 -121,-14 -142,-1 -12,7 -10,11 10,18 14,5 41,13 60,17 19,4 42,11 50,16 16,9 130,13 130,4 z m -507,-19 c 8,3 18,0 23,-7 5,-9 2,-10 -11,-5 -15,5 -16,4 -5,-9 7,-8 8,-15 3,-15 -14,0 -53,30 -53,42 0,7 4,7 14,-1 7,-6 20,-9 29,-5 z m 202,-16 c -3,-5 -15,-10 -26,-10 -10,0 -19,5 -19,10 0,6 12,10 26,10 14,0 23,-4 19,-10 z m 385,-19 c 0,-9 -48,-21 -86,-21 -33,0 -30,18 4,23 51,8 82,7 82,-2 z m -480,-31 c 12,-8 11,-10 -7,-10 -12,0 -25,5 -28,10 -8,13 15,13 35,0 z m 740,-140 c 0,-5 -12,-10 -26,-10 -14,0 -23,4 -19,10 3,6 15,10 26,10 10,0 19,-4 19,-10 z"
       id="path4"
       style="fill:#485543;fill-opacity:1;stroke-width:101;stroke-dasharray:none" /><path
       d="m 3587,4051 c -4,-17 -3,-21 5,-13 5,5 8,16 6,23 -3,8 -7,3 -11,-10 z"
       id="path5"
       style="fill:#485543;fill-opacity:1;stroke-width:101;stroke-dasharray:none" /><path
       d="m 3752,4050 c 0,-14 2,-19 5,-12 2,6 2,18 0,25 -3,6 -5,1 -5,-13 z"
       id="path6"
       style="fill:#485543;fill-opacity:1;stroke-width:101;stroke-dasharray:none" /><path
       d="m 3770,3985 c 0,-5 5,-17 10,-25 5,-8 10,-10 10,-5 0,6 -5,17 -10,25 -5,8 -10,11 -10,5 z"
       id="path7"
       style="fill:#485543;fill-opacity:1;stroke-width:101;stroke-dasharray:none" /><path
       d="m 3812,3901 c 33,-65 176,-210 297,-304 59,-45 135,-106 171,-135 l 65,-53 -54,51 c -30,29 -99,86 -154,127 -158,120 -246,209 -335,339 -7,11 -2,-1 10,-25 z"
       id="path8"
       style="fill:#485543;fill-opacity:1;stroke-width:101;stroke-dasharray:none" /><path
       d="m 3774,3598 c 51,-47 68,-69 63,-81 -4,-12 -1,-17 10,-17 10,0 33,-15 52,-32 l 35,-33 -29,35 -28,35 39,6 39,6 -46,2 c -37,1 -51,7 -75,32 -16,17 -51,49 -79,71 -32,26 -25,18 19,-24 z"
       id="path9"
       style="fill:#485543;fill-opacity:1;stroke-width:101;stroke-dasharray:none" /><path
       d="m 3605,3496 c 15,-23 15,-25 -4,-35 -11,-6 -24,-11 -30,-11 -15,0 -123,-41 -119,-45 2,-2 37,7 78,21 41,13 82,24 91,24 10,0 46,-34 80,-75 34,-41 64,-75 67,-75 2,0 -11,19 -30,43 -19,23 -58,72 -88,110 -55,68 -73,86 -45,43 z"
       id="path10"
       style="fill:#485543;fill-opacity:1;stroke-width:101;stroke-dasharray:none" /><path
       d="m 3940,3416 c 0,-2 8,-10 18,-17 15,-13 16,-12 3,4 -13,16 -21,21 -21,13 z"
       id="path11"
       style="fill:#485543;fill-opacity:1;stroke-width:101;stroke-dasharray:none" /><path
       d="m 3311,3333 c -121,-72 -239,-200 -256,-278 -4,-20 7,-6 34,41 44,78 130,165 225,226 33,21 62,41 65,43 12,12 -9,2 -68,-32 z"
       id="path12"
       style="fill:#485543;fill-opacity:1;stroke-width:101;stroke-dasharray:none" /><path
       d="m 4015,3316 c 10,-14 19,-26 22,-26 7,0 -17,39 -28,46 -6,3 -3,-5 6,-20 z"
       id="path13"
       style="fill:#485543;fill-opacity:1;stroke-width:101;stroke-dasharray:none" /><path
       d="m 4417,3305 c 4,-20 0,-25 -23,-30 -49,-11 -51,-14 -9,-13 22,1 46,-1 53,-6 16,-10 15,5 -4,42 -19,38 -23,40 -17,7 z"
       id="path14"
       style="fill:#485543;fill-opacity:1;stroke-width:101;stroke-dasharray:none" /><path
       d="m 3406,3283 c -53,-27 -137,-105 -175,-163 -18,-27 -14,-25 15,10 61,71 114,117 174,149 67,37 55,40 -14,4 z"
       id="path15"
       style="fill:#485543;fill-opacity:1;stroke-width:101;stroke-dasharray:none" /><path
       d="m 4072,3286 c -18,-7 -30,-15 -26,-18 6,-7 64,10 79,23 12,12 -12,9 -53,-5 z"
       id="path16"
       style="fill:#485543;fill-opacity:1;stroke-width:101;stroke-dasharray:none" /><path
       d="m 3770,3286 c 0,-2 8,-10 18,-17 15,-13 16,-12 3,4 -13,16 -21,21 -21,13 z"
       id="path17"
       style="fill:#485543;fill-opacity:1;stroke-width:101;stroke-dasharray:none" /><path
       d="m 4165,3283 c -11,-3 -24,-9 -29,-14 -5,-4 8,-3 30,2 58,16 57,26 -1,12 z"
       id="path18"
       style="fill:#485543;fill-opacity:1;stroke-width:101;stroke-dasharray:none" /><path
       d="m 4245,3271 c -19,-8 -19,-8 3,-15 12,-4 22,-12 22,-17 0,-18 28,-8 44,16 16,25 16,25 -16,24 -18,0 -42,-4 -53,-8 z"
       id="path19"
       style="fill:#485543;fill-opacity:1;stroke-width:101;stroke-dasharray:none" /><path
       d="m 3341,3185 c -38,-36 -88,-90 -111,-120 -23,-30 -47,-52 -53,-48 -6,3 -7,1 -3,-5 4,-7 2,-12 -3,-12 -6,0 -11,-9 -11,-20 0,-30 17,-24 36,13 29,55 101,143 166,201 35,31 60,56 56,56 -4,0 -39,-29 -77,-65 z"
       id="path20"
       style="fill:#485543;fill-opacity:1;stroke-width:101;stroke-dasharray:none" /><path
       d="m 3800,3246 c 0,-2 8,-10 18,-17 15,-13 16,-12 3,4 -13,16 -21,21 -21,13 z"
       id="path21"
       style="fill:#485543;fill-opacity:1;stroke-width:101;stroke-dasharray:none" /><path
       d="m 3767,3204 c -15,-8 -27,-19 -27,-24 0,-15 11,-12 24,5 10,14 15,14 50,0 21,-9 40,-25 43,-35 4,-16 8,-17 24,-7 17,11 16,13 -14,38 -22,19 -34,23 -40,15 -5,-8 -11,-6 -20,5 -11,15 -16,15 -40,3 z"
       id="path22"
       style="fill:#485543;fill-opacity:1;stroke-width:101;stroke-dasharray:none" /><path
       d="m 4674,3211 c 4,-6 18,-11 32,-11 14,0 35,-5 46,-11 16,-8 24,-8 35,3 12,13 9,14 -19,14 -18,0 -48,3 -67,8 -24,6 -32,5 -27,-3 z"
       id="path23"
       style="fill:#485543;fill-opacity:1;stroke-width:101;stroke-dasharray:none" /><path
       d="m 4815,3170 -20,-9 h 20 c 11,-1 31,-4 45,-8 22,-6 24,-5 11,10 -15,19 -26,20 -56,7 z"
       id="path24"
       style="fill:#485543;fill-opacity:1;stroke-width:101;stroke-dasharray:none" /><path
       d="m 4772,3135 c 0,-16 2,-22 5,-12 2,9 2,23 0,30 -3,6 -5,-1 -5,-18 z"
       id="path25"
       style="fill:#485543;fill-opacity:1;stroke-width:101;stroke-dasharray:none" /><path
       d="m 3661,3134 c 7,-9 18,-26 24,-38 6,-11 20,-22 32,-24 25,-4 83,24 83,39 0,6 -4,8 -9,4 -5,-3 -12,-1 -16,5 -11,18 -25,11 -22,-12 1,-17 -4,-24 -22,-26 -31,-5 -48,12 -32,31 9,12 6,17 -20,26 -28,10 -30,9 -18,-5 z"
       id="path26"
       style="fill:#485543;fill-opacity:1;stroke-width:101;stroke-dasharray:none" /><path
       d="m 3535,3121 -40,-6 40,-8 c 57,-10 65,-9 59,8 -4,8 -9,14 -13,14 -3,-1 -24,-5 -46,-8 z"
       id="path27"
       style="fill:#485543;fill-opacity:1;stroke-width:101;stroke-dasharray:none" /><path
       d="m 3920,3120 c 0,-5 7,-10 16,-10 8,0 12,5 9,10 -3,6 -10,10 -16,10 -5,0 -9,-4 -9,-10 z"
       id="path28"
       style="fill:#485543;fill-opacity:1;stroke-width:101;stroke-dasharray:none" /><path
       d="m 5230,3105 c 0,-2 16,-35 35,-72 36,-71 56,-182 40,-220 -5,-10 -9,-21 -9,-25 -1,-3 -4,-10 -8,-14 -11,-10 -10,-24 1,-24 17,0 34,90 29,153 -4,45 -16,83 -42,135 -32,63 -46,84 -46,67 z"
       id="path29"
       style="fill:#485543;fill-opacity:1;stroke-width:101;stroke-dasharray:none" /><path
       d="m 3384,3076 c -73,-41 -106,-70 -126,-111 -20,-39 -19,-38 32,18 29,32 76,71 104,87 28,17 47,30 41,30 -5,0 -28,-11 -51,-24 z"
       id="path30"
       style="fill:#485543;fill-opacity:1;stroke-width:101;stroke-dasharray:none" /><path
       d="m 3440,3055 c 0,-8 5,-15 10,-15 6,0 10,7 10,15 0,8 -4,15 -10,15 -5,0 -10,-7 -10,-15 z"
       id="path31"
       style="fill:#485543;fill-opacity:1;stroke-width:101;stroke-dasharray:none" /><path
       d="m 3533,3059 c 11,-7 23,-7 35,0 14,9 11,10 -18,10 -29,0 -32,-1 -17,-10 z"
       id="path32"
       style="fill:#485543;fill-opacity:1;stroke-width:101;stroke-dasharray:none" /><path
       d="m 4550,3063 c 0,-4 5,-15 10,-23 8,-13 10,-13 10,2 0,9 -4,20 -10,23 -5,3 -10,3 -10,-2 z"
       id="path33"
       style="fill:#485543;fill-opacity:1;stroke-width:101;stroke-dasharray:none" /><path
       d="m 3432,3003 c -24,-8 -41,-17 -39,-19 4,-5 97,26 97,32 0,6 -11,4 -58,-13 z"
       id="path34"
       style="fill:#485543;fill-opacity:1;stroke-width:101;stroke-dasharray:none" /><path
       d="m 3808,3013 c 7,-3 16,-2 19,1 4,3 -2,6 -13,5 -11,0 -14,-3 -6,-6 z"
       id="path35"
       style="fill:#485543;fill-opacity:1;stroke-width:101;stroke-dasharray:none" /><path
       d="m 4540,2980 c -19,-11 -31,-19 -27,-20 11,0 67,29 67,35 0,7 -1,7 -40,-15 z"
       id="path36"
       style="fill:#485543;fill-opacity:1;stroke-width:101;stroke-dasharray:none" /><path
       d="m 4470,2950 c -8,-5 -10,-10 -5,-10 6,0 17,5 25,10 8,5 11,10 5,10 -5,0 -17,-5 -25,-10 z"
       id="path37"
       style="fill:#485543;fill-opacity:1;stroke-width:101;stroke-dasharray:none" /><path
       d="m 4980,2946 c 0,-2 7,-9 15,-16 13,-11 14,-10 9,4 -5,14 -24,23 -24,12 z"
       id="path38"
       style="fill:#485543;fill-opacity:1;stroke-width:101;stroke-dasharray:none" /><path
       d="m 3141,2924 c 0,-11 3,-14 6,-6 3,7 2,16 -1,19 -3,4 -6,-2 -5,-13 z"
       id="path39"
       style="fill:#485543;fill-opacity:1;stroke-width:101;stroke-dasharray:none" /><path
       d="m 4200,2905 c -19,-7 -28,-13 -20,-13 8,0 31,6 50,13 19,7 28,13 20,13 -8,0 -31,-6 -50,-13 z"
       id="path40"
       style="fill:#485543;fill-opacity:1;stroke-width:101;stroke-dasharray:none" /><path
       d="m 3006,2894 c -9,-24 -7,-41 3,-25 8,12 12,12 24,2 13,-10 15,-9 10,8 -6,25 -30,34 -37,15 z"
       id="path41"
       style="fill:#485543;fill-opacity:1;stroke-width:101;stroke-dasharray:none" /><path
       d="m 4880,2900 c 0,-13 11,-13 30,0 12,8 11,10 -7,10 -13,0 -23,-4 -23,-10 z"
       id="path42"
       style="fill:#485543;fill-opacity:1;stroke-width:101;stroke-dasharray:none" /><path
       d="m 3945,2890 c -13,-5 -14,-9 -5,-9 8,0 24,4 35,9 13,5 14,9 5,9 -8,0 -24,-4 -35,-9 z"
       id="path43"
       style="fill:#485543;fill-opacity:1;stroke-width:101;stroke-dasharray:none" /><path
       d="m 2755,2839 c -73,-17 -198,-85 -252,-137 -55,-53 -113,-135 -113,-161 0,-8 16,12 35,45 49,83 125,151 215,191 102,47 180,66 243,59 36,-4 46,-3 32,3 -25,12 -108,12 -160,0 z"
       id="path44"
       style="fill:#485543;fill-opacity:1;stroke-width:101;stroke-dasharray:none" /><path
       d="m 4502,2828 c -29,-12 -51,-23 -49,-25 5,-4 117,36 117,43 0,6 -11,3 -68,-18 z"
       id="path45"
       style="fill:#485543;fill-opacity:1;stroke-width:101;stroke-dasharray:none" /><path
       d="m 5025,2840 c -3,-5 1,-10 9,-10 9,0 16,5 16,10 0,6 -4,10 -9,10 -6,0 -13,-4 -16,-10 z"
       id="path46"
       style="fill:#485543;fill-opacity:1;stroke-width:101;stroke-dasharray:none" /><path
       d="m 3046,2765 c 7,-79 -3,-81 -22,-3 l -12,53 -1,-60 c -1,-34 -6,-66 -13,-73 -9,-9 -9,-12 0,-12 9,0 12,-30 12,-104 0,-143 -19,-151 -22,-9 l -2,108 -5,-110 c -5,-90 -7,-103 -14,-71 -5,21 -7,76 -6,122 2,46 0,87 -4,90 -4,4 -8,-24 -8,-62 l -2,-69 -6,57 c -8,73 -21,86 -21,20 0,-29 -4,-52 -10,-52 -5,0 -10,22 -10,49 0,28 -4,53 -10,56 -6,4 -10,-7 -10,-26 0,-39 -9,-33 -20,13 l -8,33 -1,-31 c -1,-18 8,-43 20,-58 19,-24 19,-26 2,-26 -14,0 -11,-5 11,-19 40,-26 54,-55 62,-125 5,-44 13,-66 31,-82 17,-16 23,-32 23,-66 v -45 l -97,-38 c -95,-37 -233,-102 -233,-109 0,-2 66,25 148,60 81,35 154,64 163,64 14,0 17,-25 22,-192 3,-106 4,-194 3,-195 -3,-3 -208,120 -262,158 l -44,30 20,-34 c 22,-38 119,-106 226,-160 l 69,-35 19,-72 c 12,-48 21,-68 27,-59 6,10 11,6 19,-15 6,-16 8,-31 6,-34 -3,-3 -8,3 -12,12 -4,11 -10,13 -18,7 -12,-10 -246,126 -340,198 -102,77 -177,166 -257,303 -22,38 -42,68 -45,68 -3,0 22,-52 54,-115 l 59,-116 -83,-83 c -67,-66 -91,-99 -124,-167 -56,-118 -73,-230 -51,-344 5,-29 9,-3 12,100 l 4,140 45,93 c 36,78 56,105 117,163 40,38 81,69 91,69 9,0 40,-19 67,-43 28,-24 91,-71 140,-105 112,-76 141,-99 134,-106 -5,-5 -141,86 -220,147 -20,15 -39,27 -44,27 -13,0 60,-55 220,-166 83,-58 193,-136 245,-174 112,-82 278,-234 267,-246 -4,-4 -21,2 -37,14 -16,12 -33,22 -38,22 -15,0 -52,46 -53,66 0,18 -1,18 -8,0 -6,-17 -10,-16 -34,13 -14,17 -28,30 -31,29 -2,-2 -12,4 -22,13 -14,11 -29,13 -54,8 l -35,-6 41,-2 c 25,0 47,-8 56,-18 24,-27 110,-203 105,-216 -3,-11 57,-47 78,-47 6,0 24,-14 40,-30 16,-17 35,-30 43,-30 7,0 25,-14 39,-30 14,-17 28,-28 31,-25 3,3 -8,20 -25,38 -17,17 -45,54 -62,81 -17,28 -31,46 -31,40 0,-5 9,-22 20,-39 11,-16 20,-36 20,-44 0,-21 -34,12 -71,70 -35,55 -48,65 -24,18 18,-34 12,-51 -10,-28 -16,16 -105,169 -105,181 0,22 24,2 52,-42 31,-50 49,-69 28,-29 -7,11 -10,22 -8,25 2,2 35,-17 72,-42 69,-46 86,-74 21,-34 -20,12 -38,20 -41,17 -6,-6 35,-32 66,-41 14,-4 36,-20 49,-34 13,-15 20,-21 17,-14 -12,21 19,13 40,-10 18,-22 71,-97 89,-126 20,-35 -35,11 -75,62 -23,31 -45,56 -47,56 -7,0 43,-67 76,-103 25,-28 100,-67 127,-67 7,0 39,-13 69,-30 59,-32 75,-36 75,-20 0,6 -8,10 -19,10 -27,0 -154,150 -140,165 15,14 57,-17 104,-78 52,-67 97,-107 120,-107 6,0 -4,9 -22,19 -32,20 -113,115 -113,133 0,24 59,-7 105,-57 28,-29 64,-62 80,-71 17,-11 3,8 -35,44 -51,48 -61,61 -44,62 11,0 31,-12 45,-26 32,-35 118,-104 130,-104 5,0 9,5 9,10 0,6 -6,10 -14,10 -22,0 -108,82 -98,92 13,13 39,-2 108,-62 31,-28 64,-50 72,-50 9,0 -6,14 -32,32 -45,29 -65,53 -54,64 11,10 64,-19 105,-56 38,-36 84,-56 68,-30 -3,5 -12,10 -19,10 -7,0 -25,14 -41,30 -44,46 -8,37 61,-15 56,-42 84,-55 84,-37 0,4 -19,15 -41,24 -32,14 -40,22 -36,37 3,15 -2,20 -24,25 -39,7 -39,36 -1,36 31,0 68,-32 57,-49 -3,-7 3,-11 15,-11 12,0 34,-7 50,-15 16,-8 36,-12 44,-9 9,3 28,-2 43,-11 15,-10 48,-19 76,-19 50,-2 50,-1 0,31 -16,11 -15,12 10,12 15,1 42,-6 58,-15 17,-8 36,-13 42,-11 7,3 1,9 -13,15 -21,8 -22,11 -8,17 9,3 26,1 37,-5 17,-9 22,-8 27,5 3,8 14,15 24,15 10,0 28,9 41,19 18,14 28,17 42,9 11,-5 35,-7 54,-3 l 36,6 -29,15 c -35,18 -64,44 -64,56 0,22 33,17 72,-11 40,-29 88,-41 88,-22 0,5 -9,7 -20,4 -12,-3 -22,1 -26,11 -3,9 -10,14 -14,11 -4,-3 -18,4 -31,14 l -24,19 29,13 c 26,12 30,11 47,-10 11,-13 19,-21 19,-18 0,3 16,-1 35,-9 27,-11 40,-12 56,-3 12,6 29,9 40,6 10,-3 23,0 28,7 7,8 0,11 -25,12 -34,0 -78,30 -68,45 3,5 -1,6 -9,3 -17,-6 -41,21 -32,36 11,18 39,11 93,-26 54,-36 102,-48 109,-28 2,6 -7,9 -24,7 -33,-4 -91,36 -79,55 10,17 31,15 75,-8 33,-16 43,-17 70,-7 37,14 39,23 9,31 -34,9 -82,51 -74,64 5,9 24,3 64,-18 31,-16 64,-30 72,-30 8,1 0,7 -18,15 -18,8 -47,24 -64,36 -27,20 -28,23 -14,38 15,14 19,14 44,-2 57,-37 90,-50 109,-42 14,7 11,9 -18,15 -42,8 -99,45 -99,66 0,18 3,18 48,-5 52,-26 89,-33 98,-19 4,7 3,8 -5,4 -16,-10 -124,41 -118,56 2,7 17,12 33,11 16,0 23,1 17,4 -7,2 -13,12 -13,20 0,15 17,15 80,-2 14,-3 5,3 -19,15 -41,19 -43,22 -28,37 14,14 21,15 55,4 22,-8 46,-11 53,-8 8,3 5,6 -8,6 -12,1 -34,6 -48,13 -31,14 -35,57 -5,65 22,6 27,19 9,25 -7,2 -5,25 7,71 16,66 29,84 36,50 2,-10 3,102 3,249 0,146 3,269 6,272 3,4 35,-3 70,-13 35,-11 65,-19 67,-17 2,2 -29,16 -67,31 l -71,28 -2,121 c -2,67 -3,168 -3,226 0,92 -2,105 -17,108 -15,3 -18,-3 -17,-35 l 1,-38 9,30 c 5,17 6,-75 4,-220 -3,-137 -5,-312 -5,-388 0,-137 0,-138 -22,-132 -17,6 -20,4 -14,-10 3,-9 1,-35 -4,-57 -7,-26 -8,-44 -1,-51 10,-13 -9,-70 -28,-81 -16,-10 -14,27 4,50 18,24 19,40 1,25 -11,-9 -15,-9 -19,1 -3,7 -6,3 -6,-10 -2,-43 -21,-11 -22,36 l -1,47 -9,-59 c -5,-33 -12,-62 -17,-65 -4,-3 -13,-19 -20,-34 -16,-38 -36,-30 -43,19 -6,39 -6,39 -8,-11 -1,-27 -5,-56 -10,-64 -6,-9 -5,-19 2,-26 9,-10 13,-7 17,13 3,17 13,28 30,32 14,3 26,14 28,25 5,26 22,44 23,25 0,-9 4,-7 9,5 8,19 8,19 17,-5 13,-31 5,-63 -13,-56 -10,4 -14,-3 -14,-25 0,-24 -4,-30 -15,-25 -11,4 -15,-1 -15,-18 0,-12 -17,-42 -37,-67 -21,-24 -27,-35 -14,-24 13,11 44,48 69,82 27,38 49,58 53,52 4,-7 12,5 19,27 15,47 30,66 30,39 0,-33 -83,-207 -128,-267 -46,-62 -70,-83 -59,-52 6,16 4,15 -12,-4 -11,-13 -19,-28 -17,-35 1,-7 1,-9 -1,-5 -2,4 -12,4 -21,1 -12,-5 -11,1 7,28 14,21 6,14 -20,-16 -74,-86 -151,-155 -175,-155 -12,0 -24,-7 -28,-15 -3,-8 -14,-15 -24,-15 -11,0 -25,-7 -32,-15 -7,-8 -21,-15 -32,-15 -11,0 -26,-7 -35,-15 -8,-9 -23,-13 -33,-10 -11,3 -20,-1 -24,-11 -4,-11 -13,-14 -27,-11 -13,3 -28,-1 -37,-10 -10,-9 -25,-13 -42,-9 -15,2 -31,1 -36,-4 -5,-5 -60,-12 -121,-16 -99,-6 -113,-5 -119,10 -9,23 -23,20 -17,-4 8,-31 -31,-26 -56,8 l -21,27 6,-27 6,-27 -66,1 c -44,0 -69,5 -77,15 -9,10 -14,11 -20,2 -9,-15 -117,4 -199,34 -103,37 -276,124 -362,180 -92,61 -184,152 -212,210 -15,33 -30,127 -39,247 -2,25 -4,0 -6,-55 l -2,-100 -18,40 c -30,63 -24,31 9,-46 16,-38 25,-69 20,-69 -21,0 -81,111 -116,215 -27,80 -38,132 -41,190 -3,76 -3,78 11,50 13,-27 14,3 15,287 1,174 4,323 7,332 11,28 24,6 25,-42 l 1,-47 10,53 c 5,29 13,50 17,47 5,-2 12,-45 15,-95 7,-86 17,-109 30,-74 10,25 7,82 -4,89 -10,6 -14,45 -4,45 3,0 24,-13 47,-29 47,-32 87,-54 87,-48 0,2 -26,20 -59,40 -107,67 -151,127 -170,238 -10,53 -10,52 -5,-16 z m 34,-111 c 0,-8 -4,-12 -10,-9 -5,3 -10,10 -10,16 0,5 5,9 10,9 6,0 10,-7 10,-16 z m 2200,-743 c 0,-11 -4,-23 -10,-26 -6,-4 -10,5 -10,19 0,14 5,26 10,26 6,0 10,-9 10,-19 z m -2370,-16 c 48,-25 78,-51 43,-38 -24,8 -103,54 -103,59 0,8 11,4 60,-21 z m 2367,-72 c -3,-10 -5,-4 -5,12 0,17 2,24 5,18 2,-7 2,-21 0,-30 z M 2930,1675 c 7,-8 8,-15 2,-15 -5,0 -15,7 -22,15 -7,8 -8,15 -2,15 5,0 15,-7 22,-15 z m 181,-104 c 11,-13 17,-26 15,-29 -7,-6 -96,68 -96,80 0,14 59,-23 81,-51 z m 108,-92 c 32,-43 21,-45 -19,-4 -22,23 -29,35 -19,35 8,0 25,-14 38,-31 z m 1807,-176 c -10,-10 -19,5 -10,18 6,11 8,11 12,0 2,-7 1,-15 -2,-18 z m -1503,-68 c 76,-39 94,-55 60,-55 -21,0 -106,49 -148,84 -36,31 -20,26 88,-29 z m 1477,46 c 0,-12 -20,-25 -27,-18 -7,7 6,27 18,27 5,0 9,-4 9,-9 z m 62,-41 33,-29 -26,-1 c -29,0 -82,36 -74,51 11,17 34,9 67,-21 z m -99,13 c 11,-10 -13,-33 -34,-33 -21,0 -26,26 -6,33 18,8 33,8 40,0 z m -114,-80 c 9,-10 25,-23 36,-29 10,-6 21,-16 23,-22 5,-17 -33,-15 -48,3 -7,8 -19,15 -27,15 -10,0 -13,6 -9,16 4,12 2,15 -9,10 -15,-5 -21,5 -8,17 11,11 25,8 42,-10 z m -1268,-75 c 54,-74 66,-98 52,-98 -21,0 -133,140 -133,166 0,27 31,1 81,-68 z m 106,57 c 20,-8 33,-18 30,-21 -7,-7 -77,14 -91,27 -16,14 21,11 61,-6 z m -54,-72 c 62,-97 64,-101 28,-68 -30,28 -91,114 -91,128 0,22 25,-2 63,-60 z m 1057,-9 c 40,-26 51,-44 28,-44 -15,0 -78,49 -78,61 0,14 7,11 50,-17 z m -59,-15 c 18,-34 -3,-46 -46,-26 -36,17 -44,32 -22,40 28,12 57,6 68,-14 z m -331,1 c 0,-5 -7,-10 -16,-10 -8,0 -12,5 -9,10 3,6 10,10 16,10 5,0 9,-4 9,-10 z m 60,6 c 0,-2 -7,-6 -15,-10 -8,-3 -15,-1 -15,4 0,6 7,10 15,10 8,0 15,-2 15,-4 z m 131,-42 c 12,-13 20,-27 16,-30 -15,-15 -94,36 -83,54 9,15 41,4 67,-24 z m 60,15 c 33,-23 37,-39 10,-39 -20,0 -71,36 -71,51 0,16 31,10 61,-12 z m -454,-5 c 2,-7 -6,-10 -22,-7 -14,3 -25,10 -25,15 0,13 43,6 47,-8 z m 158,2 c 37,-16 47,-36 18,-36 -25,1 -82,50 -58,50 3,0 21,-7 40,-14 z m 163,-14 c 27,-17 29,-32 4,-32 -24,0 -62,28 -62,45 0,16 20,11 58,-13 z m -80,2 c 23,-16 29,-34 13,-34 -6,0 -23,11 -38,25 -32,28 -12,35 25,9 z m 62,-59 c 10,-12 10,-15 -3,-15 -8,0 -20,7 -27,15 -10,12 -10,15 3,15 8,0 20,-7 27,-15 z"
       id="path47"
       style="fill:#485543;fill-opacity:1;stroke-width:101;stroke-dasharray:none" /><path
       d="m 4340,2805 c -19,-7 -28,-13 -20,-13 8,0 31,6 50,13 19,7 28,13 20,13 -8,0 -31,-6 -50,-13 z"
       id="path48"
       style="fill:#485543;fill-opacity:1;stroke-width:101;stroke-dasharray:none" /><path
       d="m 4350,2775 c -36,-13 -60,-24 -54,-24 5,-1 41,10 80,23 38,14 62,24 54,24 -8,0 -44,-10 -80,-23 z"
       id="path49"
       style="fill:#485543;fill-opacity:1;stroke-width:101;stroke-dasharray:none" /><path
       d="m 4796,2793 c -4,-5 -12,-9 -17,-9 -5,-1 -12,-2 -15,-3 -4,0 -1,-8 6,-16 7,-8 27,-14 44,-14 l 31,1 -30,7 -30,6 25,18 c 17,11 19,17 9,17 -9,0 -19,-3 -23,-7 z"
       id="path50"
       style="fill:#485543;fill-opacity:1;stroke-width:101;stroke-dasharray:none" /><path
       d="m 4895,2790 c -4,-7 3,-8 20,-4 23,6 26,4 23,-12 -2,-13 -20,-25 -53,-36 -35,-12 -42,-17 -25,-18 36,0 90,36 90,60 0,15 -7,20 -24,20 -14,0 -28,-5 -31,-10 z"
       id="path51"
       style="fill:#485543;fill-opacity:1;stroke-width:101;stroke-dasharray:none" /><path
       d="m 4220,2769 c -35,-12 -43,-16 -20,-12 40,7 112,32 90,31 -8,0 -40,-8 -70,-19 z"
       id="path52"
       style="fill:#485543;fill-opacity:1;stroke-width:101;stroke-dasharray:none" /><path
       d="m 4980,2771 c 0,-14 18,-23 31,-15 8,4 7,9 -2,15 -18,11 -29,11 -29,0 z"
       id="path53"
       style="fill:#485543;fill-opacity:1;stroke-width:101;stroke-dasharray:none" /><path
       d="m 4850,2766 c 0,-2 7,-6 15,-10 8,-3 15,-1 15,4 0,6 -7,10 -15,10 -8,0 -15,-2 -15,-4 z"
       id="path54"
       style="fill:#485543;fill-opacity:1;stroke-width:101;stroke-dasharray:none" /><path
       d="m 4340,2709 c -69,-27 -119,-49 -113,-49 15,0 214,74 240,89 34,20 -3,8 -127,-40 z"
       id="path55"
       style="fill:#485543;fill-opacity:1;stroke-width:101;stroke-dasharray:none" /><path
       d="m 4070,2729 c -36,-10 -49,-16 -29,-14 41,6 131,33 109,33 -8,0 -44,-8 -80,-19 z"
       id="path56"
       style="fill:#485543;fill-opacity:1;stroke-width:101;stroke-dasharray:none" /><path
       d="m 4235,2740 c -13,-5 -14,-9 -5,-9 8,0 24,4 35,9 13,5 14,9 5,9 -8,0 -24,-4 -35,-9 z"
       id="path57"
       style="fill:#485543;fill-opacity:1;stroke-width:101;stroke-dasharray:none" /><path
       d="m 4950,2731 c 0,-5 10,-12 23,-15 22,-6 22,-7 3,-21 -24,-18 -57,-19 -75,-2 -11,10 -13,9 -9,-3 5,-17 65,-25 118,-15 32,7 33,8 13,16 -14,5 -23,17 -23,29 0,15 -7,20 -25,20 -14,0 -25,-4 -25,-9 z"
       id="path58"
       style="fill:#485543;fill-opacity:1;stroke-width:101;stroke-dasharray:none" /><path
       d="m 5232,2720 c 0,-14 2,-19 5,-12 2,6 2,18 0,25 -3,6 -5,1 -5,-13 z"
       id="path59"
       style="fill:#485543;fill-opacity:1;stroke-width:101;stroke-dasharray:none" /><path
       d="m 4188,2723 c 7,-3 16,-2 19,1 4,3 -2,6 -13,5 -11,0 -14,-3 -6,-6 z"
       id="path60"
       style="fill:#485543;fill-opacity:1;stroke-width:101;stroke-dasharray:none" /><path
       d="m 2821,2678 c -1,-27 3,-48 7,-48 4,0 6,17 4,38 -5,58 -10,62 -11,10 z"
       id="path61"
       style="fill:#485543;fill-opacity:1;stroke-width:101;stroke-dasharray:none" /><path
       d="m 4148,2713 c 7,-3 16,-2 19,1 4,3 -2,6 -13,5 -11,0 -14,-3 -6,-6 z"
       id="path62"
       style="fill:#485543;fill-opacity:1;stroke-width:101;stroke-dasharray:none" /><path
       d="m 2668,2697 c -24,-11 -25,-14 -12,-37 7,-14 13,-33 14,-42 0,-10 4,-18 9,-18 6,0 6,12 -1,30 -5,17 -7,37 -4,45 10,28 26,15 32,-25 4,-23 9,-38 12,-36 7,7 -8,96 -16,95 -4,0 -19,-6 -34,-12 z"
       id="path63"
       style="fill:#485543;fill-opacity:1;stroke-width:101;stroke-dasharray:none" /><path
       d="m 3978,2703 c 7,-3 16,-2 19,1 4,3 -2,6 -13,5 -11,0 -14,-3 -6,-6 z"
       id="path64"
       style="fill:#485543;fill-opacity:1;stroke-width:101;stroke-dasharray:none" /><path
       d="m 4060,2695 c -25,-7 -36,-13 -25,-13 11,0 38,5 60,13 52,17 24,17 -35,0 z"
       id="path65"
       style="fill:#485543;fill-opacity:1;stroke-width:101;stroke-dasharray:none" /><path
       d="m 2746,2659 c 4,-19 10,-38 15,-43 4,-5 4,8 -1,29 -11,47 -22,59 -14,14 z"
       id="path66"
       style="fill:#485543;fill-opacity:1;stroke-width:101;stroke-dasharray:none" /><path
       d="m 2781,2653 c 0,-23 4,-45 9,-48 11,-7 11,16 0,60 -7,28 -8,28 -9,-12 z"
       id="path67"
       style="fill:#485543;fill-opacity:1;stroke-width:101;stroke-dasharray:none" /><path
       d="m 2595,2662 c -42,-26 -121,-116 -129,-148 -4,-14 -2,-31 3,-38 6,-7 8,-23 5,-37 -2,-13 3,-6 11,16 10,25 12,41 5,43 -13,5 -13,32 0,32 6,0 10,-7 10,-15 0,-8 5,-15 11,-15 6,0 8,-7 5,-16 -17,-45 -14,-62 4,-19 28,66 45,82 37,35 -5,-33 -4,-32 18,15 13,27 34,57 46,66 20,15 21,21 13,58 l -9,41 z m 29,-41 c -9,-10 -26,18 -18,30 5,9 9,8 14,-7 4,-10 6,-21 4,-23 z m -24,-2 c 7,-11 9,-28 5,-37 -6,-15 -8,-15 -21,2 -16,23 -19,56 -4,56 5,0 14,-9 20,-21 z m -34,-34 c 4,-14 4,-29 0,-32 -11,-11 -39,25 -33,41 9,24 26,19 33,-9 z m -36,-36 c 14,-24 9,-32 -14,-23 -17,7 -23,44 -6,44 5,0 14,-9 20,-21 z"
       id="path68"
       style="fill:#485543;fill-opacity:1;stroke-width:101;stroke-dasharray:none" /><path
       d="m 3978,2673 c 6,-2 18,-2 25,0 6,3 1,5 -13,5 -14,0 -19,-2 -12,-5 z"
       id="path69"
       style="fill:#485543;fill-opacity:1;stroke-width:101;stroke-dasharray:none" /><path
       d="m 4158,2643 c 7,-3 16,-2 19,1 4,3 -2,6 -13,5 -11,0 -14,-3 -6,-6 z"
       id="path70"
       style="fill:#485543;fill-opacity:1;stroke-width:101;stroke-dasharray:none" /><path
       d="m 4606,2635 c -30,-23 -15,-26 29,-5 35,16 37,18 15,19 -14,0 -34,-6 -44,-14 z"
       id="path71"
       style="fill:#485543;fill-opacity:1;stroke-width:101;stroke-dasharray:none" /><path
       d="m 4118,2633 c 7,-3 16,-2 19,1 4,3 -2,6 -13,5 -11,0 -14,-3 -6,-6 z"
       id="path72"
       style="fill:#485543;fill-opacity:1;stroke-width:101;stroke-dasharray:none" /><path
       d="m 4078,2623 c 7,-3 16,-2 19,1 4,3 -2,6 -13,5 -11,0 -14,-3 -6,-6 z"
       id="path73"
       style="fill:#485543;fill-opacity:1;stroke-width:101;stroke-dasharray:none" /><path
       d="m 5125,2558 c -39,-40 -54,-58 -35,-40 20,17 39,32 43,32 4,0 8,-78 9,-172 l 1,-173 7,185 c 3,102 10,191 14,198 4,8 14,11 22,8 9,-3 14,2 14,14 0,11 -1,20 -3,20 -1,0 -34,-33 -72,-72 z"
       id="path74"
       style="fill:#485543;fill-opacity:1;stroke-width:101;stroke-dasharray:none" /><path
       d="m 5223,2550 c 0,-36 2,-50 4,-32 2,17 2,47 0,65 -2,17 -4,3 -4,-33 z"
       id="path75"
       style="fill:#485543;fill-opacity:1;stroke-width:101;stroke-dasharray:none" /><path
       d="m 5262,2570 c 0,-19 2,-27 5,-17 2,9 2,25 0,35 -3,9 -5,1 -5,-18 z"
       id="path76"
       style="fill:#485543;fill-opacity:1;stroke-width:101;stroke-dasharray:none" /><path
       d="m 4850,2575 c -14,-7 -27,-9 -30,-5 -3,5 -26,2 -50,-6 -25,-9 -56,-13 -70,-11 -14,3 -41,-1 -60,-9 l -35,-13 39,6 c 30,4 37,3 31,-7 -6,-10 -1,-11 21,-5 16,5 42,8 57,7 26,-1 127,41 127,53 0,7 -1,6 -30,-10 z"
       id="path77"
       style="fill:#485543;fill-opacity:1;stroke-width:101;stroke-dasharray:none" /><path
       d="m 4590,2565 c -7,-9 -8,-15 -2,-15 5,0 12,7 16,15 3,8 4,15 2,15 -2,0 -9,-7 -16,-15 z"
       id="path78"
       style="fill:#485543;fill-opacity:1;stroke-width:101;stroke-dasharray:none" /><path
       d="m 4010,2545 c -14,-8 -20,-14 -14,-15 5,0 19,7 30,15 24,18 16,19 -16,0 z"
       id="path79"
       style="fill:#485543;fill-opacity:1;stroke-width:101;stroke-dasharray:none" /><path
       d="m 5184,2455 c 0,-55 1,-76 3,-47 2,29 2,74 0,100 -2,26 -3,2 -3,-53 z"
       id="path80"
       style="fill:#485543;fill-opacity:1;stroke-width:101;stroke-dasharray:none" /><path
       d="m 3290,2495 c 0,-7 81,-47 86,-43 2,3 -17,14 -41,26 -25,12 -45,20 -45,17 z"
       id="path81"
       style="fill:#485543;fill-opacity:1;stroke-width:101;stroke-dasharray:none" /><path
       d="m 3203,2455 c 0,-22 2,-30 4,-17 2,12 2,30 0,40 -3,9 -5,-1 -4,-23 z"
       id="path82"
       style="fill:#485543;fill-opacity:1;stroke-width:101;stroke-dasharray:none" /><path
       d="m 5037,2483 c -4,-3 -6,-29 -6,-57 l 2,-51 7,55 c 7,59 7,64 -3,53 z"
       id="path83"
       style="fill:#485543;fill-opacity:1;stroke-width:101;stroke-dasharray:none" /><path
       d="m 4345,2470 c -13,-5 -14,-9 -5,-9 8,0 24,4 35,9 13,5 14,9 5,9 -8,0 -24,-4 -35,-9 z"
       id="path84"
       style="fill:#485543;fill-opacity:1;stroke-width:101;stroke-dasharray:none" /><path
       d="m 4108,2453 c 6,-2 18,-2 25,0 6,3 1,5 -13,5 -14,0 -19,-2 -12,-5 z"
       id="path85"
       style="fill:#485543;fill-opacity:1;stroke-width:101;stroke-dasharray:none" /><path
       d="m 4245,2445 c -28,-8 -39,-13 -25,-13 14,0 43,5 65,13 51,17 25,17 -40,0 z"
       id="path86"
       style="fill:#485543;fill-opacity:1;stroke-width:101;stroke-dasharray:none" /><path
       d="m 4991,2424 c 0,-11 3,-14 6,-6 3,7 2,16 -1,19 -3,4 -6,-2 -5,-13 z"
       id="path87"
       style="fill:#485543;fill-opacity:1;stroke-width:101;stroke-dasharray:none" /><path
       d="m 5093,2395 c 0,-27 2,-38 4,-22 2,15 2,37 0,50 -2,12 -4,0 -4,-28 z"
       id="path88"
       style="fill:#485543;fill-opacity:1;stroke-width:101;stroke-dasharray:none" /><path
       d="m 2531,2414 c 0,-11 3,-14 6,-6 3,7 2,16 -1,19 -3,4 -6,-2 -5,-13 z"
       id="path89"
       style="fill:#485543;fill-opacity:1;stroke-width:101;stroke-dasharray:none" /><path
       d="m 3265,2410 c 3,-5 11,-10 16,-10 6,0 7,5 4,10 -3,6 -11,10 -16,10 -6,0 -7,-4 -4,-10 z"
       id="path90"
       style="fill:#485543;fill-opacity:1;stroke-width:101;stroke-dasharray:none" /><path
       d="m 4460,2400 c -10,-6 -2,-7 25,-3 49,7 58,13 19,13 -16,0 -36,-5 -44,-10 z"
       id="path91"
       style="fill:#485543;fill-opacity:1;stroke-width:101;stroke-dasharray:none" /><path
       d="m 4874,2396 c -10,-27 2,-43 14,-19 8,14 9,24 2,28 -6,3 -13,-1 -16,-9 z"
       id="path92"
       style="fill:#485543;fill-opacity:1;stroke-width:101;stroke-dasharray:none" /><path
       d="m 2485,2378 c -10,-32 -5,-78 11,-113 10,-21 12,-23 8,-6 -3,13 -6,50 -5,82 1,63 -3,72 -14,37 z"
       id="path93"
       style="fill:#485543;fill-opacity:1;stroke-width:101;stroke-dasharray:none" /><path
       d="m 2366,2360 c 6,-41 35,-133 39,-128 4,3 -31,134 -40,153 -3,6 -2,-6 1,-25 z"
       id="path94"
       style="fill:#485543;fill-opacity:1;stroke-width:101;stroke-dasharray:none" /><path
       d="m 5213,2340 c 0,-25 2,-35 4,-22 2,12 2,32 0,45 -2,12 -4,2 -4,-23 z"
       id="path95"
       style="fill:#485543;fill-opacity:1;stroke-width:101;stroke-dasharray:none" /><path
       d="m 4821,2354 c 0,-11 3,-14 6,-6 3,7 2,16 -1,19 -3,4 -6,-2 -5,-13 z"
       id="path96"
       style="fill:#485543;fill-opacity:1;stroke-width:101;stroke-dasharray:none" /><path
       d="m 4983,2300 c 0,-41 2,-58 4,-37 2,20 2,54 0,75 -2,20 -4,3 -4,-38 z"
       id="path97"
       style="fill:#485543;fill-opacity:1;stroke-width:101;stroke-dasharray:none" /><path
       d="m 2531,2274 c 0,-11 3,-14 6,-6 3,7 2,16 -1,19 -3,4 -6,-2 -5,-13 z"
       id="path98"
       style="fill:#485543;fill-opacity:1;stroke-width:101;stroke-dasharray:none" /><path
       d="m 4513,2283 c 9,-2 23,-2 30,0 6,3 -1,5 -18,5 -16,0 -22,-2 -12,-5 z"
       id="path99"
       style="fill:#485543;fill-opacity:1;stroke-width:101;stroke-dasharray:none" /><path
       d="m 4418,2273 c 12,-2 32,-2 45,0 12,2 2,4 -23,4 -25,0 -35,-2 -22,-4 z"
       id="path100"
       style="fill:#485543;fill-opacity:1;stroke-width:101;stroke-dasharray:none" /><path
       d="m 5033,2185 c 0,-44 2,-61 4,-37 2,23 2,59 0,80 -2,20 -4,1 -4,-43 z"
       id="path101"
       style="fill:#485543;fill-opacity:1;stroke-width:101;stroke-dasharray:none" /><path
       d="m 5174,2140 c 0,-63 1,-89 3,-57 2,31 2,83 0,115 -2,31 -3,5 -3,-58 z"
       id="path102"
       style="fill:#485543;fill-opacity:1;stroke-width:101;stroke-dasharray:none" /><path
       d="m 5082,2185 c 0,-16 2,-22 5,-12 2,9 2,23 0,30 -3,6 -5,-1 -5,-18 z"
       id="path103"
       style="fill:#485543;fill-opacity:1;stroke-width:101;stroke-dasharray:none" /><path
       d="m 5202,2160 c 0,-19 2,-27 5,-17 2,9 2,25 0,35 -3,9 -5,1 -5,-18 z"
       id="path104"
       style="fill:#485543;fill-opacity:1;stroke-width:101;stroke-dasharray:none" /><path
       d="m 5560,2127 c 0,-2 25,-21 55,-41 66,-46 192,-176 239,-248 54,-83 71,-152 70,-298 -1,-173 -44,-327 -125,-447 -44,-65 -211,-236 -283,-289 -32,-24 -54,-44 -49,-44 47,0 302,244 361,345 79,135 130,346 117,485 -8,92 -42,195 -88,264 -68,102 -246,276 -283,276 -8,0 -14,-2 -14,-3 z"
       id="path105"
       style="fill:#485543;fill-opacity:1;stroke-width:101;stroke-dasharray:none" /><path
       d="m 5083,2040 c 0,-47 2,-66 4,-42 2,23 2,61 0,85 -2,23 -4,4 -4,-43 z"
       id="path106"
       style="fill:#485543;fill-opacity:1;stroke-width:101;stroke-dasharray:none" /><path
       d="m 3152,2085 c 0,-16 2,-22 5,-12 2,9 2,23 0,30 -3,6 -5,-1 -5,-18 z"
       id="path107"
       style="fill:#485543;fill-opacity:1;stroke-width:101;stroke-dasharray:none" /><path
       d="m 4973,2050 c 0,-30 2,-43 4,-27 2,15 2,39 0,55 -2,15 -4,2 -4,-28 z"
       id="path108"
       style="fill:#485543;fill-opacity:1;stroke-width:101;stroke-dasharray:none" /><path
       d="m 5133,1960 c 0,-30 2,-43 4,-27 2,15 2,39 0,55 -2,15 -4,2 -4,-28 z"
       id="path109"
       style="fill:#485543;fill-opacity:1;stroke-width:101;stroke-dasharray:none" /><path
       d="m 4942,1939 c -1,-31 4,-72 12,-90 l 14,-34 7,37 c 4,20 5,43 2,50 -3,7 -6,3 -6,-9 -1,-13 -5,-23 -11,-23 -5,0 -11,28 -13,63 l -3,62 z"
       id="path110"
       style="fill:#485543;fill-opacity:1;stroke-width:101;stroke-dasharray:none" /><path
       d="m 3163,1890 c 0,-41 2,-58 4,-37 2,20 2,54 0,75 -2,20 -4,3 -4,-38 z"
       id="path111"
       style="fill:#485543;fill-opacity:1;stroke-width:101;stroke-dasharray:none" /><path
       d="m 3212,1845 c 0,-16 2,-22 5,-12 2,9 2,23 0,30 -3,6 -5,-1 -5,-18 z"
       id="path112"
       style="fill:#485543;fill-opacity:1;stroke-width:101;stroke-dasharray:none" /><path
       d="m 5024,1715 c 0,-49 1,-71 3,-48 2,23 2,64 0,90 -2,26 -3,8 -3,-42 z"
       id="path113"
       style="fill:#485543;fill-opacity:1;stroke-width:101;stroke-dasharray:none" /><path
       d="m 2429,1752 c 16,-30 114,-116 189,-166 76,-50 231,-136 247,-136 6,0 -30,22 -80,48 -119,64 -195,112 -195,123 0,5 29,-7 65,-27 95,-53 79,-36 -25,26 -50,29 -117,75 -151,102 -33,27 -56,40 -50,30 z"
       id="path114"
       style="fill:#485543;fill-opacity:1;stroke-width:101;stroke-dasharray:none" /><path
       d="m 3223,1685 c 0,-33 2,-45 4,-27 2,18 2,45 0,60 -2,15 -4,0 -4,-33 z"
       id="path115"
       style="fill:#485543;fill-opacity:1;stroke-width:101;stroke-dasharray:none" /><path
       d="m 2584,1685 c 53,-40 346,-176 378,-175 7,1 -23,15 -66,32 -43,17 -136,59 -205,94 -69,35 -117,57 -107,49 z"
       id="path116"
       style="fill:#485543;fill-opacity:1;stroke-width:101;stroke-dasharray:none" /><path
       d="m 2460,1620 c 14,-11 34,-25 45,-31 14,-7 12,-4 -5,11 -14,11 -34,25 -45,31 -14,7 -12,4 5,-11 z"
       id="path117"
       style="fill:#485543;fill-opacity:1;stroke-width:101;stroke-dasharray:none" /><path
       d="m 2530,1576 c 0,-3 14,-12 30,-21 17,-9 30,-13 30,-11 0,3 -13,12 -30,21 -16,9 -30,13 -30,11 z"
       id="path118"
       style="fill:#485543;fill-opacity:1;stroke-width:101;stroke-dasharray:none" /><path
       d="m 2750,1545 c 14,-8 30,-14 35,-14 6,0 -1,6 -15,14 -14,8 -29,14 -35,14 -5,0 1,-6 15,-14 z"
       id="path119"
       style="fill:#485543;fill-opacity:1;stroke-width:101;stroke-dasharray:none" /><path
       d="m 2820,1516 c 0,-6 122,-46 139,-46 9,1 -18,12 -59,25 -83,27 -80,27 -80,21 z"
       id="path120"
       style="fill:#485543;fill-opacity:1;stroke-width:101;stroke-dasharray:none" /><path
       d="m 5110,1490 c -12,-16 -19,-30 -16,-30 2,0 14,14 26,30 12,17 19,30 16,30 -2,0 -14,-13 -26,-30 z"
       id="path121"
       style="fill:#485543;fill-opacity:1;stroke-width:101;stroke-dasharray:none" /><path
       d="m 2690,1490 c 19,-11 40,-19 45,-19 6,0 -6,8 -25,19 -19,11 -39,19 -45,19 -5,0 6,-8 25,-19 z"
       id="path122"
       style="fill:#485543;fill-opacity:1;stroke-width:101;stroke-dasharray:none" /><path
       d="m 5005,1458 -50,-53 53,50 c 28,27 52,51 52,52 0,8 -9,-1 -55,-49 z"
       id="path123"
       style="fill:#485543;fill-opacity:1;stroke-width:101;stroke-dasharray:none" /><path
       d="m 2785,1450 c 22,-10 54,-21 70,-25 17,-3 1,6 -35,19 -76,30 -93,32 -35,6 z"
       id="path124"
       style="fill:#485543;fill-opacity:1;stroke-width:101;stroke-dasharray:none" /><path
       d="m 2988,1463 c 6,-2 18,-2 25,0 6,3 1,5 -13,5 -14,0 -19,-2 -12,-5 z"
       id="path125"
       style="fill:#485543;fill-opacity:1;stroke-width:101;stroke-dasharray:none" /><path
       d="m 2890,1440 c 8,-5 20,-10 25,-10 6,0 3,5 -5,10 -8,5 -19,10 -25,10 -5,0 -3,-5 5,-10 z"
       id="path126"
       style="fill:#485543;fill-opacity:1;stroke-width:101;stroke-dasharray:none" /><path
       d="m 2938,1424 c 6,-3 10,-10 6,-15 -3,-5 26,-8 68,-8 l 73,1 -52,8 c -29,4 -65,10 -80,14 -16,3 -22,3 -15,0 z"
       id="path127"
       style="fill:#485543;fill-opacity:1;stroke-width:101;stroke-dasharray:none" /><path
       d="m 4845,1393 c -62,-43 -69,-50 -30,-30 29,15 95,67 85,66 -3,0 -27,-16 -55,-36 z"
       id="path128"
       style="fill:#485543;fill-opacity:1;stroke-width:101;stroke-dasharray:none" /><path
       d="m 5215,1410 c 28,-12 37,-12 30,0 -3,6 -16,10 -28,9 -21,0 -21,-1 -2,-9 z"
       id="path129"
       style="fill:#485543;fill-opacity:1;stroke-width:101;stroke-dasharray:none" /><path
       d="m 3116,1370 c 12,-46 35,-88 71,-127 32,-35 33,-35 7,-3 -15,19 -40,62 -56,95 -16,33 -26,49 -22,35 z"
       id="path130"
       style="fill:#485543;fill-opacity:1;stroke-width:101;stroke-dasharray:none" /><path
       d="m 4698,1332 c -18,-15 -49,-38 -68,-50 -19,-12 -30,-22 -24,-22 6,0 31,14 55,32 24,17 54,37 67,44 13,6 19,15 13,18 -5,4 -25,-6 -43,-22 z"
       id="path131"
       style="fill:#485543;fill-opacity:1;stroke-width:101;stroke-dasharray:none" /><path
       d="m 4610,1331 c -103,-74 -163,-99 -187,-80 -9,8 -13,8 -13,1 0,-20 19,-23 62,-11 24,7 61,12 83,11 31,0 35,1 16,7 -21,5 -23,9 -10,18 74,61 103,93 49,54 z"
       id="path132"
       style="fill:#485543;fill-opacity:1;stroke-width:101;stroke-dasharray:none" /><path
       d="m 3110,1300 c 6,-11 13,-20 16,-20 2,0 0,9 -6,20 -6,11 -13,20 -16,20 -2,0 0,-9 6,-20 z"
       id="path133"
       style="fill:#485543;fill-opacity:1;stroke-width:101;stroke-dasharray:none" /><path
       d="m 2360,1155 c 77,-132 223,-275 355,-350 48,-27 89,-55 92,-62 7,-19 60,-44 166,-82 125,-44 133,-38 10,8 -58,21 -125,55 -155,78 -29,21 -75,52 -103,68 -113,64 -248,189 -330,305 -50,71 -64,85 -35,35 z"
       id="path134"
       style="fill:#485543;fill-opacity:1;stroke-width:101;stroke-dasharray:none" /><path
       d="m 5585,942 c -33,-32 -71,-65 -85,-74 -21,-14 -22,-17 -6,-17 16,-1 69,46 135,122 39,44 20,31 -44,-31 z"
       id="path135"
       style="fill:#485543;fill-opacity:1;stroke-width:101;stroke-dasharray:none" /><path
       d="m 2834,881 c 26,-28 172,-113 201,-116 13,-2 34,-6 47,-9 12,-3 -8,9 -47,27 -38,19 -104,53 -145,76 -48,27 -68,35 -56,22 z"
       id="path136"
       style="fill:#485543;fill-opacity:1;stroke-width:101;stroke-dasharray:none" /><path
       d="m 5414,815 c -15,-11 -16,-14 -3,-15 8,0 24,7 35,15 15,11 16,14 3,15 -8,0 -24,-7 -35,-15 z"
       id="path137"
       style="fill:#485543;fill-opacity:1;stroke-width:101;stroke-dasharray:none" /><path
       d="m 5345,770 c -3,-5 1,-10 9,-10 8,0 18,5 21,10 3,6 -1,10 -9,10 -8,0 -18,-4 -21,-10 z"
       id="path138"
       style="fill:#485543;fill-opacity:1;stroke-width:101;stroke-dasharray:none" /><path
       d="m 3120,740 c 8,-5 20,-10 25,-10 6,0 3,5 -5,10 -8,5 -19,10 -25,10 -5,0 -3,-5 5,-10 z"
       id="path139"
       style="fill:#485543;fill-opacity:1;stroke-width:101;stroke-dasharray:none" /><path
       d="m 3170,722 c 8,-5 26,-13 40,-16 17,-5 20,-4 10,2 -8,5 -26,13 -40,16 -17,5 -20,4 -10,-2 z"
       id="path140"
       style="fill:#485543;fill-opacity:1;stroke-width:101;stroke-dasharray:none" /><path
       d="m 5355,691 c -22,-16 -83,-52 -135,-80 -52,-28 -91,-51 -87,-51 18,0 204,101 237,129 44,38 37,39 -15,2 z"
       id="path141"
       style="fill:#485543;fill-opacity:1;stroke-width:101;stroke-dasharray:none" /><path
       d="m 3190,680 c 19,-11 40,-19 45,-19 6,0 -6,8 -25,19 -19,11 -39,19 -45,19 -5,0 6,-8 25,-19 z"
       id="path142"
       style="fill:#485543;fill-opacity:1;stroke-width:101;stroke-dasharray:none" /><path
       d="m 3270,645 c 14,-8 30,-14 35,-14 6,0 -1,6 -15,14 -14,8 -29,14 -35,14 -5,0 1,-6 15,-14 z"
       id="path143"
       style="fill:#485543;fill-opacity:1;stroke-width:101;stroke-dasharray:none" /><path
       d="m 3550,580 c -19,-4 -29,-8 -21,-9 8,0 78,-10 156,-21 97,-14 153,-18 180,-12 35,7 26,9 -65,15 -94,6 -124,11 -195,29 -11,3 -36,2 -55,-2 z"
       id="path144"
       style="fill:#485543;fill-opacity:1;stroke-width:101;stroke-dasharray:none" /><path
       d="m 5087,569 c -79,-42 -273,-98 -412,-120 -227,-35 -638,-37 -945,-4 -36,4 -40,3 -18,-4 113,-37 701,-48 908,-17 228,35 392,80 469,131 22,15 41,29 41,31 0,6 -1,5 -43,-17 z"
       id="path145"
       style="fill:#485543;fill-opacity:1;stroke-width:101;stroke-dasharray:none" /><path
       d="m 4818,573 c 7,-3 16,-2 19,1 4,3 -2,6 -13,5 -11,0 -14,-3 -6,-6 z"
       id="path146"
       style="fill:#485543;fill-opacity:1;stroke-width:101;stroke-dasharray:none" /><path
       d="m 4610,549 c -74,-9 -190,-18 -257,-18 -70,-1 -124,-5 -128,-11 -3,-5 -31,-10 -62,-10 -31,0 -53,-3 -50,-7 16,-16 657,43 676,63 7,6 -33,3 -179,-17 z"
       id="path147"
       style="fill:#485543;fill-opacity:1;stroke-width:101;stroke-dasharray:none" /><path
       d="m 3573,543 c 9,-2 23,-2 30,0 6,3 -1,5 -18,5 -16,0 -22,-2 -12,-5 z"
       id="path148"
       style="fill:#485543;fill-opacity:1;stroke-width:101;stroke-dasharray:none" /><path
       d="m 4013,533 c 26,-2 68,-2 95,0 26,2 4,3 -48,3 -52,0 -74,-1 -47,-3 z"
       id="path149"
       style="fill:#485543;fill-opacity:1;stroke-width:101;stroke-dasharray:none" /><path
       d="m 4008,493 c 12,-2 32,-2 45,0 12,2 2,4 -23,4 -25,0 -35,-2 -22,-4 z"
       id="path150"
       style="fill:#485543;fill-opacity:1;stroke-width:101;stroke-dasharray:none" /></g></svg>
