<?xml version="1.0" encoding="UTF-8" standalone="no"?>
<svg
   version="1.0"
   width="352.89957pt"
   height="429.9173pt"
   viewBox="0 0 352.89957 429.9173"
   preserveAspectRatio="xMidYMid"
   id="svg92"
   sodipodi:docname="cupcake.svg"
   xmlns:inkscape="http://www.inkscape.org/namespaces/inkscape"
   xmlns:sodipodi="http://sodipodi.sourceforge.net/DTD/sodipodi-0.dtd"
   xmlns="http://www.w3.org/2000/svg"
   xmlns:svg="http://www.w3.org/2000/svg">
  <defs
     id="defs92" />
  <sodipodi:namedview
     id="namedview92"
     pagecolor="#ffffff"
     bordercolor="#000000"
     borderopacity="0.25"
     inkscape:showpageshadow="2"
     inkscape:pageopacity="0.0"
     inkscape:pagecheckerboard="0"
     inkscape:deskcolor="#d1d1d1"
     inkscape:document-units="pt" />
  <g
     transform="matrix(0.1,0,0,-0.1,-69.600397,460.90473)"
     fill="#000000"
     stroke="none"
     id="g92"
     style="fill:#543b48;fill-opacity:1"
     inkscape:export-filename="..\OneDrive - Senacyt\Pictures\coffeeShop\cupcake.svg"
     inkscape:export-xdpi="96"
     inkscape:export-ydpi="96">
    <path
       d="m 3983,4579 c -86,-42 -182,-50 -243,-20 -56,27 -60,27 -60,-8 0,-16 -7,-61 -16,-102 -18,-78 -20,-81 -130,-174 -157,-133 -290,-279 -383,-418 -8,-12 -31,-42 -50,-66 -20,-24 -52,-73 -71,-109 l -35,-64 -75,-3 c -170,-6 -273,-49 -362,-150 -18,-20 -45,-50 -59,-66 -14,-15 -45,-64 -70,-109 -24,-44 -48,-80 -53,-80 -11,0 -81,75 -129,137 -18,23 -36,42 -42,42 -5,0 -30,-31 -54,-69 -24,-38 -62,-89 -83,-112 -21,-24 -46,-53 -55,-66 -35,-50 -94,-73 -215,-83 -200,-16 -327,-48 -382,-97 -16,-15 -76,-130 -88,-171 -3,-12 -135,-61 -164,-61 -14,0 -116,-61 -136,-81 -54,-54 -159,-255 -142,-272 3,-3 0,-23 -6,-46 -9,-33 -7,-49 9,-97 11,-31 27,-61 36,-68 13,-9 8,-19 -35,-69 -28,-32 -50,-65 -50,-73 0,-23 -33,-16 -87,20 -28,19 -54,32 -56,29 -3,-2 1,-16 9,-31 15,-32 79,-268 143,-532 12,-47 39,-155 61,-240 23,-85 65,-268 95,-405 29,-138 62,-275 72,-305 17,-52 21,-56 83,-87 81,-39 255,-90 335,-98 33,-3 94,-10 135,-15 387,-50 485,-54 1265,-48 33,0 83,4 110,9 28,4 78,11 113,14 81,7 228,55 370,122 39,18 52,29 47,40 -3,9 -1,21 4,27 6,7 21,63 35,126 14,63 39,160 55,215 17,55 31,107 31,115 0,8 6,26 13,40 7,14 19,48 26,75 7,28 19,66 27,85 21,54 37,94 39,100 1,3 7,18 13,33 7,16 12,31 12,33 0,5 12,32 56,129 7,17 43,104 79,195 36,91 74,177 85,192 11,15 17,34 14,42 -8,20 -10,20 -36,-4 -12,-11 -27,-20 -33,-20 -14,0 -35,58 -35,98 0,24 -9,38 -39,62 -39,31 -39,32 -23,63 38,76 9,147 -120,291 -55,61 -118,138 -140,171 -23,33 -67,89 -98,125 -31,36 -65,77 -74,92 -10,16 -34,45 -52,65 -38,41 -40,55 -20,156 28,148 -45,350 -177,484 l -51,53 13,37 c 37,105 174,277 396,498 178,177 214,197 363,203 56,2 102,8 102,12 0,16 107,138 165,189 33,29 60,57 60,62 0,8 -159,70 -175,68 -3,0 -33,-14 -67,-30 z m 65,-97 24,-18 -27,-32 c -15,-18 -36,-32 -48,-32 -52,0 -177,-34 -242,-65 -59,-28 -93,-57 -217,-182 -223,-225 -272,-280 -355,-400 -12,-18 -34,-63 -49,-100 -15,-38 -30,-72 -35,-77 -8,-8 -69,11 -69,22 0,8 101,154 187,269 78,104 231,265 314,330 102,81 159,140 165,174 3,19 8,45 10,58 l 5,24 35,-34 c 48,-47 86,-45 156,8 49,38 106,73 118,73 3,0 16,-9 28,-18 z m -158,-37 c 0,-9 -59,-35 -78,-35 -11,0 -25,6 -31,14 -10,12 -6,15 26,19 67,7 83,7 83,2 z m -816,-971 c 125,-63 230,-193 243,-302 6,-52 -11,-201 -29,-252 -10,-31 -13,-32 -52,-26 -76,11 -196,40 -196,47 0,4 -8,5 -19,2 -10,-2 -25,2 -32,9 -7,8 -24,12 -37,10 -23,-4 -24,-2 -19,24 7,28 7,29 -9,8 -10,-14 -22,-20 -35,-17 -21,6 -25,18 -9,28 14,9 32,45 23,45 -4,0 -17,-14 -28,-30 -22,-33 -24,-34 -44,-21 -12,8 -9,16 17,42 18,18 32,37 32,42 0,5 -17,-10 -38,-33 -29,-33 -43,-42 -57,-36 -16,6 -12,13 30,56 27,28 45,50 39,50 -5,0 -30,-20 -54,-45 -41,-42 -70,-57 -70,-36 0,4 23,28 50,52 28,24 50,48 50,53 0,5 -27,-17 -60,-48 -35,-34 -65,-54 -71,-50 -8,4 10,28 50,67 34,33 60,61 58,63 -2,3 -15,-6 -28,-19 -72,-71 -111,-99 -120,-90 -9,9 47,69 115,121 16,12 22,22 15,22 -8,-1 -45,-30 -84,-65 -63,-58 -96,-79 -94,-57 0,7 143,136 169,152 8,5 12,12 8,15 -7,7 -31,-13 -135,-107 -41,-38 -68,-56 -78,-52 -14,6 -14,8 0,24 8,9 56,50 105,91 49,40 88,75 85,77 -4,4 -109,-77 -182,-142 -24,-21 -46,-36 -49,-33 -11,10 112,125 209,195 20,14 25,22 16,22 -17,0 -73,-45 -176,-142 -59,-56 -85,-69 -98,-49 -6,10 247,221 265,221 5,0 10,5 10,11 0,18 -13,9 -155,-104 -121,-96 -161,-122 -141,-88 9,14 271,218 288,224 7,2 10,7 7,11 -6,6 -148,-94 -226,-159 -18,-15 -33,-23 -33,-18 0,12 51,59 123,112 32,24 55,46 53,49 -3,3 -26,-12 -51,-33 -25,-20 -48,-35 -51,-33 -2,3 16,20 42,39 25,19 60,46 77,60 53,43 89,59 157,68 101,15 158,8 224,-25 z m -894,-281 c -11,-16 -69,-76 -128,-135 -58,-60 -101,-108 -96,-108 13,0 63,47 172,163 45,48 87,87 92,87 21,0 8,-27 -27,-59 -105,-95 -224,-214 -221,-222 2,-5 61,47 131,116 70,69 132,125 137,125 6,0 10,-9 10,-20 0,-11 -4,-20 -9,-20 -5,0 -55,-47 -111,-104 -56,-57 -113,-110 -126,-117 -35,-18 -29,-43 19,-80 23,-19 53,-44 67,-56 30,-28 117,-73 139,-73 9,0 39,-9 68,-20 41,-15 169,-34 218,-32 39,2 78,12 88,22 10,10 7,12 -11,7 -20,-5 -21,-3 -10,10 12,14 11,15 -9,5 -12,-7 -30,-12 -40,-12 -15,0 -16,2 -3,11 11,7 4,8 -25,4 l -40,-6 24,20 c 26,24 16,28 -13,6 -11,-8 -27,-15 -35,-14 -12,0 -10,4 7,16 12,8 22,20 22,25 0,5 -13,0 -29,-11 -16,-12 -37,-21 -47,-21 -13,0 -8,8 19,27 20,14 35,28 33,31 -5,4 -69,-39 -74,-50 -2,-5 -10,-8 -18,-8 -24,0 -16,13 38,63 29,27 43,43 31,37 -13,-6 -40,-28 -61,-50 -28,-29 -41,-37 -52,-30 -12,8 -5,19 38,62 28,30 52,59 52,65 0,7 -18,50 -39,96 -36,76 -81,182 -81,191 0,9 139,-90 249,-175 113,-88 228,-159 361,-220 36,-17 92,-44 126,-60 73,-35 96,-36 127,-5 14,13 48,36 77,51 28,14 50,28 48,31 -3,2 -42,-16 -87,-40 -74,-40 -111,-49 -111,-26 0,4 20,17 45,29 25,12 45,23 45,26 0,5 -65,-22 -90,-37 -13,-8 -25,-9 -41,-2 -19,9 -11,15 76,57 53,26 101,47 105,47 23,0 17,-20 -13,-39 -17,-11 -27,-21 -21,-21 5,0 25,11 43,24 41,31 62,23 111,-41 19,-25 62,-80 96,-122 33,-42 74,-96 91,-121 33,-48 182,-223 195,-228 22,-9 73,-101 79,-141 11,-77 -3,-99 -95,-141 -45,-21 -112,-48 -151,-60 -38,-12 -95,-31 -125,-42 -70,-25 -249,-58 -319,-58 -48,0 -106,22 -131,49 -14,16 -68,48 -87,53 -16,4 -23,2 -23,-8 0,-8 -11,-20 -25,-26 -14,-6 -25,-14 -25,-18 0,-4 -24,-22 -52,-41 -29,-18 -66,-46 -82,-61 -35,-33 -38,-34 -61,-8 -25,28 -175,127 -220,146 -20,8 -33,19 -30,24 15,24 -32,6 -74,-28 -62,-51 -149,-112 -160,-112 -4,0 -24,12 -44,28 -60,45 -127,84 -185,108 -30,12 -57,26 -61,31 -10,14 -51,13 -51,-1 0,-7 -11,-18 -25,-24 -28,-13 -34,-2 -10,18 8,7 15,17 15,22 0,18 -27,-11 -40,-41 -6,-16 -22,-33 -36,-39 -27,-13 -32,-1 -9,22 8,8 15,21 15,28 0,7 7,22 15,32 8,11 15,25 15,30 0,6 -10,-4 -21,-21 -22,-34 -34,-39 -59,-23 -13,8 -13,13 2,40 9,16 13,32 9,34 -4,3 -15,-10 -24,-29 -13,-26 -23,-35 -42,-35 -30,0 -31,3 -4,47 12,19 19,36 17,38 -2,2 -15,-14 -28,-35 -17,-28 -32,-40 -47,-40 -28,0 -29,10 -2,61 11,22 18,46 16,52 -2,6 -14,-15 -27,-46 -16,-39 -29,-57 -41,-57 -31,0 -30,17 1,70 17,29 29,57 27,64 -2,6 -19,-19 -38,-56 -30,-62 -35,-67 -58,-61 -15,3 -27,7 -29,8 -6,5 49,106 68,125 11,11 15,22 10,25 -10,6 -42,-41 -84,-123 -27,-54 -32,-58 -55,-43 -11,7 -3,30 43,115 31,58 53,106 49,106 -5,0 -30,-42 -58,-94 -43,-82 -55,-97 -92,-115 -40,-19 -55,-17 -34,4 9,10 80,150 116,228 10,21 16,40 13,42 -2,2 -26,-43 -53,-100 -43,-89 -53,-103 -70,-98 -11,3 -23,8 -27,12 -6,6 81,161 108,192 19,21 18,35 -1,19 -8,-7 -33,-44 -55,-84 -54,-97 -72,-118 -92,-111 -18,7 -6,34 84,183 21,34 34,62 30,62 -7,0 -30,-37 -95,-154 -37,-65 -49,-77 -66,-67 -18,11 -10,33 49,132 28,45 50,85 50,88 -1,11 -110,-164 -110,-175 0,-6 -7,-17 -15,-24 -25,-21 -29,13 -5,59 11,23 18,41 15,41 -2,0 -14,-18 -25,-41 -21,-40 -22,-40 -41,-23 -18,16 -18,19 -3,42 9,14 32,54 51,89 18,36 52,94 75,129 22,36 38,67 35,70 -5,5 -117,-173 -117,-187 0,-6 -8,-22 -19,-37 -10,-15 -26,-40 -36,-57 -18,-28 -19,-29 -28,-8 -7,17 3,41 54,129 71,124 119,197 131,202 4,2 8,8 8,14 0,30 -58,-53 -156,-222 -49,-84 -49,-84 -52,-48 -2,28 8,54 54,129 31,52 72,113 91,137 20,24 33,46 30,49 -7,7 -82,-96 -132,-181 -22,-37 -41,-64 -42,-59 -6,18 26,79 91,173 62,89 60,92 -7,9 l -28,-34 23,43 c 48,89 137,152 217,152 h 41 v -40 c 0,-51 0,-52 11,-72 11,-20 33,-25 27,-6 -4,11 152,172 243,251 24,21 37,35 29,31 -25,-12 -109,-84 -188,-161 -69,-68 -92,-84 -92,-65 1,11 117,129 195,196 62,54 74,61 139,72 39,7 97,13 130,13 116,2 142,18 303,194 69,76 105,104 63,50 z m 130,-197 c 49,-105 58,-136 43,-136 -5,0 -35,-25 -67,-54 l -60,-55 -38,22 c -21,12 -38,24 -38,27 0,3 36,41 80,85 44,44 80,84 80,90 0,5 -40,-30 -88,-78 -82,-82 -89,-86 -107,-72 -19,14 -19,16 -3,28 41,32 179,169 175,174 -3,2 -41,-30 -86,-73 -105,-100 -116,-108 -130,-90 -9,10 0,23 41,58 96,82 163,148 151,148 -6,0 -33,-22 -60,-48 -52,-53 -147,-132 -157,-132 -19,0 5,30 96,120 56,55 106,99 110,98 5,-2 31,-52 58,-112 z m 390,-66 c 0,-5 7,-7 15,-4 8,4 15,1 15,-4 0,-21 -18,-21 -35,-2 -10,12 -13,20 -7,20 7,0 12,-4 12,-10 z m -1175,-63 c -33,-29 -81,-74 -108,-101 -26,-27 -49,-47 -52,-45 -24,25 158,192 215,197 3,1 -22,-22 -55,-51 z m 1274,34 c 2,-1 -4,-10 -14,-21 -21,-23 -44,-28 -25,-5 7,9 10,19 6,22 -4,4 -11,1 -16,-7 -5,-8 -12,-11 -15,-8 -4,4 -4,12 0,18 5,9 24,9 64,1 z m 16,-31 c -10,-11 -23,-20 -28,-20 -6,0 -2,9 8,20 10,11 23,20 28,20 6,0 2,-9 -8,-20 z m -1375,-24 c -19,-18 -37,-32 -40,-29 -6,5 56,63 68,63 4,0 -9,-15 -28,-34 z m 1430,26 c 0,-12 -60,-45 -68,-37 -4,3 4,15 18,25 26,20 50,26 50,12 z m 40,-9 c 0,-13 -68,-55 -80,-51 -7,2 5,16 27,31 38,28 53,33 53,20 z m 15,-29 c -38,-32 -65,-47 -65,-37 0,13 64,62 80,62 9,0 4,-9 -15,-25 z m -545,9 c 0,-5 -22,-32 -48,-62 -41,-46 -51,-53 -72,-46 -23,7 -22,9 31,60 48,47 89,69 89,48 z m 610,0 c 0,-11 -90,-67 -96,-60 -7,7 68,67 83,67 7,0 13,-3 13,-7 z m 145,-21 40,-8 -93,-46 c -51,-25 -95,-42 -97,-38 -5,8 72,60 109,73 10,4 16,10 13,13 -3,4 -37,-11 -74,-32 -83,-48 -83,-48 -83,-37 0,4 23,23 50,42 28,19 48,36 46,38 -2,3 -29,-12 -59,-32 -71,-47 -95,-41 -31,8 52,39 64,41 179,19 z M 984,2063 c -15,-26 -34,-60 -41,-76 -8,-15 -18,-25 -23,-22 -11,7 34,101 63,132 31,35 32,20 1,-34 z m 76,41 c 0,-3 -19,-40 -43,-84 -33,-60 -46,-77 -57,-70 -12,7 -12,15 4,47 39,83 66,122 81,117 8,-4 15,-8 15,-10 z m 44,-23 c 3,-5 -12,-42 -34,-82 -29,-56 -43,-73 -57,-71 -10,2 -19,5 -21,7 -1,1 14,36 35,78 35,70 62,94 77,68 z m 57,-11 c 8,0 -2,-21 -51,-103 -23,-38 -60,-68 -60,-47 0,5 17,44 38,85 24,49 42,73 50,70 8,-3 18,-5 23,-5 z m 69,-24 c 0,-22 -50,-80 -80,-92 -39,-17 -38,-7 5,60 27,43 39,53 55,49 11,-3 20,-11 20,-17 z m 188,-71 c 1,-1 0,-10 -4,-19 -6,-15 -9,-15 -30,5 -28,26 -22,44 9,28 12,-7 23,-13 25,-14 z m -102,-16 c 18,-17 21,-26 13,-41 -9,-17 -8,-18 10,-6 29,18 35,5 16,-32 -9,-18 -14,-34 -12,-36 2,-3 10,9 17,26 7,16 16,30 21,30 13,0 13,0 -26,-111 -39,-112 -38,-109 -27,-109 4,0 12,21 19,48 19,79 50,142 67,136 8,-3 12,-12 9,-20 -4,-10 0,-12 11,-8 9,3 16,1 16,-4 0,-10 -70,-227 -86,-266 -5,-13 -4,-17 4,-12 6,4 30,66 53,138 38,120 43,130 56,112 13,-18 13,-42 -2,-89 -3,-11 2,-5 12,14 18,34 54,60 103,76 14,4 36,16 50,25 14,9 58,36 98,58 68,38 76,40 99,28 17,-8 22,-16 14,-20 -6,-4 -11,-12 -11,-19 0,-8 3,-8 12,1 18,18 41,15 34,-4 -3,-9 -2,-12 5,-9 12,8 63,-11 102,-38 25,-17 27,-21 14,-41 -16,-25 -28,-56 -22,-56 2,0 12,16 21,35 17,37 21,40 42,26 12,-7 11,-14 -3,-42 -13,-28 -13,-31 0,-15 8,11 15,23 15,28 0,4 7,8 15,8 20,0 31,-28 16,-43 -6,-6 -11,-16 -11,-21 0,-6 7,0 16,12 32,45 60,11 33,-40 -8,-15 -8,-19 0,-14 7,5 11,-6 11,-33 0,-22 -4,-43 -10,-46 -5,-3 -10,-12 -10,-18 0,-7 4,-6 11,3 13,19 3,-666 -11,-760 -10,-71 -13,-116 -5,-109 2,3 10,48 16,100 13,101 16,171 21,634 l 3,300 50,50 c 51,52 128,115 140,115 3,0 4,-10 0,-22 -6,-21 -5,-22 8,-6 19,24 28,12 16,-21 l -9,-26 19,22 c 24,29 34,18 14,-16 l -15,-26 20,25 c 14,17 24,22 31,15 7,-7 -1,-33 -24,-80 -19,-38 -33,-71 -30,-73 2,-2 20,28 39,67 20,39 39,71 42,71 10,0 64,-44 64,-53 0,-5 -15,-44 -34,-86 -19,-42 -37,-87 -40,-101 -6,-26 -2,-18 57,113 17,37 32,67 34,67 2,0 21,-10 43,-22 l 38,-22 -20,-39 c -10,-21 -18,-43 -16,-49 2,-6 12,8 22,31 12,26 26,41 38,41 10,0 18,-1 18,-3 0,-2 -17,-37 -39,-78 -21,-41 -42,-85 -45,-99 -4,-14 12,12 34,58 23,46 43,82 45,80 2,-2 -1,-23 -6,-48 -5,-25 -9,-104 -9,-177 1,-114 -2,-137 -19,-172 -27,-51 -27,-68 -1,-21 l 20,35 -6,-40 c -4,-22 -12,-43 -18,-47 -7,-5 -7,-8 -1,-8 7,0 8,-36 3,-107 -12,-188 -14,-283 -7,-283 4,0 7,40 8,88 1,49 6,127 11,173 6,46 15,181 21,299 5,118 12,229 14,245 2,17 5,52 6,78 2,42 6,50 36,68 18,12 52,37 76,56 23,20 53,41 67,47 14,6 28,15 31,20 11,14 29,-3 22,-22 -5,-13 -3,-14 7,-5 9,9 28,1 84,-35 100,-64 142,-102 138,-125 -2,-12 1,-17 7,-13 17,11 13,-9 -10,-51 -11,-21 -14,-30 -6,-20 14,17 33,24 24,10 -3,-5 -12,-57 -21,-118 -9,-60 -25,-153 -36,-205 -11,-52 -29,-142 -40,-200 -11,-58 -26,-139 -34,-180 -8,-41 -20,-106 -26,-145 -7,-38 -16,-85 -21,-104 -5,-20 -5,-30 0,-25 9,9 45,187 76,369 8,50 24,128 35,175 31,136 60,293 73,401 10,90 14,103 37,118 30,21 208,121 215,121 2,0 2,-8 -1,-17 -5,-16 -3,-15 10,1 9,11 19,16 23,13 4,-4 1,-13 -5,-19 -7,-7 -12,-19 -12,-28 1,-11 4,-10 12,5 6,11 12,22 14,24 7,8 103,-65 104,-78 0,-8 -14,-36 -31,-63 -16,-28 -28,-52 -26,-54 2,-2 14,15 28,37 40,66 53,80 68,70 10,-6 10,-13 3,-28 -9,-16 -18,-52 -21,-86 -1,-5 -5,-5 -11,-2 -8,5 -71,-104 -70,-122 1,-4 16,21 35,57 19,36 34,61 34,55 1,-23 -22,-91 -37,-109 -10,-11 -11,-16 -4,-12 15,9 16,13 -9,-80 -114,-437 -193,-781 -187,-813 2,-9 9,13 16,49 25,133 76,349 123,525 17,61 37,137 45,170 9,33 20,75 26,94 6,19 18,66 28,105 44,178 46,182 98,199 56,19 170,66 231,96 64,30 81,29 61,-7 -5,-9 -28,-64 -50,-122 -23,-58 -50,-124 -60,-147 -11,-23 -36,-84 -56,-135 -21,-51 -40,-97 -44,-103 -12,-18 -98,-296 -146,-470 -26,-93 -50,-177 -54,-185 -15,-31 -30,-87 -30,-113 0,-17 -5,-27 -15,-27 -8,0 -48,-17 -87,-38 -105,-56 -177,-81 -255,-87 -37,-3 -106,-10 -153,-15 -121,-14 -658,-20 -781,-9 -57,5 -149,12 -204,15 -298,18 -703,102 -688,142 6,15 5,15 -10,3 -28,-23 -28,-8 -1,33 14,21 24,39 22,41 -2,2 -17,-16 -33,-40 -32,-47 -61,-61 -52,-24 5,20 5,20 -15,2 -21,-18 -21,-17 -14,1 6,16 4,17 -9,6 -14,-12 -16,-10 -10,16 6,28 6,28 -9,10 -27,-34 -31,-7 -6,42 34,66 36,74 4,24 -18,-30 -30,-40 -37,-33 -7,7 -6,19 3,38 24,46 24,49 2,23 l -21,-25 v 25 c 0,14 6,36 14,50 8,14 14,30 14,35 0,6 -10,-8 -22,-30 l -22,-40 -3,36 c -2,24 4,49 17,70 12,19 21,39 21,44 -1,6 -10,-8 -22,-29 l -20,-40 -15,27 c -12,25 -11,33 16,95 28,65 54,143 32,97 -6,-11 -23,-51 -39,-89 -17,-39 -32,-63 -36,-57 -7,11 35,123 84,226 10,22 21,49 25,59 6,21 17,15 20,-12 1,-9 6,-25 10,-35 4,-11 -1,-36 -14,-67 -27,-63 -26,-76 2,-25 19,35 22,37 25,18 2,-13 -6,-37 -18,-54 -12,-16 -20,-32 -17,-35 3,-3 13,8 23,25 10,17 22,31 26,31 14,0 9,-34 -8,-58 -9,-13 -14,-25 -11,-28 2,-3 13,10 24,28 16,29 17,38 6,73 -6,22 -17,60 -24,85 -6,25 -15,59 -20,75 -14,54 -27,107 -72,295 -79,326 -97,406 -97,422 0,8 25,26 58,41 31,15 82,43 112,62 64,41 76,42 106,14 z m 2508,-18 c 18,-20 25,-79 11,-102 -7,-11 -80,-45 -117,-54 -14,-4 -41,-19 -59,-34 l -33,-28 -63,46 c -35,25 -77,53 -93,62 -15,9 -25,20 -22,25 4,5 67,29 141,52 74,24 146,49 160,57 28,14 45,9 75,-24 z m -2357,-12 c -17,-45 -45,-31 -33,16 4,17 11,22 25,18 16,-4 17,-8 8,-34 z m -667,21 c 0,-5 -2,-10 -4,-10 -3,0 -8,5 -11,10 -3,6 -1,10 4,10 6,0 11,-4 11,-10 z m 25,-29 c -7,-23 -25,-29 -25,-8 0,14 21,39 28,33 2,-3 1,-14 -3,-25 z m 705,10 c 0,-5 -7,-25 -15,-45 l -16,-37 -18,23 c -24,29 -9,68 26,68 12,0 23,-4 23,-9 z m 70,-7 c 0,-3 -11,-27 -25,-54 -41,-81 -83,-60 -47,23 18,39 23,44 46,40 14,-3 26,-7 26,-9 z m -740,1 c 0,-14 -32,-65 -40,-65 -14,0 -13,8 7,41 15,26 33,38 33,24 z m 10,-46 c -12,-23 -19,-43 -16,-47 3,-3 12,11 21,31 16,38 30,53 39,39 3,-5 -12,-44 -34,-87 -27,-53 -41,-73 -45,-62 -4,8 -2,24 4,36 13,24 14,42 1,21 -8,-13 -10,-12 -15,1 -6,16 43,108 58,109 4,0 -2,-18 -13,-41 z m 788,32 c 17,-10 -11,-43 -50,-59 -33,-14 -33,-13 -11,33 16,34 35,43 61,26 z m -708,-30 c 0,-5 -22,-53 -50,-107 -48,-96 -68,-104 -32,-14 32,84 82,157 82,121 z m 40,-16 c 0,-2 -27,-59 -59,-126 -49,-101 -60,-118 -66,-99 -9,28 88,230 111,230 8,0 14,-2 14,-5 z m 34,-13 c 3,-5 -22,-62 -55,-128 -64,-125 -82,-164 -74,-164 3,0 33,57 68,127 56,110 65,123 70,101 5,-17 -2,-45 -19,-83 -13,-32 -23,-59 -21,-62 3,-2 13,16 23,41 11,25 22,46 27,46 14,0 6,-46 -18,-98 -13,-29 -20,-50 -15,-47 6,4 17,22 25,41 14,33 35,39 35,9 0,-11 -30,-80 -88,-205 -9,-19 -22,-48 -28,-65 -11,-29 -12,-28 -36,55 -50,170 -49,161 -11,242 96,202 103,213 117,190 z m 2311,-36 c -11,-7 -52,-30 -92,-50 l -71,-37 -41,28 c -22,15 -40,31 -41,36 0,4 26,7 58,7 31,1 86,7 122,14 87,18 87,18 65,2 z M 1080,1570 c 0,-12 -9,-39 -20,-60 -11,-22 -18,-40 -15,-40 2,0 11,14 20,30 16,31 35,40 35,18 0,-7 -11,-37 -25,-67 -31,-67 -27,-78 5,-14 21,43 24,45 31,25 6,-16 3,-32 -11,-55 -11,-17 -20,-36 -20,-42 1,-5 8,3 16,18 8,15 19,25 23,22 10,-6 -5,-83 -19,-100 -5,-7 -26,-52 -46,-101 -42,-105 -50,-116 -58,-76 -7,28 0,49 50,146 8,16 12,31 9,34 -2,3 -19,-26 -37,-64 -35,-77 -51,-66 -17,12 31,71 51,130 41,119 -5,-6 -22,-41 -37,-78 -22,-53 -31,-65 -38,-52 -8,15 7,62 57,178 10,22 13,36 8,33 -5,-3 -24,-42 -42,-87 -21,-50 -36,-76 -41,-68 -4,7 -3,19 2,28 4,9 22,50 39,91 52,126 73,170 82,170 4,0 8,-9 8,-20 z m 59,-274 c -12,-30 -80,-179 -101,-223 -11,-23 -28,-31 -28,-14 0,12 84,218 104,256 9,17 16,37 17,45 0,8 5,4 10,-9 7,-17 6,-34 -2,-55 z m -40,-184 c -38,-77 -64,-120 -67,-109 -4,17 42,132 95,237 25,51 28,53 31,27 2,-19 -17,-68 -59,-155 z m 60,42 c -34,-78 -40,-95 -30,-90 4,3 16,26 25,51 18,45 44,65 30,23 -16,-53 -110,-267 -116,-268 -15,0 -8,38 17,94 33,76 31,84 -5,16 -27,-51 -38,-51 -30,0 5,33 114,240 122,232 5,-5 0,-30 -13,-58 z"
       id="path1"
       style="fill:#543b48;fill-opacity:1" />
    <path
       d="m 2950,3460 c -12,-8 -9,-10 11,-10 26,0 59,-27 59,-47 0,-26 -108,-49 -155,-33 -45,15 -47,43 -4,65 39,21 30,32 -12,15 -32,-14 -49,-42 -42,-71 10,-39 121,-46 201,-13 41,17 44,53 6,83 -30,23 -42,25 -64,11 z"
       id="path2"
       style="fill:#543b48;fill-opacity:1" />
    <path
       d="m 2710,3430 c -44,-39 -32,-39 22,0 22,17 35,30 27,30 -8,-1 -30,-14 -49,-30 z"
       id="path3"
       style="fill:#543b48;fill-opacity:1" />
    <path
       d="m 3077,3383 c -16,-15 -5,-53 19,-72 29,-23 42,-25 63,-12 9,6 11,16 6,27 -5,13 -9,15 -12,7 -10,-28 -63,-7 -63,25 0,11 8,13 30,9 23,-5 28,-3 23,8 -5,15 -54,21 -66,8 z"
       id="path4"
       style="fill:#543b48;fill-opacity:1" />
    <path
       d="m 1629,2833 c -14,-16 -43,-53 -66,-83 -22,-30 -54,-68 -70,-85 -42,-43 -87,-105 -76,-105 5,0 44,44 88,97 117,143 197,256 124,176 z"
       id="path5"
       style="fill:#543b48;fill-opacity:1" />
    <path
       d="m 1627,2723 c -35,-54 -77,-120 -94,-146 -26,-42 -31,-46 -43,-32 -27,32 -56,7 -51,-45 3,-30 35,-66 121,-134 109,-87 174,-129 200,-132 14,-1 61,-9 105,-18 178,-35 375,-65 465,-70 52,-4 127,-8 165,-11 227,-15 265,-16 265,-11 0,14 -53,25 -189,42 -103,13 -141,21 -141,31 0,11 -4,11 -20,1 -15,-9 -23,-10 -28,-2 -4,6 -20,10 -37,10 -24,-1 -29,3 -27,19 2,19 2,19 -12,1 -13,-15 -21,-17 -53,-9 -34,8 -38,12 -36,39 l 2,29 -12,-28 c -8,-21 -15,-26 -31,-21 -12,4 -22,10 -24,14 -2,4 -11,6 -21,3 -27,-7 -35,14 -16,43 9,14 14,31 12,37 -2,7 -12,-7 -22,-31 -15,-36 -21,-42 -39,-36 -30,9 -30,8 -6,54 12,23 19,47 17,53 -3,7 -8,3 -12,-8 -28,-81 -42,-96 -75,-75 -12,7 -9,19 19,70 18,34 31,64 28,66 -2,3 -20,-25 -38,-61 -33,-63 -49,-74 -78,-56 -11,7 -4,24 33,86 26,43 44,80 40,84 -4,3 -8,2 -11,-4 -15,-40 -86,-155 -96,-155 -7,0 -19,5 -27,10 -13,8 -11,18 14,67 16,32 40,72 53,90 25,34 28,43 15,43 -5,0 -32,-43 -61,-95 -52,-94 -62,-104 -91,-85 -17,10 -1,46 71,160 25,39 33,57 20,46 -11,-11 -21,-23 -21,-28 0,-5 -20,-40 -45,-78 -25,-38 -45,-74 -45,-81 0,-6 -7,-8 -16,-5 -9,3 -20,6 -25,6 -5,0 -9,4 -9,9 0,9 62,113 113,190 16,24 27,45 24,47 -5,5 -55,-68 -113,-163 -40,-66 -49,-71 -79,-50 -17,13 -17,15 1,48 25,46 80,135 116,188 30,44 33,71 3,29 -27,-39 -105,-161 -128,-200 -11,-21 -23,-38 -26,-38 -3,0 -17,9 -30,19 l -25,19 44,73 c 41,71 91,148 126,197 9,12 14,22 11,22 -8,0 -117,-151 -117,-161 0,-5 -16,-34 -36,-64 -32,-48 -38,-52 -55,-42 -40,25 -42,21 88,217 40,61 68,110 63,110 -5,0 -38,-44 -73,-97 z"
       id="path6"
       style="fill:#543b48;fill-opacity:1" />
    <path
       d="m 3275,2720 c -3,-5 -2,-10 4,-10 5,0 13,5 16,10 3,6 2,10 -4,10 -5,0 -13,-4 -16,-10 z"
       id="path7"
       style="fill:#543b48;fill-opacity:1" />
    <path
       d="m 3207,2684 c -27,-14 -47,-27 -44,-30 4,-5 97,45 97,52 0,6 0,6 -53,-22 z"
       id="path8"
       style="fill:#543b48;fill-opacity:1" />
    <path
       d="m 3265,2669 c -16,-10 -23,-19 -15,-19 8,0 26,9 40,20 32,25 14,25 -25,-1 z"
       id="path9"
       style="fill:#543b48;fill-opacity:1" />
    <path
       d="m 3314,2655 c -10,-8 -14,-15 -8,-15 5,0 19,7 30,15 10,8 14,15 8,15 -5,0 -19,-7 -30,-15 z"
       id="path10"
       style="fill:#543b48;fill-opacity:1" />
    <path
       d="m 2620,2650 c -8,-5 -12,-11 -9,-14 2,-3 11,-1 19,4 8,5 12,11 9,14 -2,3 -11,1 -19,-4 z"
       id="path11"
       style="fill:#543b48;fill-opacity:1" />
    <path
       d="m 3355,2640 c -3,-5 -2,-10 4,-10 5,0 13,5 16,10 3,6 2,10 -4,10 -5,0 -13,-4 -16,-10 z"
       id="path12"
       style="fill:#543b48;fill-opacity:1" />
    <path
       d="m 1187,2403 c -29,-46 -62,-111 -52,-101 10,10 84,138 79,138 -2,0 -14,-17 -27,-37 z"
       id="path13"
       style="fill:#543b48;fill-opacity:1" />
    <path
       d="m 2153,2295 c -9,-25 4,-29 17,-6 7,15 7,21 0,21 -6,0 -13,-7 -17,-15 z"
       id="path14"
       style="fill:#543b48;fill-opacity:1" />
    <path
       d="m 2257,2253 c -4,-3 -7,-11 -7,-17 0,-6 5,-5 12,2 6,6 9,14 7,17 -3,3 -9,2 -12,-2 z"
       id="path15"
       style="fill:#543b48;fill-opacity:1" />
    <path
       d="m 2251,2850 c -36,-33 -63,-62 -60,-64 2,-2 36,24 74,59 39,35 66,64 60,64 -5,0 -39,-27 -74,-59 z"
       id="path16"
       style="fill:#543b48;fill-opacity:1" />
    <path
       d="m 1295,1939 c -4,-6 -5,-12 -2,-15 2,-3 7,2 10,11 7,17 1,20 -8,4 z"
       id="path17"
       style="fill:#543b48;fill-opacity:1" />
    <path
       d="m 1322,1797 c -7,-19 -12,-40 -12,-48 1,-8 8,6 16,29 9,24 14,46 12,48 -2,2 -10,-11 -16,-29 z"
       id="path18"
       style="fill:#543b48;fill-opacity:1" />
    <path
       d="m 2920,1810 c -6,-11 -8,-20 -6,-20 3,0 10,9 16,20 6,11 8,20 6,20 -3,0 -10,-9 -16,-20 z"
       id="path19"
       style="fill:#543b48;fill-opacity:1" />
    <path
       d="m 1957,1798 c -9,-31 -2,-33 11,-3 6,14 8,25 3,25 -5,0 -11,-10 -14,-22 z"
       id="path20"
       style="fill:#543b48;fill-opacity:1" />
    <path
       d="m 2465,1785 c -4,-16 -21,-53 -37,-82 -18,-32 -25,-54 -18,-58 5,-3 10,-1 10,6 0,6 14,39 30,72 17,33 29,67 27,76 -2,10 -7,5 -12,-14 z"
       id="path21"
       style="fill:#543b48;fill-opacity:1" />
    <path
       d="m 1392,1775 c -7,-14 -12,-31 -12,-38 1,-7 7,3 16,22 17,39 13,54 -4,16 z"
       id="path22"
       style="fill:#543b48;fill-opacity:1" />
    <path
       d="m 2952,1774 c -7,-14 -8,-23 -2,-19 15,9 32,45 22,45 -5,0 -14,-12 -20,-26 z"
       id="path23"
       style="fill:#543b48;fill-opacity:1" />
    <path
       d="m 2991,1734 c -12,-26 -20,-48 -18,-50 2,-2 14,17 26,42 13,25 21,47 19,49 -2,3 -14,-16 -27,-41 z"
       id="path24"
       style="fill:#543b48;fill-opacity:1" />
    <path
       d="m 3437,1751 c -24,-42 -21,-52 4,-13 12,18 20,35 17,37 -2,2 -12,-9 -21,-24 z"
       id="path25"
       style="fill:#543b48;fill-opacity:1" />
    <path
       d="m 3467,1725 c -9,-19 -15,-35 -12,-35 7,0 37,61 33,66 -3,2 -12,-12 -21,-31 z"
       id="path26"
       style="fill:#543b48;fill-opacity:1" />
    <path
       d="m 1513,1720 c 0,-19 -2,-44 -5,-55 -3,-11 -3,-14 -1,-7 14,39 35,-20 26,-73 -3,-21 -2,-26 5,-17 7,10 11,5 16,-21 5,-24 -2,-60 -24,-126 -16,-51 -30,-96 -30,-99 1,-18 29,49 40,96 15,66 26,73 34,22 6,-39 -14,-107 -74,-245 -26,-60 -30,-75 -22,-75 4,0 27,55 52,121 25,66 48,123 53,125 18,12 4,-60 -34,-169 -22,-65 -38,-128 -36,-140 3,-18 5,-17 6,6 0,15 8,44 17,65 9,20 25,66 36,102 20,62 21,64 29,36 6,-21 2,-47 -12,-89 -11,-33 -18,-62 -15,-64 3,-3 10,15 17,41 14,57 24,59 28,4 1,-23 4,-44 6,-46 2,-3 -2,-17 -10,-33 -8,-15 -15,-36 -14,-46 0,-12 5,-8 14,12 l 13,30 7,-37 c 6,-34 -12,-109 -35,-143 -9,-12 -30,-99 -29,-117 0,-7 7,10 15,37 8,28 25,75 37,105 l 21,55 9,-49 c 5,-32 4,-53 -3,-60 -5,-5 -10,-15 -10,-21 0,-5 5,-2 11,9 9,15 13,16 20,5 7,-10 8,-6 5,11 -18,93 -28,149 -41,255 -8,66 -19,145 -25,175 -5,30 -19,111 -30,180 -20,117 -41,209 -59,255 -6,15 -8,11 -8,-15 z"
       id="path27"
       style="fill:#543b48;fill-opacity:1" />
    <path
       d="m 2537,1678 c -15,-34 -25,-63 -23,-65 1,-2 15,24 30,58 15,33 26,62 24,65 -3,2 -17,-24 -31,-58 z"
       id="path28"
       style="fill:#543b48;fill-opacity:1" />
    <path
       d="m 3042,1695 c -30,-61 -28,-71 3,-16 14,24 24,48 23,53 -2,5 -13,-11 -26,-37 z"
       id="path29"
       style="fill:#543b48;fill-opacity:1" />
    <path
       d="m 3475,1669 c -9,-17 -15,-33 -13,-35 3,-2 12,12 21,31 21,43 13,47 -8,4 z"
       id="path30"
       style="fill:#543b48;fill-opacity:1" />
    <path
       d="m 2001,1663 c -10,-26 -10,-27 4,-9 8,11 15,23 15,28 0,15 -7,8 -19,-19 z"
       id="path31"
       style="fill:#543b48;fill-opacity:1" />
    <path
       d="m 3096,1673 c -6,-14 -5,-15 5,-6 7,7 10,15 7,18 -3,3 -9,-2 -12,-12 z"
       id="path32"
       style="fill:#543b48;fill-opacity:1" />
    <path
       d="m 3546,1653 c -6,-14 -5,-15 5,-6 7,7 10,15 7,18 -3,3 -9,-2 -12,-12 z"
       id="path33"
       style="fill:#543b48;fill-opacity:1" />
    <path
       d="m 1451,1644 c 0,-11 3,-14 6,-6 3,7 2,16 -1,19 -3,4 -6,-2 -5,-13 z"
       id="path34"
       style="fill:#543b48;fill-opacity:1" />
    <path
       d="m 2105,1639 c -4,-6 -5,-12 -2,-15 2,-3 7,2 10,11 7,17 1,20 -8,4 z"
       id="path35"
       style="fill:#543b48;fill-opacity:1" />
    <path
       d="m 3061,1607 c -13,-21 -12,-21 5,-5 10,10 16,20 13,22 -3,3 -11,-5 -18,-17 z"
       id="path36"
       style="fill:#543b48;fill-opacity:1" />
    <path
       d="m 1431,1583 c -7,-23 -11,-47 -8,-54 3,-8 6,-4 6,9 1,13 6,32 12,43 6,11 9,25 7,31 -2,6 -10,-7 -17,-29 z"
       id="path37"
       style="fill:#543b48;fill-opacity:1" />
    <path
       d="m 2552,1575 c -12,-25 -20,-45 -17,-45 7,0 47,81 43,86 -3,2 -14,-17 -26,-41 z"
       id="path38"
       style="fill:#543b48;fill-opacity:1" />
    <path
       d="m 3510,1589 c -6,-11 -10,-25 -8,-30 2,-5 8,4 15,21 13,34 9,40 -7,9 z"
       id="path39"
       style="fill:#543b48;fill-opacity:1" />
    <path
       d="m 2495,1589 c -4,-6 -5,-12 -2,-15 2,-3 7,2 10,11 7,17 1,20 -8,4 z"
       id="path40"
       style="fill:#543b48;fill-opacity:1" />
    <path
       d="m 1915,1579 c -4,-6 -5,-12 -2,-15 2,-3 7,2 10,11 7,17 1,20 -8,4 z"
       id="path41"
       style="fill:#543b48;fill-opacity:1" />
    <path
       d="m 3036,1563 c -6,-14 -5,-15 5,-6 7,7 10,15 7,18 -3,3 -9,-2 -12,-12 z"
       id="path42"
       style="fill:#543b48;fill-opacity:1" />
    <path
       d="m 1461,1529 c -7,-22 -10,-43 -7,-46 2,-3 10,14 16,37 15,55 7,63 -9,9 z"
       id="path43"
       style="fill:#543b48;fill-opacity:1" />
    <path
       d="m 2106,1533 c -6,-14 -5,-15 5,-6 7,7 10,15 7,18 -3,3 -9,-2 -12,-12 z"
       id="path44"
       style="fill:#543b48;fill-opacity:1" />
    <path
       d="m 3076,1535 c -9,-26 -7,-32 5,-12 6,10 9,21 6,23 -2,3 -7,-2 -11,-11 z"
       id="path45"
       style="fill:#543b48;fill-opacity:1" />
    <path
       d="m 2612,1515 c -17,-37 -14,-45 4,-12 9,16 14,31 11,33 -2,2 -9,-7 -15,-21 z"
       id="path46"
       style="fill:#543b48;fill-opacity:1" />
    <path
       d="m 1936,1515 c -9,-26 -7,-32 5,-12 6,10 9,21 6,23 -2,3 -7,-2 -11,-11 z"
       id="path47"
       style="fill:#543b48;fill-opacity:1" />
    <path
       d="m 1491,1453 c -12,-38 -26,-83 -32,-101 -6,-19 -8,-36 -6,-39 3,-3 13,21 22,53 9,33 23,79 31,103 8,24 13,45 11,48 -2,2 -14,-27 -26,-64 z"
       id="path48"
       style="fill:#543b48;fill-opacity:1" />
    <path
       d="m 2521,1513 c -1,-6 -4,-20 -7,-30 -5,-17 -5,-17 6,0 6,10 9,23 6,30 -3,9 -5,9 -5,0 z"
       id="path49"
       style="fill:#543b48;fill-opacity:1" />
    <path
       d="m 1406,1485 c -9,-26 -7,-32 5,-12 6,10 9,21 6,23 -2,3 -7,-2 -11,-11 z"
       id="path50"
       style="fill:#543b48;fill-opacity:1" />
    <path
       d="m 3081,1444 c -17,-32 -31,-62 -30,-68 0,-6 3,-4 7,4 4,8 20,37 36,63 16,26 26,50 23,53 -3,3 -19,-21 -36,-52 z"
       id="path51"
       style="fill:#543b48;fill-opacity:1" />
    <path
       d="m 2585,1459 c -4,-6 -5,-12 -2,-15 2,-3 7,2 10,11 7,17 1,20 -8,4 z"
       id="path52"
       style="fill:#543b48;fill-opacity:1" />
    <path
       d="m 2090,1420 c -12,-16 -19,-30 -16,-30 2,0 14,14 26,30 12,17 19,30 16,30 -2,0 -14,-13 -26,-30 z"
       id="path53"
       style="fill:#543b48;fill-opacity:1" />
    <path
       d="m 1426,1414 c -4,-14 -5,-28 -3,-31 3,-2 8,8 11,23 4,14 5,28 3,31 -3,2 -8,-8 -11,-23 z"
       id="path54"
       style="fill:#543b48;fill-opacity:1" />
    <path
       d="m 2593,1398 c -11,-24 -23,-54 -27,-68 -4,-14 7,4 24,39 17,35 28,66 26,68 -2,2 -12,-16 -23,-39 z"
       id="path55"
       style="fill:#543b48;fill-opacity:1" />
    <path
       d="m 1982,1397 c -17,-47 -14,-59 4,-18 8,19 13,39 12,43 -2,5 -9,-6 -16,-25 z"
       id="path56"
       style="fill:#543b48;fill-opacity:1" />
    <path
       d="m 3080,1370 c -6,-11 -7,-20 -2,-20 6,0 12,9 15,20 3,11 3,20 1,20 -2,0 -8,-9 -14,-20 z"
       id="path57"
       style="fill:#543b48;fill-opacity:1" />
    <path
       d="m 2096,1348 -18,-33 21,25 c 18,22 26,40 18,40 -1,0 -11,-15 -21,-32 z"
       id="path58"
       style="fill:#543b48;fill-opacity:1" />
    <path
       d="m 2596,1303 c -6,-14 -5,-15 5,-6 7,7 10,15 7,18 -3,3 -9,-2 -12,-12 z"
       id="path59"
       style="fill:#543b48;fill-opacity:1" />
    <path
       d="m 1482,1273 c -6,-20 -10,-39 -8,-41 2,-2 9,13 16,33 7,20 10,38 8,41 -3,2 -10,-13 -16,-33 z"
       id="path60"
       style="fill:#543b48;fill-opacity:1" />
    <path
       d="m 1441,1284 c 0,-11 3,-14 6,-6 3,7 2,16 -1,19 -3,4 -6,-2 -5,-13 z"
       id="path61"
       style="fill:#543b48;fill-opacity:1" />
    <path
       d="m 2090,1251 c -11,-23 -19,-41 -16,-41 7,0 47,72 42,77 -2,3 -14,-13 -26,-36 z"
       id="path62"
       style="fill:#543b48;fill-opacity:1" />
    <path
       d="m 1456,1193 c -6,-14 -5,-15 5,-6 7,7 10,15 7,18 -3,3 -9,-2 -12,-12 z"
       id="path63"
       style="fill:#543b48;fill-opacity:1" />
    <path
       d="m 2046,1175 c -9,-26 -7,-32 5,-12 6,10 9,21 6,23 -2,3 -7,-2 -11,-11 z"
       id="path64"
       style="fill:#543b48;fill-opacity:1" />
    <path
       d="m 2090,1169 c -7,-11 -10,-23 -7,-25 2,-2 9,7 15,21 14,30 7,33 -8,4 z"
       id="path65"
       style="fill:#543b48;fill-opacity:1" />
    <path
       d="m 2087,1078 c -10,-17 -16,-33 -13,-35 2,-3 12,9 21,27 21,41 15,48 -8,8 z"
       id="path66"
       style="fill:#543b48;fill-opacity:1" />
    <path
       d="m 1177,1031 c -24,-42 -21,-52 4,-13 12,18 20,35 17,37 -2,2 -12,-9 -21,-24 z"
       id="path67"
       style="fill:#543b48;fill-opacity:1" />
    <path
       d="m 1540,1010 c -7,-28 -10,-53 -8,-55 3,-3 10,18 16,47 7,28 11,53 8,55 -2,2 -9,-19 -16,-47 z"
       id="path68"
       style="fill:#543b48;fill-opacity:1" />
    <path
       d="m 2097,1023 c -4,-3 -7,-11 -7,-17 0,-6 5,-5 12,2 6,6 9,14 7,17 -3,3 -9,2 -12,-2 z"
       id="path69"
       style="fill:#543b48;fill-opacity:1" />
    <path
       d="m 1576,959 c -8,-29 -13,-55 -11,-57 2,-2 11,20 19,49 9,29 14,54 12,56 -2,3 -11,-19 -20,-48 z"
       id="path70"
       style="fill:#543b48;fill-opacity:1" />
    <path
       d="m 2111,964 c 0,-11 3,-14 6,-6 3,7 2,16 -1,19 -3,4 -6,-2 -5,-13 z"
       id="path71"
       style="fill:#543b48;fill-opacity:1" />
    <path
       d="m 1160,899 c -6,-11 -10,-25 -8,-30 2,-5 8,4 15,21 13,34 9,40 -7,9 z"
       id="path72"
       style="fill:#543b48;fill-opacity:1" />
    <path
       d="m 1546,875 c -3,-9 -6,-24 -5,-33 0,-9 5,-4 10,12 9,32 6,48 -5,21 z"
       id="path73"
       style="fill:#543b48;fill-opacity:1" />
    <path
       d="m 1175,869 c -4,-6 -5,-12 -2,-15 2,-3 7,2 10,11 7,17 1,20 -8,4 z"
       id="path74"
       style="fill:#543b48;fill-opacity:1" />
    <path
       d="m 1263,868 c 3,-10 2,-20 -2,-23 -5,-3 -14,-19 -20,-36 -9,-27 -9,-30 4,-19 8,7 15,19 15,26 0,8 5,14 10,14 6,0 10,-6 9,-12 -1,-7 1,-29 5,-49 8,-38 -10,-87 -56,-152 -11,-16 -18,-30 -16,-33 3,-2 22,24 43,58 21,35 43,66 47,69 5,3 6,19 3,35 -16,78 -29,120 -38,129 -7,7 -8,4 -4,-7 z"
       id="path75"
       style="fill:#543b48;fill-opacity:1" />
    <path
       d="m 1127,821 c -4,-17 -3,-21 5,-13 5,5 8,16 6,23 -3,8 -7,3 -11,-10 z"
       id="path76"
       style="fill:#543b48;fill-opacity:1" />
    <path
       d="m 1620,800 c -7,-17 -10,-33 -8,-36 3,-3 11,9 17,27 14,42 7,49 -9,9 z"
       id="path77"
       style="fill:#543b48;fill-opacity:1" />
    <path
       d="m 2601,774 c 0,-11 3,-14 6,-6 3,7 2,16 -1,19 -3,4 -6,-2 -5,-13 z"
       id="path78"
       style="fill:#543b48;fill-opacity:1" />
    <path
       d="m 1176,763 c -6,-14 -5,-15 5,-6 7,7 10,15 7,18 -3,3 -9,-2 -12,-12 z"
       id="path79"
       style="fill:#543b48;fill-opacity:1" />
    <path
       d="m 1200,729 c -12,-23 -20,-43 -18,-45 3,-2 14,17 26,41 27,56 20,60 -8,4 z"
       id="path80"
       style="fill:#543b48;fill-opacity:1" />
    <path
       d="m 1260,748 c -12,-22 -12,-22 6,-6 10,10 15,20 12,24 -4,3 -12,-5 -18,-18 z"
       id="path81"
       style="fill:#543b48;fill-opacity:1" />
    <path
       d="m 1596,733 c -6,-14 -5,-15 5,-6 7,7 10,15 7,18 -3,3 -9,-2 -12,-12 z"
       id="path82"
       style="fill:#543b48;fill-opacity:1" />
    <path
       d="m 1634,715 c -3,-8 -4,-20 -2,-27 3,-7 7,-1 10,15 6,29 1,36 -8,12 z"
       id="path83"
       style="fill:#543b48;fill-opacity:1" />
    <path
       d="m 1231,693 c -10,-26 -10,-27 4,-9 8,11 15,23 15,28 0,15 -7,8 -19,-19 z"
       id="path84"
       style="fill:#543b48;fill-opacity:1" />
    <path
       d="m 2596,685 c -3,-9 -6,-26 -5,-38 1,-14 4,-9 9,13 9,37 7,52 -4,25 z"
       id="path85"
       style="fill:#543b48;fill-opacity:1" />
    <path
       d="m 1298,658 c -19,-16 -68,-89 -68,-103 0,-5 10,6 21,25 12,19 33,47 47,63 27,28 27,36 0,15 z"
       id="path86"
       style="fill:#543b48;fill-opacity:1" />
    <path
       d="m 1712,620 c 0,-19 2,-27 5,-17 2,9 2,25 0,35 -3,9 -5,1 -5,-18 z"
       id="path87"
       style="fill:#543b48;fill-opacity:1" />
    <path
       d="m 1290,598 c -29,-44 -32,-53 -6,-23 22,26 32,45 23,45 -1,0 -9,-10 -17,-22 z"
       id="path88"
       style="fill:#543b48;fill-opacity:1" />
    <path
       d="m 3301,483 c -1,-6 -4,-20 -7,-30 -5,-17 -5,-17 6,0 6,10 9,23 6,30 -3,9 -5,9 -5,0 z"
       id="path89"
       style="fill:#543b48;fill-opacity:1" />
    <path
       d="m 961,1581 c -24,-44 -50,-121 -41,-121 6,0 10,6 10,13 0,6 11,38 24,70 23,56 27,76 7,38 z"
       id="path90"
       style="fill:#543b48;fill-opacity:1" />
    <path
       d="m 965,1492 c -42,-109 -42,-123 0,-24 20,46 35,88 33,92 -2,5 -16,-26 -33,-68 z"
       id="path91"
       style="fill:#543b48;fill-opacity:1" />
    <path
       d="m 1066,1333 c -6,-14 -5,-15 5,-6 7,7 10,15 7,18 -3,3 -9,-2 -12,-12 z"
       id="path92"
       style="fill:#543b48;fill-opacity:1" />
  </g>
</svg>
