<?xml version="1.0" encoding="UTF-8" standalone="no"?>
<svg
   version="1.0"
   width="791.54718pt"
   height="609.61859pt"
   viewBox="0 0 791.54718 609.61859"
   preserveAspectRatio="xMidYMid"
   id="svg92"
   sodipodi:docname="cupcake.svg"
   xml:space="preserve"
   xmlns:inkscape="http://www.inkscape.org/namespaces/inkscape"
   xmlns:sodipodi="http://sodipodi.sourceforge.net/DTD/sodipodi-0.dtd"
   xmlns="http://www.w3.org/2000/svg"
   xmlns:svg="http://www.w3.org/2000/svg"><defs
     id="defs92" /><sodipodi:namedview
     id="namedview92"
     pagecolor="#ffffff"
     bordercolor="#000000"
     borderopacity="0.25"
     inkscape:showpageshadow="2"
     inkscape:pageopacity="0.0"
     inkscape:pagecheckerboard="0"
     inkscape:deskcolor="#d1d1d1"
     inkscape:document-units="pt" /><g
     transform="matrix(0.1,0,0,-0.1,-104.26213,801.8129)"
     fill="#000000"
     stroke="none"
     id="g59"
     style="fill:#543b48;fill-opacity:1"><path
       d="m 4881,8009 c -228,-16 -525,-62 -896,-138 -82,-17 -175,-36 -205,-42 -233,-47 -771,-259 -995,-391 -61,-36 -180,-102 -265,-148 -85,-45 -175,-96 -200,-113 -365,-249 -882,-872 -1124,-1355 -24,-48 -64,-139 -90,-203 l -46,-116 v -186 c 0,-102 -5,-232 -11,-287 -6,-56 -8,-112 -5,-125 3,-13 29,-50 56,-81 l 50,-57 v -161 c 0,-219 19,-556 36,-640 8,-38 14,-81 14,-95 0,-15 18,-65 41,-112 22,-46 63,-140 91,-209 128,-321 195,-428 321,-518 64,-45 94,-75 135,-135 61,-88 72,-95 230,-148 138,-45 181,-73 229,-145 20,-30 49,-62 65,-70 15,-8 137,-41 270,-74 157,-38 269,-71 318,-93 96,-45 222,-85 430,-138 91,-23 228,-62 305,-86 312,-101 511,-140 770,-152 151,-7 178,-11 240,-35 128,-50 255,-46 614,19 117,21 257,39 355,45 338,22 625,70 946,160 58,16 150,36 205,45 138,21 317,74 528,156 97,38 183,69 190,69 6,0 22,16 34,34 13,21 51,52 95,77 117,68 225,150 343,260 61,57 164,151 228,208 108,96 177,177 177,207 0,6 21,40 47,75 26,35 75,114 109,174 34,61 87,153 118,205 110,184 184,365 196,475 5,44 15,112 24,150 9,39 16,95 16,125 0,30 5,82 11,115 6,33 14,164 18,290 7,206 11,236 31,290 22,54 24,79 27,265 5,260 -6,361 -57,508 -45,129 -74,272 -90,442 -17,174 -32,222 -96,307 -30,40 -58,73 -63,73 -5,0 -17,13 -28,29 -10,16 -74,88 -143,161 -104,109 -146,146 -251,215 -279,185 -475,287 -839,435 -124,50 -290,122 -370,160 -296,139 -477,190 -730,205 -58,3 -152,13 -210,21 -57,8 -203,21 -325,29 -121,8 -285,19 -365,25 -166,11 -344,11 -509,-1 z m 629,-63 c 0,-9 -30,-14 -35,-6 -4,6 3,10 14,10 12,0 21,-2 21,-4 z m 115,-42 c 119,-4 207,-12 260,-24 152,-35 493,-79 513,-66 5,3 117,-16 248,-43 205,-41 254,-54 339,-93 55,-25 114,-48 130,-52 88,-21 428,-164 640,-269 254,-125 336,-180 475,-312 69,-66 152,-142 185,-167 201,-157 340,-467 376,-838 6,-63 26,-208 45,-322 37,-226 41,-319 20,-448 -17,-101 -26,-126 -60,-167 -44,-52 -94,-149 -193,-373 -128,-290 -173,-372 -247,-445 -67,-66 -177,-135 -216,-135 -14,0 -44,-14 -68,-30 -24,-16 -73,-39 -110,-51 -61,-20 -75,-30 -155,-113 -107,-111 -167,-200 -256,-376 -106,-209 -178,-325 -211,-335 -12,-4 -43,-4 -69,0 -52,7 -184,-14 -288,-46 -48,-15 -68,-17 -83,-9 -31,16 -55,-2 -91,-70 -35,-66 -140,-179 -239,-256 -139,-108 -244,-174 -294,-183 -26,-5 -62,-19 -78,-31 -30,-22 -30,-22 -72,-4 -60,27 -232,202 -291,298 -27,44 -66,121 -87,173 -44,111 -48,116 -129,200 -66,68 -110,96 -169,107 -22,4 -45,18 -62,39 l -27,32 -34,-37 c -25,-27 -43,-38 -64,-38 -43,0 -117,-41 -210,-115 -130,-104 -220,-221 -249,-325 -9,-30 -44,-108 -78,-174 -72,-139 -143,-218 -243,-268 -35,-17 -69,-38 -75,-45 -7,-9 -36,-13 -87,-13 -66,0 -83,4 -127,29 -58,34 -88,70 -146,178 -23,43 -62,105 -86,138 -48,66 -110,189 -137,275 -31,95 -97,140 -205,140 -56,0 -164,-57 -262,-137 -51,-41 -86,-61 -143,-79 -89,-28 -103,-29 -126,-8 -16,15 -21,14 -58,-16 -58,-47 -121,-52 -204,-15 -83,37 -123,68 -158,124 -48,74 -105,268 -123,416 -23,183 -39,231 -91,281 -31,30 -57,45 -95,54 -72,17 -174,8 -230,-20 -38,-19 -70,-24 -207,-33 l -163,-10 -95,49 c -190,97 -205,126 -208,389 l -2,170 -36,75 c -20,41 -60,107 -89,145 -28,39 -61,87 -71,108 -11,21 -35,55 -54,76 -78,86 -100,191 -92,430 10,290 40,380 229,693 175,292 310,495 379,574 30,34 99,114 154,179 55,65 133,149 174,187 100,94 321,254 399,290 35,16 86,47 113,68 27,22 122,76 210,120 88,45 181,94 207,109 151,88 644,253 907,305 406,78 1199,161 1455,150 58,-2 186,-7 285,-10 z M 8810,4577 c 0,-43 -22,-89 -36,-75 -10,10 15,118 27,118 5,0 9,-19 9,-43 z m -110,12 c 0,-11 -4,-17 -10,-14 -5,3 -10,13 -10,21 0,8 5,14 10,14 6,0 10,-9 10,-21 z m -4,-125 c 50,-33 64,-52 64,-85 0,-47 -19,-43 -75,18 -53,56 -62,72 -48,86 10,11 18,9 59,-19 z m -76,-196 c 34,-46 38,-75 13,-85 -20,-8 -49,26 -62,74 -18,66 6,71 49,11 z m 110,16 c 0,-8 -4,-12 -10,-9 -5,3 -10,10 -10,16 0,5 5,9 10,9 6,0 10,-7 10,-16 z M 1249,4153 c 0,-23 -3,-45 -9,-48 -6,-4 -10,22 -9,72 1,57 3,70 9,48 4,-16 8,-49 9,-72 z m 7271,67 c 0,-21 -15,-27 -25,-10 -7,12 2,30 16,30 5,0 9,-9 9,-20 z m -75,-65 c 6,-13 17,-19 29,-17 22,5 46,-22 46,-50 0,-27 -26,-22 -48,9 -24,33 -32,28 -39,-27 -7,-54 -24,-47 -46,19 -17,51 -17,55 0,73 20,23 44,20 58,-7 z m -167,-111 c 6,-58 -46,-71 -70,-18 -11,23 -10,28 7,40 32,24 60,14 63,-22 z m 386,-26 c 17,-50 -38,-135 -73,-114 -5,4 -17,27 -27,51 -14,37 -15,51 -5,71 10,22 16,25 53,22 36,-3 44,-7 52,-30 z m -7260,-30 c 20,-76 26,-123 15,-139 -17,-26 -36,17 -44,96 -6,66 -3,95 10,95 3,0 11,-24 19,-52 z m -64,22 c 0,-11 -4,-20 -10,-20 -5,0 -10,9 -10,20 0,11 5,20 10,20 6,0 10,-9 10,-20 z m 6797,4 c 9,-25 -13,-40 -26,-16 -10,19 -6,32 11,32 5,0 11,-7 15,-16 z m 223,-49 c 7,-8 20,-15 30,-15 27,0 43,-26 43,-70 0,-49 -8,-58 -33,-42 -52,32 -52,3 0,-48 78,-77 57,-163 -25,-98 -40,32 -56,81 -63,190 -5,93 -4,98 15,98 11,0 26,-7 33,-15 z m 145,-4 c 3,-5 1,-12 -5,-16 -5,-3 -10,1 -10,9 0,18 6,21 15,7 z m -248,-30 c 25,-16 33,-29 38,-64 10,-62 3,-91 -22,-102 -30,-13 -29,-21 3,-42 14,-9 37,-41 51,-70 14,-29 32,-53 40,-53 11,0 11,4 2,21 -7,14 -8,24 -1,31 13,13 96,-33 105,-56 11,-28 -59,-166 -84,-166 -4,0 -39,25 -78,56 -82,63 -106,104 -119,195 l -10,64 -1,-52 c -1,-55 -8,-61 -41,-41 -38,24 -32,-2 13,-52 25,-28 49,-64 52,-81 6,-26 9,-28 18,-15 10,14 22,8 85,-40 39,-31 72,-64 72,-73 -1,-9 -10,-27 -21,-41 -19,-22 -22,-23 -30,-7 -6,9 -18,17 -28,17 -10,0 -33,11 -52,25 -19,14 -61,43 -94,65 -114,75 -114,75 -125,170 -13,110 -13,246 0,270 5,10 24,25 41,34 30,15 32,15 58,-12 17,-17 30,-43 34,-70 11,-64 26,-50 20,18 -8,87 13,108 74,71 z m -381,-67 c 8,-31 -12,-57 -26,-34 -5,8 -10,25 -10,38 0,31 28,28 36,-4 z m 69,-28 c 55,-19 65,-43 65,-166 0,-58 5,-132 10,-165 27,-156 40,-231 40,-237 0,-14 -27,-9 -40,7 -7,8 -16,15 -21,15 -21,0 -5,-31 40,-77 44,-45 64,-57 126,-78 18,-6 17,-9 -18,-42 -32,-29 -44,-34 -69,-29 -25,5 -28,4 -19,-8 9,-11 8,-18 -4,-30 -15,-14 -20,-14 -52,-1 -46,19 -61,32 -79,66 -18,36 -18,38 6,47 19,7 19,9 -11,45 -32,39 -48,82 -50,132 l -1,30 -8,-28 c -5,-16 -17,-35 -27,-42 -17,-13 -17,-15 8,-42 34,-36 49,-66 49,-97 0,-43 -25,-31 -110,52 l -80,77 v 72 c 0,65 2,73 23,84 35,18 67,51 67,69 0,9 -11,27 -25,40 -34,32 -70,142 -55,169 6,12 14,21 19,21 4,0 30,-27 56,-60 39,-49 51,-58 62,-48 11,9 13,24 8,55 -6,39 -4,44 19,55 24,10 26,17 26,70 0,32 1,58 3,58 1,0 20,-6 42,-14 z m 580,-20 c 27,-12 35,-21 35,-40 0,-36 -35,-44 -66,-15 -24,22 -33,69 -14,69 6,0 26,-7 45,-14 z m -715,-57 c 0,-24 -18,-33 -35,-19 -18,15 -19,42 -3,58 10,10 15,9 25,-5 7,-9 13,-25 13,-34 z m -6258,-6 c 25,-29 48,-80 48,-108 0,-29 -23,-43 -45,-25 -22,19 -48,96 -41,125 8,29 17,31 38,8 z m 780,-36 c 15,-28 28,-63 29,-77 5,-89 -16,-93 -65,-11 -37,61 -43,89 -26,122 17,31 33,22 62,-34 z m -952,-27 c 0,-31 -17,-32 -39,-1 -22,30 -26,52 -14,65 11,10 53,-41 53,-64 z m 825,44 c 18,-18 17,-55 -2,-61 -16,-6 -47,43 -39,62 7,19 21,19 41,-1 z m -97,-15 c -2,-6 -8,-10 -13,-10 -5,0 -11,4 -13,10 -2,6 4,11 13,11 9,0 15,-5 13,-11 z m -33,-62 c 19,-35 35,-71 35,-80 0,-35 -24,-26 -72,27 -52,59 -67,66 -88,41 -16,-19 -36,-4 -27,19 7,17 74,55 99,56 11,0 30,-23 53,-63 z m 6440,14 c -3,-12 -11,-21 -16,-21 -10,0 -12,43 -2,54 12,12 25,-11 18,-33 z m -6761,5 c 69,-15 90,-29 81,-54 -3,-8 -5,-25 -5,-38 0,-34 -14,-30 -92,22 -63,42 -78,61 -61,77 8,8 -4,10 77,-7 z m 439,-81 c 28,-43 29,-65 3,-65 -14,0 -56,70 -56,94 0,30 25,16 53,-29 z m -719,-8 c 32,-54 46,-112 25,-105 -21,7 -79,97 -79,124 0,38 27,28 54,-19 z m 881,-82 c 3,-11 14,-103 25,-204 11,-102 23,-187 27,-190 3,-3 3,14 -1,39 -3,25 -9,96 -12,158 -6,99 -5,114 11,132 17,18 17,21 0,55 -16,35 -15,65 2,65 4,0 28,-23 52,-51 40,-46 47,-63 77,-181 26,-103 30,-135 22,-154 -8,-18 -6,-50 11,-136 13,-62 27,-120 33,-128 7,-11 8,-7 4,15 -14,87 -18,155 -9,155 12,0 106,-98 120,-125 6,-11 16,-55 23,-97 10,-62 10,-81 0,-93 -11,-13 -15,-13 -41,0 -15,8 -35,15 -44,15 -9,0 -20,10 -25,23 -8,17 -9,12 -8,-28 2,-38 -1,-51 -13,-53 -10,-2 -58,41 -117,103 -55,58 -103,105 -106,105 -16,0 -1,-31 39,-80 49,-60 52,-67 32,-94 -25,-34 -77,7 -77,59 0,10 -10,15 -28,15 -23,0 -48,21 -128,103 -55,56 -110,117 -123,135 -12,17 -27,32 -32,32 -18,0 -8,-37 17,-61 37,-34 53,-70 47,-103 -12,-60 -65,-32 -79,42 -6,29 -10,33 -29,28 -18,-5 -31,4 -67,47 -25,28 -53,66 -63,82 -10,17 -33,46 -50,65 -50,54 -105,142 -105,168 0,12 -13,46 -30,75 -40,72 -40,150 0,102 7,-8 30,-18 52,-21 64,-11 77,-28 92,-129 14,-87 14,-88 15,-33 1,31 6,60 11,63 31,19 78,-33 82,-92 1,-15 4,13 7,62 4,52 10,89 16,88 6,-1 19,-5 29,-9 17,-6 15,-1 -9,43 -26,46 -29,83 -7,83 17,0 105,-111 118,-148 7,-20 14,-57 15,-82 1,-25 3,-36 6,-25 2,11 6,30 9,43 6,29 23,28 62,-5 36,-30 46,-59 62,-183 6,-40 14,-78 19,-83 7,-7 -4,80 -24,190 -4,25 -1,36 14,50 21,17 21,17 1,51 -24,40 -25,50 -4,73 14,16 14,21 -6,59 -12,23 -19,49 -15,58 4,12 15,6 51,-29 25,-24 47,-53 49,-64 z m 124,79 c 11,-14 17,-32 14,-40 -5,-13 -9,-11 -28,6 -28,26 -39,60 -20,60 8,0 23,-12 34,-26 z m -565,-3 c 22,-24 33,-115 16,-126 -23,-14 -70,49 -70,93 0,56 21,69 54,33 z m -329,-32 c 14,-17 24,-36 22,-42 -7,-23 -27,-17 -47,15 -37,61 -20,80 25,27 z m 635,-121 c 0,-10 -4,-18 -9,-18 -16,0 -61,61 -61,83 0,19 3,18 35,-13 19,-19 35,-42 35,-52 z m -765,43 c 3,-5 1,-12 -5,-16 -5,-3 -10,1 -10,9 0,18 6,21 15,7 z m 6210,-11 c 3,-5 2,-10 -4,-10 -5,0 -13,5 -16,10 -3,6 -2,10 4,10 5,0 13,-4 16,-10 z m 500,-53 c 52,-39 71,-60 79,-87 9,-34 9,-34 16,-10 5,21 12,24 36,22 16,-2 32,-7 37,-11 9,-9 -41,-85 -97,-146 l -44,-47 -38,25 c -22,13 -40,33 -42,43 -2,10 -14,46 -27,79 -25,64 -41,157 -30,175 12,20 41,9 110,-43 z m -6546,-3 c 25,-32 41,-86 34,-114 -7,-28 -14,-25 -44,18 -55,78 -45,166 10,96 z m 6021,-23 c 36,-52 49,-97 56,-195 l 7,-96 h -32 c -17,0 -31,-3 -31,-6 0,-4 18,-27 41,-51 34,-37 40,-49 37,-81 -3,-33 -6,-37 -28,-34 -47,5 -66,39 -84,149 -25,157 -21,193 19,193 39,0 39,18 1,60 -34,38 -45,68 -29,83 12,12 21,7 43,-22 z m -5933,-11 c 3,-17 10,-33 14,-36 5,-3 9,-21 9,-40 0,-28 9,-44 53,-87 97,-95 127,-139 127,-186 0,-22 -4,-41 -9,-41 -26,0 -72,56 -92,111 -25,67 -39,83 -39,43 0,-27 0,-27 -21,-8 -43,39 -62,92 -55,156 5,45 3,63 -8,80 -20,28 -20,38 -1,38 9,0 18,-12 22,-30 z m 3758,-2 c 28,-7 57,-28 102,-75 52,-53 77,-92 134,-207 38,-77 101,-185 139,-238 39,-53 70,-101 70,-105 0,-5 12,-16 28,-25 15,-9 64,-50 109,-91 45,-42 92,-78 105,-82 39,-12 58,-36 58,-74 0,-50 81,-233 96,-218 2,2 -7,32 -21,67 -38,98 -35,99 59,29 53,-40 76,-75 62,-98 -4,-5 -31,-24 -62,-42 -47,-27 -62,-31 -99,-26 -31,5 -46,2 -55,-8 -17,-21 -37,-19 -50,4 -15,30 -12,41 11,41 21,0 21,1 -4,20 -34,27 -54,84 -72,204 -8,54 -17,101 -20,104 -10,10 -5,-121 7,-159 8,-28 8,-46 1,-62 -8,-18 -6,-29 13,-57 15,-21 20,-38 15,-43 -25,-25 -111,31 -129,83 -9,24 -8,33 5,46 16,15 15,20 -9,63 -29,50 -46,129 -50,233 -2,40 -7,67 -13,65 -19,-7 -16,-78 9,-190 27,-119 34,-217 16,-217 -6,0 -35,15 -64,34 -67,43 -82,79 -101,237 l -14,114 6,-105 c 4,-58 7,-130 8,-160 0,-30 6,-65 13,-77 6,-12 12,-34 12,-50 0,-37 16,-94 34,-118 23,-32 27,-12 6,30 -20,40 -27,100 -12,109 11,6 102,-46 125,-72 24,-26 33,-87 17,-107 -9,-11 -34,-15 -95,-15 -69,0 -87,4 -116,23 -42,28 -79,81 -80,116 -1,25 -2,25 -8,-3 -9,-41 -22,-42 -72,-1 -24,19 -58,42 -76,50 -17,8 -34,23 -37,32 -8,27 -24,130 -32,203 -7,74 -22,124 -23,80 -1,-22 38,-294 55,-387 6,-29 4,-33 -16,-33 -12,0 -37,15 -55,33 -25,25 -34,45 -41,87 l -8,55 -6,-40 c -5,-41 -10,-44 -57,-29 -17,4 -23,2 -23,-9 0,-13 111,-93 225,-159 58,-35 51,-52 -21,-46 -60,5 -81,17 -227,139 -60,49 -104,93 -112,112 -7,18 -16,100 -20,187 -4,85 -11,173 -15,195 -5,25 -7,-12 -4,-95 7,-190 22,-364 34,-395 15,-39 12,-55 -10,-55 -31,0 -97,70 -104,110 -3,19 -12,82 -20,140 -14,99 -14,81 0,-72 8,-76 7,-76 -58,-57 -24,6 -38,16 -38,26 0,9 -3,14 -6,10 -15,-14 12,-50 61,-82 43,-27 56,-42 64,-72 17,-60 14,-113 -6,-113 -23,0 -80,46 -88,70 -4,13 -15,20 -31,20 -38,0 -144,107 -144,145 0,17 -7,49 -15,72 -10,30 -12,50 -5,68 11,30 17,31 50,5 42,-33 42,-22 0,39 -41,61 -50,91 -27,91 10,0 65,-61 112,-125 14,-19 14,-18 15,18 0,31 -6,44 -31,65 -68,58 -97,135 -63,163 14,11 18,10 31,-6 7,-11 19,-39 25,-63 9,-35 13,-40 25,-31 10,9 20,9 38,1 14,-7 25,-9 25,-7 0,3 -16,27 -35,54 -34,48 -48,112 -26,125 5,3 27,-14 49,-38 34,-37 41,-52 47,-102 10,-94 12,-102 14,-50 1,51 13,102 36,148 11,23 11,29 -1,39 -34,28 -65,131 -44,144 6,4 28,-11 49,-34 41,-44 65,-51 80,-23 5,9 11,78 13,152 5,144 3,140 56,124 21,-6 22,-4 22,44 0,32 5,54 15,62 8,7 19,27 23,44 14,52 36,39 42,-24 l 6,-55 8,40 c 10,57 44,123 64,128 20,6 71,0 127,-15 z m 2087,-128 c 20,-27 35,-106 40,-210 l 3,-65 -37,1 c -53,2 -49,-20 10,-48 42,-20 49,-29 67,-78 23,-63 32,-80 45,-80 6,0 0,20 -12,44 -26,53 -19,76 21,76 26,0 34,-7 52,-42 l 21,-42 15,34 c 13,31 12,36 -7,62 -22,29 -26,53 -10,63 5,3 36,-8 67,-25 62,-32 73,-35 73,-21 0,5 -15,16 -33,24 -60,29 -118,78 -133,112 -16,39 -19,121 -4,130 5,3 26,-9 47,-28 21,-18 56,-44 78,-59 22,-14 52,-42 65,-61 20,-29 29,-35 48,-30 20,5 23,2 20,-13 -2,-11 -11,-18 -21,-16 -12,2 -17,-4 -17,-19 0,-12 -9,-31 -20,-43 -11,-12 -39,-43 -63,-70 -59,-68 -212,-170 -254,-169 -25,1 -33,-3 -33,-17 0,-22 -54,-71 -98,-89 -30,-12 -35,-12 -70,12 -20,15 -42,35 -48,45 -18,28 -38,162 -26,174 20,20 152,-91 152,-128 0,-8 5,-14 10,-14 6,0 10,7 10,15 0,10 10,15 27,15 26,0 26,1 -15,31 -23,17 -42,31 -42,32 0,1 -7,20 -15,42 -10,28 -14,33 -15,18 0,-33 -24,-28 -70,13 -67,60 -82,94 -88,195 -3,55 -9,86 -15,82 -16,-10 -1,-169 27,-286 27,-113 32,-157 18,-157 -25,0 -102,64 -111,93 -17,52 -30,174 -31,288 0,88 3,109 18,122 23,21 190,63 203,50 5,-5 14,-47 20,-93 5,-47 12,-87 15,-89 2,-2 4,35 4,83 0,94 8,108 50,86 35,-19 47,2 22,38 -35,48 4,59 40,12 z m -5888,-71 c 26,-31 34,-59 17,-59 -19,0 -71,52 -71,71 0,28 25,23 54,-12 z m 3383,-40 c 23,-47 27,-79 9,-79 -16,0 -33,26 -46,71 -14,46 15,53 37,8 z m 2093,5 c 12,-14 26,-144 33,-299 2,-59 1,-60 -25,-63 -38,-4 -35,-16 12,-61 28,-27 40,-47 41,-67 0,-28 1,-28 11,-6 13,26 20,27 64,6 43,-21 84,-69 84,-99 0,-28 -43,-65 -76,-65 -12,0 -32,11 -42,25 -20,25 -21,25 -27,5 -4,-12 -15,-20 -28,-20 -32,0 -126,57 -137,83 -14,34 -40,192 -49,295 -8,86 -5,114 14,178 5,16 1,26 -15,37 -34,24 -18,44 42,55 77,14 84,14 98,-4 z M 3618,3014 c 32,-43 42,-87 21,-100 -13,-8 -75,50 -95,88 -15,28 -19,70 -8,81 10,9 45,-21 82,-69 z m 17,65 c 11,-17 -1,-21 -15,-4 -8,9 -8,15 -2,15 6,0 14,-5 17,-11 z m -1875,-9 c 0,-5 -4,-10 -10,-10 -5,0 -10,5 -10,10 0,6 5,10 10,10 6,0 10,-4 10,-10 z m 1990,-32 c 35,-48 37,-58 12,-58 -32,0 -73,65 -57,90 9,15 13,13 45,-32 z m -266,-1 c 6,-9 7,-19 3,-23 -9,-10 -48,26 -41,38 8,12 25,6 38,-15 z m 1542,-14 c 36,-56 44,-76 33,-90 -24,-28 -79,36 -79,92 0,33 23,32 46,-2 z m -1573,-58 c 60,-104 44,-168 -23,-87 -40,48 -56,101 -41,131 7,11 15,21 19,21 4,0 24,-29 45,-65 z m 3521,3 c 3,-29 6,-73 6,-98 0,-25 9,-92 19,-150 11,-60 16,-109 11,-114 -12,-12 -70,11 -92,36 -14,15 -18,38 -18,92 0,78 15,187 30,214 5,9 11,29 15,45 9,43 22,32 29,-25 z m -4964,-5 c 43,-50 48,-76 14,-81 -30,-4 -84,60 -84,98 0,43 21,38 70,-17 z m 2925,2 c 0,-45 -20,-57 -36,-22 -8,18 -8,30 1,46 17,32 35,20 35,-24 z m -1588,-26 c 19,-36 17,-79 -4,-79 -25,0 -63,40 -63,66 0,23 26,46 45,40 6,-1 16,-13 22,-27 z m 236,-28 c 67,-74 66,-71 83,-316 15,-221 22,-265 46,-265 21,0 107,-73 118,-101 16,-37 5,-69 -24,-69 -33,0 -90,42 -94,68 -2,15 -14,25 -42,33 -22,7 -53,24 -70,38 -39,33 -57,101 -66,259 -6,99 -5,114 11,131 16,18 16,22 1,43 -16,23 -22,68 -9,68 4,0 19,-12 35,-27 44,-42 43,-21 -1,50 -72,113 -63,171 12,88 z m 161,23 c 21,-20 21,-54 0,-54 -9,0 -14,-3 -12,-7 2,-5 11,-24 21,-43 23,-48 69,-496 52,-510 -19,-16 -60,23 -89,83 -34,69 -51,228 -42,397 5,100 10,127 23,138 22,16 28,15 47,-4 z m -1531,-36 c 15,-20 18,-34 12,-67 -4,-22 -12,-41 -19,-41 -19,0 -46,55 -46,92 0,56 19,62 53,16 z m 4597,12 c 39,-21 76,-109 51,-124 -12,-8 -59,31 -76,63 -8,16 -11,38 -8,49 6,25 8,26 33,12 z m -3965,-33 c 11,-15 15,-48 15,-110 0,-94 -8,-109 -48,-88 -43,23 -70,182 -37,214 18,19 51,11 70,-16 z m 357,-12 c 8,-19 8,-31 -1,-51 l -12,-27 -29,28 c -34,33 -37,50 -12,64 27,16 42,13 54,-14 z m 1718,-17 c 24,-39 25,-58 6,-58 -15,0 -56,58 -56,79 0,23 31,10 50,-21 z m -2802,-6 c 2,-7 -3,-12 -12,-12 -9,0 -16,7 -16,16 0,17 22,14 28,-4 z m 886,6 c 30,-13 33,-21 42,-114 6,-66 5,-73 -17,-92 -25,-24 -21,-40 23,-95 16,-19 19,-30 11,-38 -18,-18 -47,-2 -118,65 l -68,64 5,89 c 6,111 17,133 63,133 19,0 45,-5 59,-12 z m 438,-30 c 51,-62 54,-73 68,-188 6,-58 15,-133 20,-168 9,-63 5,-92 -10,-92 -13,0 -119,89 -130,110 -5,10 -10,71 -10,134 0,105 2,116 18,116 10,0 28,-7 40,-16 33,-23 27,-4 -18,50 -38,45 -48,74 -33,89 12,13 20,7 55,-35 z m 506,-66 c 69,-104 82,-138 82,-224 1,-172 31,-336 62,-330 8,1 33,-14 57,-34 53,-46 43,-65 -21,-41 -24,8 -59,18 -78,21 -19,3 -46,12 -60,20 -89,49 -83,47 -97,26 -18,-26 -33,-25 -33,0 0,11 7,20 15,20 11,0 9,8 -9,34 -27,40 -29,54 -51,267 -20,193 -18,244 10,244 14,0 23,-10 29,-32 8,-24 16,-32 40,-36 17,-3 32,-4 33,-3 2,2 -13,25 -32,52 -32,45 -43,82 -29,97 13,12 32,-6 82,-81 z m -1633,46 c 66,-63 52,-123 -19,-79 -31,20 -46,51 -46,97 0,24 29,15 65,-18 z m 1025,2 c 0,-14 -14,-12 -28,2 -19,19 -14,30 8,18 11,-6 20,-15 20,-20 z m 3441,-6 c 33,-34 33,-36 14,-50 -17,-13 -22,-12 -42,8 -12,13 -25,35 -28,51 -10,39 13,35 56,-9 z m -3483,-25 c 61,-67 61,-69 59,-251 -1,-190 -3,-193 -70,-135 -26,22 -41,45 -47,72 -14,60 -12,206 3,235 11,21 11,29 -1,47 -15,24 -9,73 8,73 6,0 27,-19 48,-41 z m -140,2 c 22,-17 43,-38 46,-48 10,-32 14,-207 5,-230 -4,-13 -14,-23 -22,-23 -16,0 -80,65 -97,99 -14,27 -26,190 -17,215 9,24 40,19 85,-13 z m -585,-65 c 112,-95 114,-166 3,-96 -85,54 -116,106 -84,138 13,13 18,11 81,-42 z m 4189,-12 c 41,-29 68,-26 68,6 0,27 26,26 44,-2 7,-13 19,-59 26,-103 7,-44 14,-89 16,-99 2,-11 -1,-25 -7,-32 -9,-11 -23,-6 -69,24 -32,20 -71,47 -85,60 -25,22 -26,25 -10,42 15,17 14,21 -16,63 -17,25 -28,50 -25,56 10,16 15,14 58,-15 z m -4334,-12 c 4,-24 -7,-29 -26,-10 -18,18 -15,40 6,36 9,-2 18,-13 20,-26 z m 295,7 c 6,-9 7,-24 4,-33 -5,-13 -11,-15 -26,-7 -19,11 -33,45 -23,56 10,10 34,1 45,-16 z m 3932,-3 c 22,-32 30,-91 15,-101 -15,-9 -55,28 -70,66 -22,52 25,81 55,35 z m -104,-56 c 15,-8 19,-21 19,-59 0,-72 -33,-78 -90,-16 l -25,27 35,29 c 39,33 35,32 61,19 z m -3709,-17 c 23,-21 25,-76 2,-71 -24,4 -58,53 -51,72 8,21 26,20 49,-1 z m -102,-55 c 0,-26 -24,-18 -28,10 -3,16 1,20 12,16 9,-3 16,-15 16,-26 z m 4238,-2 c 15,-8 38,-26 51,-40 16,-17 35,-26 56,-26 17,0 53,-7 80,-17 l 48,-16 -22,-19 c -13,-10 -31,-18 -40,-18 -9,0 -47,-8 -84,-17 l -69,-18 -23,30 c -36,45 -57,155 -30,155 3,0 18,-6 33,-14 z m -4020,-27 c 99,-67 144,-127 85,-113 -83,20 -131,45 -141,74 -10,26 -6,70 5,70 2,0 25,-14 51,-31 z m 3591,-61 c 34,-19 40,-35 15,-45 -33,-13 -164,73 -164,107 0,31 23,28 72,-9 25,-20 60,-44 77,-53 z m 109,70 c 37,-40 50,-98 22,-98 -5,0 -25,14 -45,31 -25,22 -35,39 -35,60 0,36 27,39 58,7 z m 743,-11 c -13,-13 -31,0 -24,19 4,11 8,12 20,3 9,-8 10,-16 4,-22 z m -1058,-5 c 27,-28 35,-56 18,-66 -9,-6 -96,48 -107,66 -4,6 0,14 7,19 26,16 55,9 82,-19 z m -2231,-28 c 58,-61 67,-86 74,-203 9,-136 5,-144 -51,-90 -24,24 -52,61 -61,84 -20,49 -33,255 -15,255 6,0 30,-21 53,-46 z m -1252,6 c 8,-5 11,-12 8,-16 -10,-9 -38,3 -38,16 0,12 10,13 30,0 z m 3985,-51 c 52,-34 95,-64 95,-67 0,-16 -36,-42 -59,-42 -37,0 -125,44 -145,71 -19,28 -21,70 -4,87 7,7 13,12 15,12 2,0 46,-27 98,-61 z m -2145,20 c 4,-13 3,-35 -2,-48 -7,-20 -11,-21 -24,-10 -28,23 -34,45 -18,68 19,27 36,23 44,-10 z m -1528,-38 c 18,-16 29,-33 25,-37 -11,-11 -56,15 -75,44 -13,20 -13,22 2,22 8,0 30,-13 48,-29 z m 3192,-12 c 30,-24 34,-49 8,-49 -17,0 -72,48 -72,63 0,14 38,6 64,-14 z m 132,-9 c 75,-39 104,-71 104,-114 0,-56 -63,-64 -128,-16 -50,36 -62,57 -62,108 0,62 6,64 86,22 z m -1850,-11 c 55,-43 74,-69 74,-106 0,-18 7,-51 16,-73 14,-33 20,-39 38,-34 29,7 123,-65 132,-101 15,-61 -19,-59 -131,8 -116,68 -230,178 -240,230 -4,21 -5,41 -1,44 3,3 24,-11 46,-31 53,-48 70,-36 25,17 -34,40 -41,57 -28,70 12,13 30,7 69,-24 z m -1162,-45 c 82,-78 80,-93 -11,-75 -63,12 -79,27 -89,78 -7,38 0,63 18,63 7,0 44,-30 82,-66 z m 3183,46 c 36,-22 59,-55 43,-65 -12,-7 -74,21 -91,41 -11,14 -6,44 8,44 4,0 22,-9 40,-20 z m -2340,-27 c 24,-30 48,-115 39,-138 -3,-8 -12,-15 -21,-15 -22,0 -19,-6 24,-49 39,-39 59,-87 43,-103 -6,-6 -32,-5 -68,1 -84,15 -107,43 -128,157 -20,113 -20,143 1,167 25,27 81,17 110,-20 z m 167,-6 c 18,-52 -30,-62 -53,-11 -14,31 -6,46 22,42 13,-2 25,-14 31,-31 z m -1204,-28 c 0,-6 -4,-7 -10,-4 -5,3 -10,11 -10,16 0,6 5,7 10,4 6,-3 10,-11 10,-16 z m 3510,-19 c 0,-5 -7,-10 -16,-10 -8,0 -12,5 -9,10 3,6 10,10 16,10 5,0 9,-4 9,-10 z m -2337,-30 c 19,-16 40,-43 47,-60 10,-24 17,-29 36,-24 17,5 35,-4 71,-34 26,-22 64,-48 83,-57 54,-27 100,-64 100,-82 0,-14 -13,-15 -95,-11 -122,7 -138,17 -158,100 -14,62 -15,62 -16,21 -1,-35 -4,-43 -20,-43 -52,0 -121,102 -121,178 0,35 3,42 20,42 10,0 35,-13 53,-30 z m 2187,15 c 0,-8 -4,-15 -10,-15 -5,0 -10,7 -10,15 0,8 5,15 10,15 6,0 10,-7 10,-15 z M 5630,2199 c 72,-48 89,-67 69,-80 -8,-5 -29,-12 -46,-15 -38,-7 -108,28 -142,72 -20,25 -28,83 -14,97 6,7 42,-12 133,-74 z m -409,19 c 24,-17 68,-51 97,-76 41,-35 50,-47 41,-58 -17,-20 -83,-17 -122,6 -33,20 -97,108 -97,134 0,35 26,34 81,-6 z m 847,-24 c 41,-17 37,-34 -9,-52 -50,-19 -89,-3 -89,36 0,16 3,32 6,35 8,8 45,0 92,-19 z m -942,-61 c 35,-26 64,-52 64,-59 0,-16 -58,-26 -95,-16 -32,9 -65,59 -65,100 0,34 25,27 96,-25 z m -635,-60 c 35,-21 37,-33 6,-33 -25,0 -62,32 -50,43 9,10 11,9 44,-10 z m 469,-24 c 0,-5 -4,-9 -10,-9 -5,0 -10,7 -10,16 0,8 5,12 10,9 6,-3 10,-10 10,-16 z"
       id="path1-3"
       style="fill:#543b48;fill-opacity:1" /><path
       d="m 5314,7709 c -38,-11 -67,-41 -62,-66 5,-27 66,-53 123,-52 28,0 84,10 125,22 72,21 75,23 75,52 0,21 -7,33 -25,42 -29,15 -188,16 -236,2 z m 141,-39 c 22,-8 25,-13 15,-25 -24,-29 -118,-27 -128,3 -8,25 67,40 113,22 z"
       id="path2-6"
       style="fill:#543b48;fill-opacity:1" /><path
       d="m 3942,7599 c -61,-24 -122,-77 -122,-107 0,-40 35,-52 157,-52 92,0 119,4 150,19 21,11 52,25 68,31 l 30,12 -22,18 c -38,30 -171,100 -190,99 -10,0 -42,-9 -71,-20 z"
       id="path3-4"
       style="fill:#543b48;fill-opacity:1" /><path
       d="m 6665,7561 c -21,-4 -31,-13 -33,-28 -10,-67 198,-97 287,-42 26,16 30,22 22,38 -6,10 -25,24 -42,30 -34,12 -183,13 -234,2 z"
       id="path4-7"
       style="fill:#543b48;fill-opacity:1" /><path
       d="m 4717,7329 c -85,-20 -157,-75 -157,-119 0,-30 40,-73 85,-90 54,-20 156,14 188,64 23,35 22,108 -1,129 -24,22 -68,28 -115,16 z m 81,-61 c 31,-31 -4,-98 -61,-117 -42,-14 -86,-2 -111,32 -18,25 -19,29 -4,43 18,18 112,53 144,54 11,0 25,-5 32,-12 z"
       id="path5-2"
       style="fill:#543b48;fill-opacity:1" /><path
       d="m 5854,7225 c -85,-13 -122,-31 -149,-72 -23,-35 -13,-50 50,-79 52,-24 61,-25 160,-18 123,8 125,10 117,97 -4,51 -8,60 -33,72 -32,17 -37,17 -145,0 z"
       id="path6-9"
       style="fill:#543b48;fill-opacity:1" /><path
       d="m 2475,7080 c -110,-24 -255,-159 -255,-237 0,-26 6,-36 25,-45 21,-9 34,-6 87,20 80,39 191,130 207,170 28,66 0,106 -64,92 z"
       id="path7-1"
       style="fill:#543b48;fill-opacity:1" /><path
       d="m 3650,7011 c -141,-46 -191,-92 -156,-146 31,-47 131,-38 248,21 62,31 82,61 68,100 -6,16 -17,32 -23,36 -20,13 -79,8 -137,-11 z m 110,-49 c 0,-15 -45,-51 -84,-67 -41,-17 -110,-24 -123,-12 -11,11 10,40 39,54 42,21 168,39 168,25 z"
       id="path8-5"
       style="fill:#543b48;fill-opacity:1" /><path
       d="m 6858,6990 c -70,-38 -68,-74 5,-111 61,-32 153,-36 195,-10 52,34 45,64 -25,100 -80,40 -129,46 -175,21 z m 117,-54 c 58,-24 38,-50 -29,-39 -38,6 -62,26 -51,43 9,14 39,13 80,-4 z"
       id="path9-9"
       style="fill:#543b48;fill-opacity:1" /><path
       d="m 7960,6940 c -8,-6 -34,-15 -58,-21 -53,-14 -82,-49 -82,-100 0,-54 7,-67 46,-79 81,-27 214,49 214,123 0,67 -68,111 -120,77 z"
       id="path10-5"
       style="fill:#543b48;fill-opacity:1" /><path
       d="m 5337,6693 c -25,-41 -41,-363 -18,-386 8,-8 11,14 11,84 0,51 7,139 15,194 8,55 10,104 6,108 -5,5 -11,5 -14,0 z"
       id="path11-9"
       style="fill:#543b48;fill-opacity:1" /><path
       d="m 5565,6658 c -34,-83 -46,-341 -17,-370 9,-9 12,15 12,103 0,100 6,142 37,277 8,34 -16,27 -32,-10 z"
       id="path12-7"
       style="fill:#543b48;fill-opacity:1" /><path
       d="m 5187,6636 c -12,-32 -29,-261 -22,-312 10,-86 21,-71 23,34 0,53 7,136 14,183 8,48 12,92 10,98 -5,15 -19,14 -25,-3 z"
       id="path13-9"
       style="fill:#543b48;fill-opacity:1" /><path
       d="m 2599,6610 c -48,-25 -105,-93 -113,-133 -6,-34 6,-90 25,-113 15,-18 53,-18 94,2 46,21 155,128 155,151 0,11 -16,41 -36,66 -42,53 -66,58 -125,27 z m 99,-72 c 23,-23 13,-56 -29,-92 -55,-47 -91,-59 -118,-40 -27,19 -27,44 1,79 43,55 117,82 146,53 z"
       id="path14-8"
       style="fill:#543b48;fill-opacity:1" /><path
       d="m 5418,6608 c -17,-30 -18,-292 -2,-308 8,-8 13,24 18,122 3,73 9,150 12,171 7,42 -8,50 -28,15 z"
       id="path15-6"
       style="fill:#543b48;fill-opacity:1" /><path
       d="m 5057,6613 c -3,-5 -11,-92 -18,-194 -10,-149 -10,-214 0,-327 9,-100 9,-147 2,-161 -6,-11 -11,-35 -11,-53 0,-46 -23,-77 -46,-62 -24,14 -32,47 -46,197 -10,112 -10,131 4,155 13,23 14,46 6,157 -13,180 -21,238 -35,243 -14,4 -16,-349 -4,-618 4,-95 3,-150 -4,-159 -16,-22 -76,-44 -88,-32 -6,6 -14,53 -18,106 -5,73 -11,99 -24,109 -9,7 -23,39 -31,72 -13,58 -13,58 -8,-61 3,-66 9,-149 14,-185 7,-55 5,-69 -9,-90 -10,-14 -27,-26 -39,-28 -19,-3 -20,2 -24,140 -2,112 -7,148 -20,168 -9,14 -21,51 -28,83 -17,82 -23,65 -11,-31 19,-151 25,-336 11,-361 -11,-21 -13,-22 -28,-7 -12,12 -16,40 -16,133 -1,116 -14,160 -27,95 -14,-69 -26,-58 -63,57 -21,64 -36,129 -35,154 1,23 -8,92 -20,152 -11,61 -21,129 -21,151 0,27 -5,44 -14,47 -21,8 -39,-19 -33,-50 3,-15 1,-35 -3,-43 -11,-21 7,-118 29,-155 19,-33 35,-119 32,-175 -1,-19 -1,-72 -1,-117 0,-141 1,-142 -205,232 -76,138 -144,259 -152,270 -15,19 -15,19 -9,-6 8,-36 -17,-58 -45,-41 -23,14 -39,15 -39,2 0,-5 25,-49 56,-97 31,-48 63,-99 71,-111 22,-36 28,-18 9,28 -14,34 -14,40 -1,40 14,0 65,-66 65,-84 0,-5 -30,-39 -67,-74 -55,-54 -69,-63 -83,-54 -23,14 -30,6 -30,-35 0,-34 -29,-60 -38,-35 -2,7 -13,17 -24,23 l -21,11 21,-33 c 11,-19 32,-56 46,-83 43,-80 29,-136 -17,-74 -31,42 -87,152 -87,173 0,8 -11,25 -24,36 -14,12 -50,59 -81,105 -67,97 -81,112 -97,96 -8,-8 5,-32 49,-89 110,-142 127,-187 77,-199 -32,-8 -44,7 -44,57 0,44 -7,51 -32,38 -17,-9 -29,-1 -87,62 -52,56 -71,71 -85,66 -17,-7 -17,-9 -2,-30 50,-67 84,-177 55,-177 -6,0 -34,20 -61,45 -55,49 -77,51 -53,4 9,-16 13,-34 10,-39 -8,-13 -42,-13 -50,0 -3,6 -11,10 -16,10 -6,0 7,-20 29,-45 43,-49 54,-75 41,-96 -7,-11 -16,-10 -48,9 -63,35 -80,25 -41,-25 11,-14 20,-34 20,-44 0,-22 74,-79 102,-79 14,0 26,-14 41,-50 11,-27 29,-53 40,-56 10,-3 35,-31 54,-62 20,-32 57,-81 82,-109 37,-43 51,-53 77,-53 22,0 36,-7 47,-24 11,-17 32,-28 69,-35 29,-7 82,-31 122,-56 89,-57 187,-95 365,-140 78,-19 175,-46 214,-59 40,-14 117,-30 171,-37 141,-17 462,-6 721,25 116,14 221,26 233,26 57,0 -11,-43 -142,-90 -16,-5 -27,-12 -24,-15 7,-8 246,77 418,147 194,80 247,98 284,98 22,0 47,13 86,46 30,25 89,69 130,97 148,100 260,217 260,270 0,29 34,61 128,120 69,45 80,56 66,70 -9,8 -36,-7 -115,-65 -67,-48 -91,-56 -119,-38 -12,8 -5,19 39,64 30,31 71,63 90,72 20,9 42,21 49,27 21,16 -6,27 -40,15 -20,-7 -37,-7 -58,2 -34,14 -44,34 -30,60 28,52 -4,89 -53,63 -16,-8 -32,-12 -35,-8 -3,3 1,26 10,50 13,35 14,45 4,45 -18,0 -39,-26 -69,-85 -14,-27 -50,-81 -80,-119 -30,-38 -78,-114 -107,-170 -29,-55 -57,-107 -62,-113 -15,-19 -42,-16 -69,6 l -24,19 33,68 c 18,37 45,82 59,101 22,28 31,33 54,28 25,-6 28,-3 39,32 7,21 54,121 106,222 52,101 94,190 94,198 0,38 -31,-5 -100,-138 -44,-83 -103,-179 -141,-227 -36,-45 -81,-110 -100,-143 -19,-33 -48,-83 -64,-112 -35,-60 -65,-72 -83,-32 -15,34 -32,32 -32,-4 0,-18 -6,-31 -17,-35 -36,-14 -35,13 10,164 49,166 48,186 -3,45 -18,-49 -41,-99 -51,-109 -18,-19 -18,-19 -29,8 -5,15 -10,37 -10,49 0,11 -7,49 -16,84 -14,57 -14,69 0,140 9,42 19,79 21,82 3,3 31,-2 63,-10 l 57,-14 5,-48 c 3,-26 10,-49 15,-50 6,-1 19,23 30,53 11,30 33,80 49,110 19,35 32,80 37,125 5,39 12,85 15,104 8,42 -12,39 -37,-5 -15,-27 -20,-29 -65,-26 -72,5 -76,13 -52,105 12,42 18,80 14,85 -13,12 -34,-27 -51,-99 -17,-70 -31,-91 -45,-69 -9,15 -9,15 -71,-287 -48,-236 -60,-283 -78,-283 -19,0 -43,42 -50,87 -7,48 -11,51 -51,42 -22,-6 -26,204 -5,277 8,29 22,90 31,136 8,46 31,132 51,191 35,107 37,131 8,107 -21,-17 -51,-121 -75,-254 -11,-61 -24,-134 -29,-162 -5,-27 -15,-99 -21,-160 -14,-129 -22,-149 -52,-133 -16,9 -28,7 -54,-7 -55,-30 -69,-13 -69,79 0,88 -13,77 -22,-17 -7,-75 -15,-85 -90,-115 -56,-22 -57,-22 -88,38 -14,28 -16,49 -10,137 l 7,104 -53,25 c -41,19 -71,25 -122,25 -78,0 -111,-17 -146,-74 -29,-47 -27,-87 7,-118 51,-48 114,-43 201,17 54,37 70,42 72,23 5,-45 -4,-205 -12,-212 -5,-6 -17,10 -29,40 -31,73 -35,79 -58,82 -23,3 -44,-31 -57,-91 -8,-38 -35,-32 -57,11 -23,48 -27,50 -47,23 -33,-44 -41,-26 -77,191 -11,67 -14,123 -10,180 4,46 6,110 6,143 0,33 6,102 14,154 8,51 12,100 9,107 -6,15 -29,19 -36,7 z m 1196,-433 c 23,0 22,-36 -3,-77 -31,-51 -100,-42 -100,13 0,34 39,77 64,70 11,-3 29,-6 39,-6 z M 4228,6019 c 4,-23 -26,-51 -52,-47 -25,4 -33,33 -15,54 16,19 63,14 67,-7 z m 64,-79 c -1,-14 -3,-52 -3,-85 0,-74 -12,-99 -35,-70 -8,11 -22,44 -30,73 l -16,54 28,29 c 34,35 60,34 56,-1 z m 2458,-16 c 0,-3 -14,-33 -31,-65 -37,-69 -105,-137 -122,-120 -19,19 21,97 75,146 44,40 78,57 78,39 z m -3040,-24 c 0,-5 -4,-10 -9,-10 -6,0 -13,5 -16,10 -3,6 1,10 9,10 9,0 16,-4 16,-10 z m 412,0 c 18,0 33,-8 42,-23 18,-27 64,-293 52,-304 -22,-23 -96,123 -96,190 0,48 0,49 -29,42 -34,-7 -51,14 -51,63 0,35 9,45 35,38 11,-3 32,-6 47,-6 z m -552,-30 c 0,-5 -2,-10 -4,-10 -3,0 -8,5 -11,10 -3,6 -1,10 4,10 6,0 11,-4 11,-10 z m 822,-88 c 49,-95 50,-127 4,-149 -19,-9 -41,-13 -49,-10 -14,5 -27,92 -27,190 0,71 26,60 72,-31 z m 118,0 c 24,-85 24,-127 0,-127 -8,0 -20,11 -27,25 -14,28 -18,180 -4,180 4,0 18,-35 31,-78 z m 818,23 c 17,-37 15,-55 -8,-55 -27,0 -44,34 -30,60 14,27 24,25 38,-5 z m 406,-31 c 24,-9 19,-41 -6,-48 -48,-12 -78,-7 -78,14 0,28 48,48 84,34 z m -2097,-73 c 16,-23 10,-101 -8,-101 -17,0 -37,46 -41,97 -5,50 -4,51 14,38 11,-7 27,-23 35,-34 z m 1392,25 c 10,-12 8,-17 -9,-26 -11,-6 -25,-8 -30,-5 -14,9 -12,32 3,38 20,9 24,8 36,-7 z m 581,-1 c 0,-8 -4,-15 -10,-15 -5,0 -10,7 -10,15 0,8 5,15 10,15 6,0 10,-7 10,-15 z m -2063,-31 c -9,-10 -38,16 -31,28 4,6 13,4 22,-6 9,-8 13,-19 9,-22 z m 2493,26 c 0,-5 -4,-10 -10,-10 -5,0 -10,5 -10,10 0,6 5,10 10,10 6,0 10,-4 10,-10 z m -1123,-26 c 3,-8 -4,-25 -17,-39 -23,-24 -20,-45 6,-45 23,0 16,-18 -8,-23 -21,-4 -20,-4 3,-6 37,-2 54,-24 39,-50 -6,-12 -15,-21 -20,-21 -6,0 -10,-13 -10,-29 0,-37 -27,-49 -53,-23 -23,24 -26,92 -4,106 12,8 10,13 -11,31 -33,28 -24,68 21,95 39,24 46,25 54,4 z m -1047,-31 c 50,-57 102,-142 97,-161 -8,-37 -147,140 -147,188 0,19 18,10 50,-27 z m 220,11 c 0,-8 -4,-14 -10,-14 -5,0 -10,9 -10,21 0,11 5,17 10,14 6,-3 10,-13 10,-21 z m 179,-8 c 22,-27 31,-74 15,-87 -11,-9 -17,-5 -29,24 -25,60 -16,99 14,63 z m -261,-40 c 40,-56 55,-93 44,-113 -7,-12 -15,-5 -38,33 -32,54 -54,100 -54,114 0,21 18,8 48,-34 z m 1356,22 c 32,-45 16,-78 -35,-78 -25,0 -44,40 -35,74 8,33 48,35 70,4 z m 158,-20 c -9,-9 -15,-9 -23,-1 -7,7 -9,20 -5,29 6,16 8,16 23,1 13,-13 15,-19 5,-29 z m 368,16 c 15,-37 13,-114 -2,-114 -36,1 -58,63 -39,113 13,34 29,35 41,1 z m -710,-3 c 14,-27 13,-61 -3,-61 -14,0 -39,58 -31,71 9,15 23,10 34,-10 z m 74,3 c 10,-26 7,-56 -6,-52 -18,6 -32,34 -25,52 8,20 23,21 31,0 z m 514,-8 c 8,-7 16,-31 19,-54 4,-33 2,-41 -13,-46 -26,-7 -95,9 -105,26 -18,27 -22,80 -8,89 18,12 90,2 107,-15 z m -714,-8 c 22,-31 20,-55 -5,-68 -36,-20 -71,29 -49,70 14,26 35,25 54,-2 z m 896,-8 c 0,-5 -2,-10 -4,-10 -3,0 -8,5 -11,10 -3,6 -1,10 4,10 6,0 11,-4 11,-10 z m -1192,-31 c 3,-19 -29,-31 -49,-19 -10,7 -10,11 1,25 16,19 44,16 48,-6 z m -977,-26 c 21,-26 41,-64 36,-69 -6,-6 -77,63 -77,75 0,17 25,13 41,-6 z m 853,-8 c -4,-8 -12,-15 -20,-15 -8,0 -14,7 -14,15 0,8 9,15 20,15 13,0 18,-5 14,-15 z m 1406,-14 c 20,-29 20,-30 2,-40 -23,-12 -62,11 -62,38 0,41 31,41 60,2 z m 558,17 c -7,-19 -106,-98 -123,-98 -30,0 -14,38 32,74 45,35 99,49 91,24 z m -2424,-34 c 4,-9 4,-19 2,-21 -8,-8 -26,8 -26,23 0,19 16,18 24,-2 z m 1219,-2 c 17,-19 94,-23 149,-8 21,6 29,3 38,-14 10,-18 9,-25 -2,-37 -12,-12 -30,-12 -109,-3 -52,6 -104,13 -115,16 -30,5 -40,35 -18,51 24,18 38,16 57,-5 z m -608,-40 c 5,-19 2,-30 -11,-39 -23,-17 -29,-16 -48,3 -24,23 -20,63 7,73 27,11 43,-1 52,-37 z m 1554,34 c 9,-10 7,-19 -7,-36 -20,-25 -48,-22 -58,5 -14,34 41,60 65,31 z m -1883,-18 c 11,-17 -26,-40 -43,-27 -10,9 -10,15 -2,25 14,17 35,18 45,2 z m 1318,-1 c 10,-7 17,-22 14,-33 -3,-16 -13,-19 -64,-22 -66,-3 -94,11 -94,49 0,17 7,19 63,19 36,0 71,-6 81,-13 z m -699,-6 c 7,-12 -12,-24 -25,-16 -11,7 -4,25 10,25 5,0 11,-4 15,-9 z m 833,-13 c 16,-16 15,-35 -3,-42 -20,-7 -45,3 -45,18 0,13 20,36 30,36 3,0 11,-5 18,-12 z m -938,-8 c 0,-5 -4,-10 -10,-10 -5,0 -10,5 -10,10 0,6 5,10 10,10 6,0 10,-4 10,-10 z m -326,-16 c 8,-22 -11,-44 -39,-44 -29,0 -39,25 -19,45 20,20 50,19 58,-1 z m 1406,-24 c 0,-5 -9,-10 -19,-10 -11,0 -23,5 -26,10 -4,6 5,10 19,10 14,0 26,-4 26,-10 z m 135,-6 c 12,-12 13,-19 4,-30 -14,-18 -30,-18 -54,0 -22,16 -14,46 14,46 11,0 27,-7 36,-16 z m -1707,-40 c 2,-17 -6,-24 -40,-37 -55,-21 -58,-21 -58,3 0,18 10,25 32,21 5,0 14,8 20,19 16,25 42,22 46,-6 z m 1820,11 c 21,-15 21,-17 6,-40 -21,-32 -42,-32 -55,2 -18,49 5,68 49,38 z m -860,-5 c 34,-6 169,-17 300,-24 184,-11 252,-19 302,-35 75,-24 130,-55 130,-73 0,-18 -113,-89 -174,-109 -28,-10 -107,-23 -176,-29 -69,-6 -233,-25 -365,-41 -459,-56 -665,-39 -885,71 -65,33 -121,64 -125,69 -6,11 64,51 90,51 8,0 39,9 68,19 28,11 78,29 109,40 73,27 244,51 418,61 206,11 240,11 308,0 z m -1085,-75 c 1,-5 -6,-11 -15,-13 -11,-2 -18,3 -18,13 0,17 30,18 33,0 z"
       id="path16-0"
       style="fill:#543b48;fill-opacity:1" /><path
       d="m 5675,6609 c -10,-15 -12,-366 -2,-375 4,-4 9,-5 11,-3 2,2 6,91 9,197 6,177 2,215 -18,181 z"
       id="path17-6"
       style="fill:#543b48;fill-opacity:1" /><path
       d="m 4733,6487 c 14,-244 32,-278 32,-59 -1,144 -5,172 -27,172 -8,0 -9,-34 -5,-113 z"
       id="path18-8"
       style="fill:#543b48;fill-opacity:1" /><path
       d="m 5821,6582 c -5,-10 -15,-75 -21,-145 -6,-69 -18,-152 -25,-184 -13,-56 -6,-90 14,-67 16,18 62,414 48,414 -4,0 -11,-8 -16,-18 z"
       id="path19-9"
       style="fill:#543b48;fill-opacity:1" /><path
       d="m 6097,6533 c -29,-51 -131,-418 -121,-435 12,-19 22,-4 33,50 6,32 34,125 61,206 28,82 50,157 50,167 0,19 -15,26 -23,12 z"
       id="path20-2"
       style="fill:#543b48;fill-opacity:1" /><path
       d="m 4020,6501 c 0,-5 5,-13 10,-16 6,-3 10,-2 10,4 0,5 -4,13 -10,16 -5,3 -10,2 -10,-4 z"
       id="path21-2"
       style="fill:#543b48;fill-opacity:1" /><path
       d="m 4506,6481 c -11,-18 25,-241 40,-241 2,0 2,51 -1,113 -3,61 -5,118 -5,125 0,14 -26,17 -34,3 z"
       id="path22-1"
       style="fill:#543b48;fill-opacity:1" /><path
       d="m 4158,6454 c -8,-8 -3,-23 62,-165 29,-63 58,-121 66,-129 30,-31 14,28 -44,161 -55,125 -70,148 -84,133 z"
       id="path23-2"
       style="fill:#543b48;fill-opacity:1" /><path
       d="m 3850,6380 c 0,-5 36,-71 79,-147 72,-125 101,-164 101,-133 0,14 -127,249 -148,273 -17,19 -32,22 -32,7 z"
       id="path24-2"
       style="fill:#543b48;fill-opacity:1" /><path
       d="m 6580,6338 c -24,-27 -180,-332 -180,-353 0,-9 7,-18 16,-22 22,-8 44,22 44,60 0,29 46,122 124,251 36,60 44,86 26,86 -5,0 -19,-10 -30,-22 z"
       id="path25-3"
       style="fill:#543b48;fill-opacity:1" /><path
       d="m 3202,6324 c -35,-17 -62,-40 -79,-65 l -26,-40 29,-30 c 64,-67 121,-71 176,-11 22,23 48,79 48,103 0,15 -62,69 -78,69 -9,-1 -41,-12 -70,-26 z"
       id="path26-9"
       style="fill:#543b48;fill-opacity:1" /><path
       d="m 3735,6310 c -3,-5 10,-35 30,-66 20,-31 40,-66 45,-78 4,-12 28,-53 52,-92 l 44,-71 16,37 c 16,38 15,38 -24,106 -80,138 -141,200 -163,164 z"
       id="path27-5"
       style="fill:#543b48;fill-opacity:1" /><path
       d="m 7469,6235 c -43,-41 -72,-142 -49,-170 21,-25 71,-27 142,-5 93,29 130,81 98,139 -8,16 -124,71 -148,71 -4,0 -24,-16 -43,-35 z m 134,-49 c 24,-19 21,-41 -10,-65 -32,-26 -65,-35 -98,-27 -32,8 -34,50 -3,83 24,26 82,31 111,9 z"
       id="path28-9"
       style="fill:#543b48;fill-opacity:1" /><path
       d="m 7941,6113 c -30,-28 -81,-139 -81,-175 0,-94 165,-96 226,-3 23,35 22,113 -1,148 -20,31 -63,57 -94,57 -12,0 -34,-12 -50,-27 z m 91,-185 c -7,-7 -12,-8 -12,-2 0,14 12,26 19,19 2,-3 -1,-11 -7,-17 z"
       id="path29-7"
       style="fill:#543b48;fill-opacity:1" /><path
       d="m 1640,6002 c -8,-3 -34,-21 -57,-39 -33,-28 -49,-51 -73,-114 -36,-94 -37,-103 -8,-123 34,-24 91,-20 126,8 39,34 112,144 112,171 0,49 -63,110 -100,97 z m 40,-67 c 17,-21 0,-78 -40,-134 -34,-46 -66,-63 -92,-49 -38,19 -7,100 61,161 46,41 53,44 71,22 z"
       id="path30-3"
       style="fill:#543b48;fill-opacity:1" /><path
       d="m 2190,5869 c -98,-40 -155,-151 -115,-228 24,-47 57,-52 128,-21 49,22 93,67 103,105 8,33 -23,122 -49,140 -24,17 -32,18 -67,4 z"
       id="path31-5"
       style="fill:#543b48;fill-opacity:1" /><path
       d="m 3170,5700 c -62,-13 -85,-27 -112,-66 -54,-78 -64,-151 -26,-178 31,-22 124,-21 168,2 39,20 77,86 86,154 10,72 -35,106 -116,88 z m 64,-56 c 19,-19 19,-10 1,-71 -25,-83 -95,-125 -156,-93 -24,14 -25,60 -1,88 32,38 104,92 122,92 10,0 26,-7 34,-16 z"
       id="path32-0"
       style="fill:#543b48;fill-opacity:1" /><path
       d="m 6945,5240 c -44,-18 -70,-59 -69,-108 1,-73 17,-102 56,-102 46,0 107,33 158,85 40,40 43,48 34,72 -17,50 -117,79 -179,53 z"
       id="path33-5"
       style="fill:#543b48;fill-opacity:1" /><path
       d="m 2275,5183 c -70,-37 -99,-79 -109,-162 -10,-73 7,-91 83,-91 62,0 125,24 156,59 16,18 20,36 19,89 -1,37 -6,79 -12,95 -10,24 -16,27 -59,27 -27,-1 -61,-8 -78,-17 z m 106,-60 c 16,-42 0,-112 -31,-135 -39,-29 -91,-34 -119,-11 -19,16 -22,25 -16,52 20,90 141,158 166,94 z"
       id="path34-3"
       style="fill:#543b48;fill-opacity:1" /><path
       d="m 1275,5128 c -31,-27 -47,-117 -25,-143 29,-34 120,-6 156,49 22,35 11,72 -29,96 -42,26 -70,25 -102,-2 z"
       id="path35-7"
       style="fill:#543b48;fill-opacity:1" /><path
       d="m 8045,5124 c -48,-25 -107,-87 -101,-107 2,-10 -2,-38 -11,-62 -8,-24 -13,-56 -11,-72 3,-26 6,-28 49,-27 97,1 219,108 219,192 0,24 -8,42 -29,63 -33,33 -70,37 -116,13 z m 99,-98 c -2,-42 -21,-68 -83,-108 -56,-35 -91,-37 -91,-5 0,34 60,128 99,154 31,21 37,22 55,9 15,-10 21,-24 20,-50 z"
       id="path36-1"
       style="fill:#543b48;fill-opacity:1" /><path
       d="m 6111,4832 c -19,-9 -43,-29 -53,-43 -26,-34 -39,-98 -29,-135 7,-27 11,-29 58,-28 64,2 155,42 179,80 27,40 24,101 -5,125 -30,24 -104,25 -150,1 z m 129,-57 c 18,-33 -7,-71 -66,-97 -51,-22 -82,-21 -97,4 -9,13 -3,24 30,56 71,69 110,80 133,37 z"
       id="path37-5"
       style="fill:#543b48;fill-opacity:1" /><path
       d="m 3220,4681 c -106,-64 -131,-97 -116,-156 8,-32 61,-65 105,-65 79,0 191,91 191,156 0,56 -16,82 -57,93 -53,15 -50,15 -123,-28 z"
       id="path38-1"
       style="fill:#543b48;fill-opacity:1" /><path
       d="m 2014,4442 c -56,-41 -121,-117 -127,-150 -3,-15 1,-41 8,-59 20,-48 54,-52 128,-17 95,45 117,68 117,119 0,52 -12,87 -40,115 -27,27 -40,25 -86,-8 z"
       id="path39-6"
       style="fill:#543b48;fill-opacity:1" /><path
       d="m 7305,4391 c -105,-49 -175,-132 -160,-189 22,-90 130,-81 219,18 64,71 95,167 64,198 -18,18 -36,14 -123,-27 z"
       id="path40-0"
       style="fill:#543b48;fill-opacity:1" /><path
       d="m 5085,4326 c -86,-37 -144,-163 -102,-221 19,-25 72,-14 134,29 91,62 120,143 67,185 -31,24 -56,26 -99,7 z m 80,-66 c 17,-28 -78,-130 -122,-130 -29,0 -31,32 -4,76 27,45 110,81 126,54 z"
       id="path41-0"
       style="fill:#543b48;fill-opacity:1" /><path
       d="m 6170,4121 c -34,-13 -149,-115 -160,-142 -15,-35 -6,-89 19,-120 60,-75 221,50 221,171 0,67 -37,108 -80,91 z"
       id="path42-8"
       style="fill:#543b48;fill-opacity:1" /><path
       d="m 4317,3930 c -68,-20 -138,-101 -139,-161 -2,-46 31,-69 94,-69 92,0 158,68 158,163 0,68 -36,90 -113,67 z"
       id="path43-4"
       style="fill:#543b48;fill-opacity:1" /><path
       d="m 3254,3816 c -81,-38 -103,-89 -69,-156 38,-74 174,-8 205,100 6,22 4,35 -8,50 -27,32 -70,34 -128,6 z m 93,-42 c 13,-35 -60,-111 -97,-99 -24,8 -34,39 -20,64 22,42 105,67 117,35 z"
       id="path44-8"
       style="fill:#543b48;fill-opacity:1" /><path
       d="m 6556,3417 c -74,-73 -108,-128 -108,-173 0,-42 13,-54 62,-54 58,0 112,20 147,55 30,30 33,38 33,97 0,73 -26,128 -61,128 -11,0 -43,-23 -73,-53 z m 85,-57 c 28,-16 25,-70 -5,-99 -46,-43 -136,-45 -136,-3 0,25 35,69 74,93 36,22 41,23 67,9 z"
       id="path45-3"
       style="fill:#543b48;fill-opacity:1" /><path
       d="m 7828,3585 c -6,-10 18,-225 27,-233 8,-8 4,55 -8,153 -7,50 -15,85 -19,80 z"
       id="path46-3"
       style="fill:#543b48;fill-opacity:1" /><path
       d="m 8004,3095 c 11,-8 25,-15 30,-15 6,0 2,7 -8,15 -11,8 -25,15 -30,15 -6,0 -2,-7 8,-15 z"
       id="path47-9"
       style="fill:#543b48;fill-opacity:1" /><path
       d="m 1871,3274 c 0,-11 3,-14 6,-6 3,7 2,16 -1,19 -3,4 -6,-2 -5,-13 z"
       id="path48-4"
       style="fill:#543b48;fill-opacity:1" /><path
       d="m 1981,3244 c 0,-11 3,-14 6,-6 3,7 2,16 -1,19 -3,4 -6,-2 -5,-13 z"
       id="path49-0"
       style="fill:#543b48;fill-opacity:1" /><path
       d="m 1882,3205 c 0,-16 2,-22 5,-12 2,9 2,23 0,30 -3,6 -5,-1 -5,-18 z"
       id="path50-0"
       style="fill:#543b48;fill-opacity:1" /><path
       d="m 2612,2850 c 0,-14 2,-19 5,-12 2,6 2,18 0,25 -3,6 -5,1 -5,-13 z"
       id="path51-8"
       style="fill:#543b48;fill-opacity:1" /><path
       d="m 5422,3225 c 0,-16 2,-22 5,-12 2,9 2,23 0,30 -3,6 -5,-1 -5,-18 z"
       id="path52-3"
       style="fill:#543b48;fill-opacity:1" /><path
       d="m 5574,3154 c -12,-45 3,-424 20,-514 9,-47 17,-101 17,-120 2,-33 2,-34 6,-5 3,16 -3,79 -13,140 -14,80 -19,166 -19,317 0,115 -1,208 -2,208 -2,0 -6,-12 -9,-26 z"
       id="path53-5"
       style="fill:#543b48;fill-opacity:1" /><path
       d="m 5404,2935 c 0,-121 2,-169 3,-107 2,62 2,161 0,220 -1,59 -3,8 -3,-113 z"
       id="path54-0"
       style="fill:#543b48;fill-opacity:1" /><path
       d="m 5265,2955 c 2,-99 9,-191 15,-205 8,-19 9,-8 4,50 -4,41 -10,134 -15,205 -7,123 -7,121 -4,-50 z"
       id="path55-2"
       style="fill:#543b48;fill-opacity:1" /><path
       d="m 5730,2801 c 0,-16 5,-33 10,-36 6,-4 10,6 10,24 0,16 -4,33 -10,36 -6,4 -10,-6 -10,-24 z"
       id="path56-8"
       style="fill:#543b48;fill-opacity:1" /><path
       d="m 5302,2615 c 0,-16 6,-64 13,-105 l 14,-75 -4,75 c -3,41 -9,89 -14,105 l -9,30 z"
       id="path57-4"
       style="fill:#543b48;fill-opacity:1" /><path
       d="m 6020,2325 c 7,-9 15,-13 17,-11 7,7 -7,26 -19,26 -6,0 -6,-6 2,-15 z"
       id="path58-1"
       style="fill:#543b48;fill-opacity:1" /><path
       d="m 3882,2570 c 0,-14 2,-19 5,-12 2,6 2,18 0,25 -3,6 -5,1 -5,-13 z"
       id="path59-7"
       style="fill:#543b48;fill-opacity:1" /></g></svg>
