<?xml version="1.0" encoding="UTF-8" standalone="no"?>
<svg
   version="1.0"
   width="988.82898pt"
   height="907.87793pt"
   viewBox="0 0 988.82898 907.87793"
   preserveAspectRatio="xMidYMid"
   id="svg150"
   sodipodi:docname="cup.svg"
   xml:space="preserve"
   xmlns:inkscape="http://www.inkscape.org/namespaces/inkscape"
   xmlns:sodipodi="http://sodipodi.sourceforge.net/DTD/sodipodi-0.dtd"
   xmlns="http://www.w3.org/2000/svg"
   xmlns:svg="http://www.w3.org/2000/svg"><defs
     id="defs150" /><sodipodi:namedview
     id="namedview150"
     pagecolor="#ffffff"
     bordercolor="#000000"
     borderopacity="0.25"
     inkscape:showpageshadow="2"
     inkscape:pageopacity="0.0"
     inkscape:pagecheckerboard="0"
     inkscape:deskcolor="#d1d1d1"
     inkscape:document-units="pt" /><g
     transform="matrix(0.1,0,0,-0.1,-254.99999,953.83631)"
     fill="#000000"
     stroke="none"
     id="g36"
     style="fill:#485543;fill-opacity:1"><path
       d="m 6920,9533 c -262,-40 -460,-119 -760,-301 -216,-131 -240,-142 -325,-142 -38,0 -133,12 -210,25 -218,39 -365,60 -703,101 -286,34 -320,37 -385,26 -126,-21 -175,-53 -342,-224 -243,-247 -309,-301 -464,-378 -45,-23 -88,-52 -100,-68 -31,-44 -164,-586 -266,-1082 -31,-151 -90,-420 -131,-597 -80,-349 -216,-1018 -288,-1418 -146,-808 -396,-2399 -396,-2518 0,-31 10,-47 62,-102 100,-108 534,-441 648,-498 l 64,-32 241,-6 c 132,-4 310,-14 395,-23 288,-31 923,-117 1155,-156 326,-56 1317,-158 1750,-180 381,-19 447,-14 509,40 39,35 56,86 56,171 0,72 59,677 91,929 11,91 42,283 69,427 46,245 70,402 169,1128 22,160 51,362 65,450 49,310 87,697 97,985 5,151 16,327 24,390 9,63 19,248 24,410 5,162 19,446 32,630 22,318 22,340 7,418 -19,95 -42,147 -99,223 -51,68 -90,144 -119,234 -34,104 -82,193 -148,277 -72,90 -82,108 -82,146 0,68 -51,95 -265,142 -86,18 -136,22 -350,24 -222,2 -283,7 -545,40 -162,21 -299,42 -304,47 -18,16 5,37 103,98 222,136 371,209 492,241 215,56 261,60 587,55 388,-5 469,-19 857,-145 161,-53 698,-190 935,-239 197,-41 394,-68 580,-81 286,-20 426,-62 632,-192 70,-43 472,-223 923,-413 206,-87 308,-138 425,-215 273,-180 504,-437 641,-715 48,-98 66,-214 76,-496 7,-230 -6,-361 -58,-567 -48,-193 -59,-272 -59,-430 0,-144 17,-266 56,-397 46,-158 64,-263 64,-380 0,-187 -23,-279 -156,-612 -165,-418 -272,-581 -465,-713 -117,-80 -202,-160 -264,-249 -30,-42 -60,-73 -74,-77 -61,-17 -151,71 -403,391 -108,138 -208,261 -223,275 -22,21 -34,24 -73,21 -26,-1 -87,-4 -137,-4 -83,-1 -95,2 -150,31 -98,52 -126,43 -197,-61 -51,-76 -591,-632 -743,-765 -60,-53 -200,-180 -310,-281 -321,-296 -482,-429 -676,-561 -56,-38 -108,-78 -116,-90 -10,-14 -15,-52 -17,-118 -2,-88 -5,-103 -35,-160 -26,-49 -32,-71 -28,-97 10,-63 58,-154 101,-191 134,-119 339,-333 562,-590 431,-495 726,-804 821,-861 52,-30 86,-31 261,-4 175,27 243,46 323,87 73,39 84,49 189,179 39,50 192,205 338,345 419,402 486,460 675,589 122,84 205,152 441,363 200,180 213,199 201,288 -10,70 -10,129 -1,210 l 8,65 -57,75 c -31,41 -94,113 -139,160 -45,47 -138,150 -206,230 -69,80 -171,193 -227,252 -89,92 -103,111 -103,140 0,70 129,222 284,335 229,167 350,347 516,763 139,348 165,464 157,695 -4,128 -9,167 -36,265 -102,373 -105,504 -16,880 54,233 68,361 62,595 -9,351 -47,483 -212,730 -139,207 -304,372 -508,507 -172,112 -504,268 -927,434 -96,37 -245,104 -330,148 -328,168 -366,186 -463,211 -54,13 -167,32 -250,40 -347,34 -454,47 -536,61 -170,29 -858,207 -1080,279 -244,80 -347,108 -456,124 -65,10 -697,13 -755,4 z M 4706,9125 c 174,-7 316,-28 654,-95 313,-63 449,-83 840,-124 282,-30 474,-44 715,-51 231,-8 441,-40 498,-78 14,-9 37,-47 56,-94 40,-95 71,-153 219,-401 62,-106 120,-213 128,-239 23,-75 16,-211 -26,-549 -58,-467 -98,-813 -110,-949 -6,-66 -20,-160 -31,-210 -33,-155 -68,-363 -94,-570 -52,-408 -107,-790 -116,-807 -12,-23 -28,-23 -59,0 -21,14 -49,17 -185,17 -153,1 -166,3 -300,38 -254,69 -478,138 -615,192 -87,34 -175,61 -247,74 -61,12 -155,35 -210,51 -54,16 -181,48 -283,71 l -184,42 -66,-18 c -76,-21 -412,-38 -445,-21 -11,5 -28,20 -38,33 -25,32 -50,29 -134,-14 -95,-47 -109,-42 -150,59 -37,92 -70,118 -152,118 -95,0 -163,-42 -233,-143 -43,-62 -181,-97 -248,-62 -17,9 -65,20 -107,25 -91,12 -156,41 -233,105 -98,81 -149,81 -275,1 -115,-73 -186,-80 -229,-22 -26,34 -25,100 2,226 34,154 80,382 121,590 22,113 76,372 121,575 45,204 104,480 131,615 71,349 121,551 184,740 30,91 57,183 61,205 10,58 20,72 67,96 120,61 377,270 462,376 77,95 161,176 200,194 31,14 57,17 115,14 41,-3 129,-7 196,-10 z M 7936,7348 c -15,-434 -33,-805 -39,-815 -22,-35 -95,-577 -122,-903 -30,-359 -66,-553 -160,-860 -25,-80 -56,-199 -70,-265 -61,-285 -66,-258 -15,87 22,151 55,367 74,479 33,193 56,370 91,699 9,80 31,233 50,340 58,329 85,524 95,697 10,162 25,311 55,543 22,165 25,180 37,180 8,0 9,-52 4,-182 z M 4412,5529 c 9,-5 28,-40 43,-78 14,-38 37,-81 51,-96 21,-23 31,-26 67,-22 23,2 69,15 101,28 l 59,23 49,-27 c 36,-21 62,-27 106,-27 76,0 187,-31 187,-53 0,-43 -400,-461 -434,-455 -9,2 -33,48 -60,116 l -44,113 23,24 c 29,31 21,51 -30,74 -40,18 -44,24 -105,166 -35,81 -71,155 -79,163 -15,15 -17,15 -32,0 -20,-20 -9,-61 38,-134 34,-53 108,-217 108,-238 0,-18 -85,-96 -104,-96 -25,0 -44,28 -67,100 l -23,70 28,29 c 38,39 30,64 -17,56 -33,-6 -34,-5 -55,44 -12,27 -22,70 -22,95 0,39 6,52 36,86 50,55 115,69 176,39 z m -905,-52 c 27,-23 69,-55 94,-71 83,-53 109,-124 71,-195 -23,-44 -84,-80 -104,-63 -8,6 -43,68 -78,137 -35,69 -69,125 -75,125 -7,0 -18,-7 -25,-15 -9,-11 1,-38 54,-142 36,-70 66,-140 66,-154 0,-29 -41,-79 -64,-79 -15,0 -85,158 -131,295 -36,107 -32,132 29,173 68,45 103,43 163,-11 z m -293,-90 c 32,-33 178,-393 171,-420 -4,-12 -54,-67 -112,-123 -140,-132 -132,-157 13,-36 57,48 109,87 116,87 20,0 51,-51 43,-74 -3,-12 -40,-47 -81,-78 -41,-30 -74,-59 -74,-64 0,-23 26,-15 82,26 86,63 105,60 136,-24 20,-51 23,-71 16,-100 -9,-34 -8,-36 21,-46 26,-9 33,-20 52,-76 32,-100 73,-153 73,-95 0,13 11,39 24,59 l 24,35 -38,-5 c -37,-5 -38,-4 -59,42 -12,26 -21,57 -21,70 0,26 69,85 100,85 46,0 82,-129 45,-160 -23,-19 -18,-25 22,-25 33,0 40,-4 55,-35 19,-37 43,-60 64,-60 8,0 3,17 -13,46 -15,26 -29,64 -33,84 -8,43 6,61 67,87 54,22 74,2 145,-147 35,-72 65,-130 69,-130 12,0 -18,111 -56,202 -45,113 -46,149 -1,194 36,36 57,42 73,22 22,-29 122,-300 116,-316 -3,-9 -13,-25 -21,-34 -14,-16 -11,-17 39,-11 30,3 55,6 56,7 1,1 -2,18 -6,37 -8,34 -6,38 23,54 17,10 45,31 62,47 27,25 35,28 53,19 28,-16 61,-82 68,-139 5,-43 2,-51 -31,-92 -38,-48 -44,-63 -23,-58 20,4 598,562 761,734 77,80 176,173 220,206 l 81,60 110,-6 c 128,-6 254,-35 472,-107 119,-39 158,-57 176,-78 13,-16 74,-141 137,-280 65,-144 119,-251 127,-251 7,0 13,2 13,4 0,2 -34,93 -76,202 -112,293 -114,304 -54,304 70,0 83,-15 204,-258 62,-125 125,-259 141,-299 25,-64 30,-71 46,-62 11,5 19,16 19,23 0,7 -31,74 -70,149 -68,136 -137,326 -126,353 6,17 36,12 108,-18 63,-27 107,-78 143,-163 47,-115 154,-353 184,-413 27,-53 30,-55 36,-31 7,29 -16,97 -92,264 -68,150 -100,251 -87,273 15,24 70,26 186,8 54,-9 139,-16 188,-16 85,0 90,-1 95,-23 4,-13 -17,-167 -45,-343 -28,-175 -97,-627 -155,-1004 -133,-877 -146,-939 -218,-1018 -70,-75 -128,-96 -316,-112 -131,-12 -310,-4 -571,26 -234,26 -253,38 -382,245 -88,143 -134,235 -143,289 -13,74 -62,53 -52,-23 3,-23 26,-82 52,-132 40,-78 70,-123 182,-276 35,-48 22,-62 -54,-57 -57,4 -67,8 -97,38 -61,63 -219,365 -316,608 -10,24 -17,26 -40,12 -12,-8 -13,-16 -2,-57 18,-69 150,-331 226,-448 68,-104 75,-120 54,-127 -33,-11 -439,29 -823,82 -154,21 -334,44 -400,50 -355,34 -963,150 -1208,231 -93,31 -134,39 -190,39 -49,0 -85,7 -114,19 -50,23 -177,128 -181,150 -5,26 75,582 143,1001 35,217 78,489 95,603 48,326 130,760 147,779 12,13 33,17 100,16 74,0 88,-3 107,-21 z m 605,-41 c 10,-12 8,-19 -8,-35 -26,-26 -37,-26 -51,-2 -14,27 -13,30 13,41 30,12 33,12 46,-4 z m 289,-17 c 2,-11 -15,-28 -49,-48 -61,-38 -84,-37 -84,4 0,26 6,32 45,47 53,20 84,19 88,-3 z m 1345,-30 c 9,-14 -18,-47 -148,-185 -227,-241 -537,-544 -556,-544 -25,0 -92,145 -84,179 3,16 99,117 257,272 141,138 248,250 245,256 -11,17 21,26 123,33 128,10 151,8 163,-11 z m -1548,-43 c 26,-39 16,-75 -27,-99 -36,-21 -37,-21 -57,-3 -29,26 -27,71 4,101 31,32 60,32 80,1 z m 260,-20 c 19,-13 18,-15 -8,-52 -14,-22 -40,-54 -57,-73 l -30,-35 -25,24 c -33,31 -32,69 3,103 45,43 87,55 117,33 z m -402,-103 c 19,-48 5,-80 -55,-123 -48,-35 -61,-37 -88,-10 -35,35 -26,73 31,124 64,58 91,60 112,9 z m 212,-27 c 9,-13 18,-39 21,-58 5,-30 1,-38 -35,-71 -23,-20 -45,-37 -51,-37 -15,0 -40,45 -47,84 -5,31 -1,40 30,71 41,41 61,44 82,11 z m 274,-31 c 44,-93 44,-101 4,-146 -20,-22 -49,-49 -65,-60 -38,-27 -52,-15 -77,66 -27,86 -16,122 50,171 19,13 40,23 49,22 8,-2 26,-26 39,-53 z m 293,-170 c 26,-61 48,-118 48,-128 0,-10 -21,-42 -47,-72 -37,-42 -51,-51 -64,-45 -19,11 -99,218 -99,256 0,14 5,34 11,45 13,25 69,60 89,56 8,-1 36,-50 62,-112 z m -972,86 c 26,-50 6,-98 -52,-120 -31,-12 -42,-2 -51,46 -12,63 75,125 103,74 z m 258,-31 c 12,-24 22,-54 22,-67 0,-23 -86,-123 -106,-123 -17,0 -53,43 -65,77 -8,25 -7,39 6,66 16,34 91,98 110,94 6,-2 20,-23 33,-47 z m 230,-37 c 29,-42 46,-97 38,-126 -8,-35 -81,-85 -103,-71 -16,10 -53,98 -53,126 0,22 67,98 85,98 8,0 22,-12 33,-27 z m 275,-55 c 31,-50 99,-247 93,-270 -3,-13 -33,-52 -67,-87 -54,-55 -63,-61 -72,-46 -20,36 -97,267 -97,292 0,50 69,133 111,133 10,0 25,-10 32,-22 z m -704,-24 c 11,-14 27,-48 36,-75 l 17,-50 -27,-35 c -34,-45 -72,-64 -86,-43 -23,36 -50,125 -44,147 6,26 57,82 74,82 5,0 19,-12 30,-26 z m 281,-66 c 33,-54 27,-107 -17,-159 -63,-74 -63,-74 -74,-58 -70,103 -65,181 15,230 43,26 53,24 76,-13 z m 725,-104 c 13,-14 33,-52 44,-84 l 19,-59 -29,-45 c -36,-54 -76,-83 -97,-69 -22,13 -71,142 -72,186 0,30 5,39 23,47 12,5 33,18 47,29 32,26 36,26 65,-5 z m 5820,-508 c 47,-10 92,-13 137,-9 105,9 124,-8 373,-327 142,-182 238,-287 303,-332 25,-17 42,-37 42,-48 0,-26 -66,-99 -95,-106 -33,-8 -78,19 -125,74 -49,59 -80,77 -114,68 -50,-13 -27,-74 41,-110 29,-15 121,-108 231,-233 75,-87 97,-96 129,-58 39,45 27,71 -41,91 -46,14 -53,34 -32,100 17,55 53,104 77,104 20,0 187,-170 309,-315 64,-77 177,-205 251,-285 l 134,-144 1,-101 c 0,-55 4,-129 9,-164 7,-54 5,-69 -10,-98 -19,-34 -574,-487 -893,-727 -78,-60 -209,-172 -290,-250 -144,-139 -300,-266 -327,-266 -8,0 -16,4 -19,9 -3,4 -12,116 -21,247 -17,257 -20,284 -35,284 -12,0 -32,-48 -25,-60 2,-4 9,-86 15,-181 6,-96 15,-192 20,-214 16,-66 12,-117 -13,-155 -29,-46 -243,-253 -282,-273 -76,-37 -242,-49 -331,-22 -56,16 -107,65 -338,325 -71,80 -197,215 -280,300 -229,236 -730,714 -808,772 -41,31 -71,61 -75,76 -3,15 8,68 30,141 20,64 42,137 48,163 13,55 18,60 174,173 164,120 296,230 450,376 72,68 218,202 325,298 200,179 368,344 687,678 101,105 197,198 215,207 35,17 44,17 153,-8 z M 7306,2778 c -20,-302 -38,-464 -52,-478 -6,-6 -21,-6 -42,2 -40,15 -66,3 -70,-34 -2,-17 9,-38 38,-70 43,-50 51,-82 22,-97 -11,-6 -52,-18 -92,-27 -68,-15 -81,-15 -174,0 -124,19 -429,51 -631,66 -82,6 -247,22 -365,35 -118,13 -269,29 -335,35 -66,6 -199,24 -295,40 -243,40 -407,63 -835,115 -523,64 -611,73 -870,86 -241,11 -301,22 -389,66 -60,30 -153,100 -166,123 -24,44 30,45 210,2 47,-11 184,-39 305,-62 121,-23 281,-57 356,-75 181,-46 274,-61 524,-85 116,-11 332,-36 480,-55 347,-44 1037,-112 1275,-124 102,-6 223,-18 270,-28 231,-46 524,7 644,117 24,22 52,57 61,76 14,30 63,287 106,559 15,95 17,101 31,87 9,-9 8,-76 -6,-274 z"
       id="path1-5"
       style="fill:#485543;fill-opacity:1" /><path
       d="m 5452,8868 c -21,-21 -13,-57 21,-95 l 34,-36 92,12 c 94,13 155,10 251,-14 137,-34 406,-85 449,-85 52,0 71,12 71,47 0,33 -33,47 -77,32 -47,-15 -97,-8 -299,41 -118,29 -204,44 -286,49 -104,7 -123,11 -156,35 -41,28 -80,34 -100,14 z"
       id="path2-9"
       style="fill:#485543;fill-opacity:1" /><path
       d="m 4260,8406 c -6,-8 -10,-23 -8,-33 3,-16 22,-19 228,-24 125,-3 274,-13 335,-23 117,-17 491,-34 521,-22 42,16 -16,26 -250,41 -136,9 -285,23 -330,31 -111,21 -209,31 -357,38 -104,5 -129,4 -139,-8 z"
       id="path3-6"
       style="fill:#485543;fill-opacity:1" /><path
       d="m 5573,8320 c -25,-10 -30,-29 -10,-34 6,-2 95,-9 197,-15 153,-9 411,-36 653,-67 46,-6 66,7 31,20 -24,9 -752,104 -804,104 -25,0 -55,-3 -67,-8 z"
       id="path4-1"
       style="fill:#485543;fill-opacity:1" /><path
       d="m 4344,8009 c -9,-17 -20,-73 -25,-123 -11,-119 -11,-116 6,-116 11,0 15,12 15,44 0,25 11,81 25,126 15,44 23,85 20,90 -11,18 -24,11 -41,-21 z"
       id="path5-7"
       style="fill:#485543;fill-opacity:1" /><path
       d="m 4682,7948 c -15,-15 -17,-158 -2,-158 10,0 13,12 25,85 11,64 11,78 0,82 -6,2 -16,-2 -23,-9 z"
       id="path6-6"
       style="fill:#485543;fill-opacity:1" /><path
       d="m 5881,7351 c -32,-32 -41,-121 -12,-121 11,0 61,104 61,126 0,20 -27,17 -49,-5 z"
       id="path7-3"
       style="fill:#485543;fill-opacity:1" /><path
       d="m 4725,7118 c -31,-67 -36,-172 -7,-166 11,2 20,17 25,43 7,35 25,107 38,154 2,8 -4,17 -14,19 -13,3 -24,-10 -42,-50 z"
       id="path8-7"
       style="fill:#485543;fill-opacity:1" /><path
       d="m 6811,6579 c -35,-44 -28,-98 12,-99 12,0 37,66 37,100 0,38 -18,38 -49,-1 z"
       id="path9-5"
       style="fill:#485543;fill-opacity:1" /><path
       d="m 5978,6483 c -42,-55 -52,-154 -17,-161 13,-2 21,16 38,82 32,127 27,143 -21,79 z"
       id="path10-4"
       style="fill:#485543;fill-opacity:1" /><path
       d="m 6021,6026 c -29,-31 -34,-89 -8,-94 13,-3 23,9 38,43 31,69 14,98 -30,51 z"
       id="path11-5"
       style="fill:#485543;fill-opacity:1" /><path
       d="m 5538,5103 c -29,-25 -126,-120 -215,-211 l -162,-165 -41,7 c -39,6 -40,6 -40,-24 0,-50 -21,-77 -165,-220 -76,-74 -184,-188 -241,-253 -94,-106 -121,-147 -95,-147 5,0 116,110 247,245 175,180 244,245 258,243 27,-4 57,-58 59,-106 2,-50 11,-40 -354,-410 -165,-166 -299,-310 -299,-319 0,-9 -31,-46 -70,-82 -39,-37 -76,-83 -85,-104 -15,-36 -15,-38 2,-28 24,13 85,77 115,121 35,51 698,720 713,720 17,0 53,-58 61,-98 15,-75 2,-97 -165,-267 -87,-88 -251,-259 -365,-380 -114,-121 -217,-224 -228,-230 -16,-7 -24,-4 -40,18 -38,52 -48,36 -45,-67 2,-90 3,-94 28,-103 21,-8 54,-64 169,-282 136,-258 172,-313 186,-277 6,15 -90,213 -211,436 -108,199 -112,183 98,399 417,429 599,611 613,611 25,0 54,-61 54,-113 0,-46 -4,-53 -58,-110 -32,-34 -98,-108 -146,-165 -49,-56 -107,-119 -130,-140 -54,-47 -59,-57 -46,-82 18,-34 36,-23 93,53 46,60 184,215 296,330 l 27,28 27,-21 c 31,-25 34,-47 10,-88 -23,-41 -13,-62 29,-56 31,5 34,2 56,-40 12,-25 22,-63 22,-83 0,-31 7,-44 34,-68 59,-52 57,-64 -28,-155 -70,-74 -98,-121 -82,-137 3,-4 66,53 140,125 79,78 142,132 153,132 25,0 49,-27 64,-69 11,-30 9,-37 -26,-86 -21,-32 -35,-63 -33,-75 3,-21 5,-20 48,14 25,20 55,36 66,36 26,0 48,-47 49,-105 0,-38 2,-40 30,-40 25,0 33,6 48,40 23,50 65,95 88,95 17,0 49,-40 49,-62 0,-6 -14,-27 -31,-44 -20,-21 -29,-39 -26,-49 6,-14 9,-14 36,0 40,20 54,19 76,-5 10,-11 24,-20 32,-20 15,0 18,43 3,70 -15,27 4,66 42,90 47,28 62,25 90,-17 13,-21 37,-56 51,-79 32,-48 35,-96 7,-131 -20,-26 -19,-43 3,-43 16,1 97,77 130,122 24,33 30,36 57,28 36,-10 44,0 35,46 -7,38 -15,28 128,161 92,86 98,104 30,97 -43,-5 -51,-3 -75,23 -26,27 -198,407 -198,437 0,8 14,29 30,46 38,38 31,54 -20,45 -34,-6 -41,-3 -56,20 -9,14 -19,48 -22,75 -4,47 -4,49 39,80 69,50 88,41 121,-54 59,-167 190,-445 247,-523 29,-40 71,-59 71,-33 0,6 -25,54 -56,108 -89,154 -142,275 -246,562 -33,91 -69,175 -80,188 -27,28 -65,28 -129,1 -53,-23 -72,-18 -84,22 -11,33 -47,21 -115,-36 -35,-30 -68,-55 -72,-55 -5,0 -14,11 -20,25 -6,14 -19,25 -30,25 -15,0 -18,-8 -18,-61 0,-72 -9,-92 -50,-109 -25,-11 -34,-10 -56,5 -25,16 -32,30 -68,128 -13,34 -23,47 -37,47 -30,0 -33,-24 -10,-92 28,-82 27,-120 -3,-155 -33,-40 -92,-71 -107,-56 -17,17 -99,245 -99,276 0,44 14,61 102,128 46,34 83,69 83,78 0,32 -37,21 -109,-33 -40,-31 -79,-56 -85,-56 -6,0 -19,16 -28,35 -18,37 -49,47 -60,19 -3,-8 0,-33 6,-54 9,-32 9,-46 -3,-72 -16,-36 -118,-148 -134,-148 -29,0 -72,95 -72,156 0,16 53,75 185,205 101,100 209,200 240,222 53,39 69,70 43,80 -24,8 -52,-16 -256,-212 -129,-125 -212,-197 -227,-199 -20,-3 -28,5 -50,49 -16,30 -24,60 -21,73 5,22 249,266 346,347 48,41 53,48 41,63 -19,23 -24,21 -83,-31 z m -334,-471 c 32,-61 32,-142 0,-142 -31,0 -71,140 -47,163 14,14 33,6 47,-21 z m 1298,-224 c 10,-26 15,-53 12,-60 -3,-7 -28,-28 -56,-47 -59,-38 -71,-36 -101,22 -24,47 -16,70 36,108 59,43 87,37 109,-23 z m -1205,-14 c 14,-30 27,-73 30,-94 5,-33 2,-39 -17,-45 -28,-9 -32,-5 -64,84 -28,78 -27,111 5,111 15,0 27,-15 46,-56 z m 956,24 c 7,-22 -22,-66 -60,-93 -44,-29 -49,-30 -57,-9 -9,23 19,69 56,93 38,24 54,26 61,9 z m -669,-45 c 13,-27 40,-89 59,-139 33,-81 35,-94 26,-129 -23,-82 -101,-121 -136,-68 -13,20 -12,24 21,61 31,34 34,41 21,52 -12,10 -21,10 -45,0 -25,-10 -34,-10 -54,3 -28,19 -69,118 -59,144 7,23 114,122 130,123 7,0 23,-21 37,-47 z m 728,-93 c 26,-52 22,-69 -24,-112 -45,-42 -82,-49 -98,-19 -23,43 -9,93 38,144 34,36 62,32 84,-13 z m -222,-32 c 0,-26 -67,-98 -91,-98 -41,0 -30,49 24,107 24,25 34,30 49,22 10,-5 18,-19 18,-31 z m -684,-85 c 22,-44 25,-60 18,-81 -16,-45 -47,-40 -78,12 -30,51 -33,91 -10,117 23,26 40,14 70,-48 z m 444,-3 c -10,-19 -41,-40 -57,-40 -7,1 57,60 64,60 2,0 -1,-9 -7,-20 z m 295,-30 c 8,-16 15,-37 15,-47 0,-27 -27,-61 -61,-79 -25,-12 -33,-13 -46,-3 -42,36 -32,94 23,138 36,28 51,26 69,-9 z m 240,-21 c 26,-49 19,-85 -23,-131 -32,-33 -43,-40 -64,-35 -28,7 -48,44 -48,89 0,23 11,42 44,74 49,49 67,50 91,3 z m -446,3 c 18,-34 -44,-107 -107,-126 -53,-17 -30,59 35,113 43,36 58,38 72,13 z m -447,-109 c 24,-21 23,-58 -2,-83 -26,-26 -34,-25 -59,6 -26,33 -26,45 -1,72 25,26 37,27 62,5 z m 508,-13 c 26,-26 25,-49 -3,-91 -24,-35 -81,-79 -103,-79 -14,0 -44,60 -44,86 0,23 85,104 108,104 12,0 31,-9 42,-20 z m 209,-9 c 11,-11 23,-36 27,-56 5,-29 2,-41 -20,-70 -45,-58 -100,-39 -113,38 -5,32 -1,41 30,72 40,40 50,42 76,16 z m -449,-26 c 17,-21 6,-45 -50,-100 -42,-41 -51,-46 -65,-35 -27,22 -17,57 28,105 46,47 67,55 87,30 z m 706,-71 18,-47 -37,-33 c -60,-55 -104,-42 -114,34 -5,34 -1,41 36,75 51,46 71,40 97,-29 z m -897,-27 c 6,-8 17,-33 26,-56 15,-42 15,-43 -14,-72 -17,-17 -36,-27 -44,-23 -17,6 -47,74 -47,106 0,45 53,75 79,45 z m 504,-29 c 38,-52 24,-98 -51,-163 l -34,-29 -34,37 c -19,20 -34,46 -34,57 0,26 98,132 118,128 8,-2 24,-15 35,-30 z m -260,4 c 9,-10 20,-33 23,-50 6,-29 2,-37 -35,-72 -23,-22 -46,-40 -52,-40 -18,0 -59,49 -59,70 0,22 75,110 95,110 6,0 19,-8 28,-18 z m 490,-64 c 17,-34 17,-39 2,-67 -16,-32 -61,-61 -83,-54 -12,5 -42,65 -42,84 0,5 14,24 31,44 40,46 67,43 92,-7 z m 215,-20 c 5,-7 42,-72 81,-144 l 72,-132 -16,-38 c -17,-42 -62,-94 -80,-94 -20,0 -41,32 -68,99 -28,69 -25,91 13,111 41,22 18,50 -40,50 -32,0 -65,25 -75,57 -4,16 3,32 31,62 37,42 64,51 82,29 z m -849,-74 c 12,-15 21,-37 21,-49 0,-35 -37,-75 -69,-75 -53,0 -69,84 -25,125 34,32 48,31 73,-1 z m 230,-11 c 30,-38 35,-66 17,-102 -35,-66 -93,-76 -121,-21 -23,45 -18,75 19,114 40,43 58,45 85,9 z m 250,-9 c 33,-42 27,-80 -19,-126 -27,-27 -46,-39 -62,-36 -27,4 -52,50 -44,82 6,25 79,106 95,106 5,0 19,-12 30,-26 z m 225,-55 c 25,-46 16,-81 -29,-109 -40,-25 -52,-20 -71,26 -20,48 -18,63 18,95 38,37 58,34 82,-12 z m -384,-111 c 30,-49 25,-75 -21,-121 -40,-40 -40,-40 -60,-21 -11,11 -22,37 -26,57 -5,30 0,42 27,77 17,22 38,40 46,40 8,0 23,-15 34,-32 z m 234,6 c 19,-18 30,-58 23,-78 -10,-25 -94,-87 -110,-80 -9,3 -20,19 -26,36 -14,41 8,91 51,118 40,24 42,24 62,4 z m 229,-42 c 22,-24 67,-128 67,-154 0,-12 -12,-36 -26,-55 -21,-28 -32,-34 -57,-31 -25,2 -32,9 -39,33 -4,17 -17,47 -28,68 -32,56 -29,95 9,129 36,33 52,35 74,10 z"
       id="path12-1"
       style="fill:#485543;fill-opacity:1" /><path
       d="m 7047,4812 c -24,-26 -21,-55 7,-81 26,-25 99,-167 147,-289 17,-41 37,-84 45,-96 13,-19 14,-17 14,31 0,39 -16,94 -69,232 -82,218 -104,248 -144,203 z"
       id="path13-9"
       style="fill:#485543;fill-opacity:1" /><path
       d="m 6923,4439 c -13,-13 -7,-67 8,-83 5,-6 9,-16 9,-24 0,-21 97,-241 126,-284 26,-40 54,-50 54,-19 0,10 -21,62 -46,116 -26,54 -61,139 -79,190 -42,122 -47,129 -72,104 z"
       id="path14-5"
       style="fill:#485543;fill-opacity:1" /><path
       d="m 6762,4398 c -34,-34 6,-154 145,-431 61,-122 92,-171 109,-179 50,-23 46,5 -13,103 -95,158 -158,309 -187,450 -13,65 -29,82 -54,57 z"
       id="path15-9"
       style="fill:#485543;fill-opacity:1" /><path
       d="m 3919,4048 c -94,-71 -644,-615 -684,-677 -13,-22 -35,-45 -47,-52 -43,-22 -139,-130 -136,-153 2,-11 10,-22 18,-24 15,-2 30,15 117,135 18,25 50,57 70,71 21,15 172,160 336,322 164,162 330,317 370,345 46,33 73,59 75,73 6,38 -30,26 -119,-40 z"
       id="path16-2"
       style="fill:#485543;fill-opacity:1" /><path
       d="m 3968,3733 c -189,-151 -568,-571 -568,-630 0,-44 29,-23 111,85 95,125 373,405 506,510 106,85 118,102 69,102 -27,0 -52,-14 -118,-67 z"
       id="path17-8"
       style="fill:#485543;fill-opacity:1" /><path
       d="m 4133,3585 c -105,-44 -623,-568 -623,-629 0,-28 12,-39 32,-30 7,3 36,37 63,77 59,85 315,345 470,477 61,51 111,97 113,100 6,15 -25,17 -55,5 z"
       id="path18-5"
       style="fill:#485543;fill-opacity:1" /><path
       d="m 4170,3406 c -9,-12 17,-72 137,-313 82,-164 155,-314 163,-333 16,-38 50,-54 50,-24 0,10 -29,78 -65,151 -36,73 -72,150 -79,170 -8,21 -40,97 -73,168 -33,72 -66,145 -73,163 -13,34 -39,42 -60,18 z"
       id="path19-6"
       style="fill:#485543;fill-opacity:1" /><path
       d="m 4669,3363 c -13,-34 -5,-67 38,-167 84,-198 299,-589 327,-594 9,-2 16,2 16,9 0,7 -52,111 -115,229 -123,233 -172,345 -200,455 -24,98 -46,120 -66,68 z"
       id="path20-3"
       style="fill:#485543;fill-opacity:1" /><path
       d="m 4978,3275 c -9,-21 -7,-39 16,-108 69,-202 266,-567 308,-567 18,0 5,38 -42,121 -58,100 -152,295 -186,385 -13,34 -28,92 -35,128 -9,54 -14,66 -30,66 -11,0 -24,-11 -31,-25 z"
       id="path21-4"
       style="fill:#485543;fill-opacity:1" /><path
       d="m 3904,3196 c -184,-136 -350,-324 -324,-366 7,-11 16,-6 42,25 59,71 221,229 302,295 44,36 81,71 84,78 8,27 -49,10 -104,-32 z"
       id="path22-3"
       style="fill:#485543;fill-opacity:1" /><path
       d="m 5774,2806 c -14,-36 45,-181 116,-286 47,-69 67,-87 82,-72 7,7 -1,28 -28,74 -21,34 -61,114 -89,177 -51,113 -69,138 -81,107 z"
       id="path23-6"
       style="fill:#485543;fill-opacity:1" /><path
       d="m 9978,3288 c -34,-49 -32,-112 5,-144 19,-16 40,-24 65,-24 40,0 190,32 236,50 56,21 50,-6 -12,-54 -77,-59 -142,-133 -142,-161 0,-28 28,-53 67,-61 39,-8 54,12 19,26 -17,6 -26,17 -26,30 0,27 77,108 149,158 101,70 115,120 45,161 -50,30 -71,27 -96,-14 -24,-42 -51,-57 -138,-80 -69,-18 -100,-12 -119,23 -8,15 -4,27 16,55 21,30 24,39 13,52 -21,25 -56,18 -82,-17 z"
       id="path24-2"
       style="fill:#485543;fill-opacity:1" /><path
       d="m 10423,3000 c -50,-30 -78,-100 -40,-100 6,0 28,12 49,26 23,16 53,27 75,28 32,1 38,-2 41,-22 3,-17 -8,-33 -41,-62 -55,-49 -107,-128 -107,-163 0,-46 33,-58 150,-55 101,2 103,2 126,-26 13,-15 24,-33 24,-41 0,-18 31,-35 64,-35 31,0 32,4 5,38 -15,20 -19,35 -14,60 5,25 2,39 -11,53 -22,25 -32,24 -76,-6 -31,-21 -49,-25 -107,-25 -70,0 -101,14 -101,44 0,17 44,76 114,154 67,75 72,103 24,132 -44,27 -131,27 -175,0 z"
       id="path25-4"
       style="fill:#485543;fill-opacity:1" /><path
       d="m 9810,2608 c -27,-42 -23,-123 7,-162 11,-14 24,-47 28,-72 15,-105 39,-122 183,-132 86,-6 97,-9 100,-27 12,-74 50,-105 130,-105 26,0 56,-6 66,-13 17,-12 18,-18 6,-63 -11,-44 -11,-54 4,-83 31,-60 119,-76 197,-35 50,26 37,44 -32,44 -104,0 -120,23 -69,100 16,25 30,50 30,57 0,7 -29,14 -77,18 -146,11 -166,25 -143,95 12,36 12,43 -1,51 -8,5 -19,7 -25,5 -37,-14 -132,-17 -193,-6 -82,14 -117,44 -106,90 10,39 35,58 110,82 66,22 70,25 70,53 0,43 -32,44 -121,5 -40,-17 -81,-30 -91,-28 -18,4 -19,13 -11,118 3,30 0,35 -19,38 -16,2 -28,-6 -43,-30 z"
       id="path26-6"
       style="fill:#485543;fill-opacity:1" /><path
       d="m 10905,2596 c -59,-26 -113,-107 -122,-186 -5,-45 -3,-51 24,-79 38,-38 89,-45 218,-32 84,9 103,8 122,-5 30,-19 29,-29 -6,-73 -49,-63 -56,-82 -35,-98 10,-7 24,-13 31,-13 15,0 82,88 111,146 19,37 19,43 6,62 -8,12 -31,24 -52,28 -20,4 -53,13 -74,21 -34,14 -40,13 -91,-11 -29,-14 -66,-26 -81,-26 -41,0 -96,27 -97,47 -5,79 41,142 124,167 21,7 22,30 1,50 -19,19 -39,20 -79,2 z"
       id="path27-6"
       style="fill:#485543;fill-opacity:1" /><path
       d="m 9273,2110 c -28,-12 -38,-50 -24,-90 6,-17 33,-71 61,-120 27,-49 50,-94 50,-100 0,-11 -9,-13 -62,-10 -102,4 -173,-93 -118,-163 16,-20 25,-24 42,-18 19,7 22,15 19,54 -2,42 0,48 24,59 22,10 33,8 81,-15 30,-15 59,-27 65,-27 6,0 32,23 59,50 40,41 54,50 83,50 29,0 36,-4 41,-25 10,-40 42,-31 105,33 64,64 131,170 131,208 0,40 -39,51 -105,30 -43,-13 -69,-31 -119,-82 -35,-35 -71,-64 -80,-64 -18,0 -46,54 -46,88 0,26 -54,108 -84,127 -31,20 -93,28 -123,15 z m 115,-83 c 35,-37 56,-137 32,-152 -11,-7 -88,88 -96,121 -14,54 25,73 64,31 z m 360,-79 c 4,-23 -138,-172 -151,-159 -19,19 21,98 71,141 48,41 74,47 80,18 z"
       id="path28-6"
       style="fill:#485543;fill-opacity:1" /><path
       d="m 11318,1958 c -6,-105 1,-138 27,-138 18,0 22,21 28,130 5,100 3,110 -27,110 -22,0 -24,-4 -28,-102 z"
       id="path29-0"
       style="fill:#485543;fill-opacity:1" /><path
       d="m 11137,1957 c -3,-7 0,-56 5,-108 5,-51 7,-110 5,-130 -3,-19 1,-48 7,-65 l 13,-29 12,22 c 17,33 27,273 12,301 -13,24 -46,30 -54,9 z"
       id="path30-4"
       style="fill:#485543;fill-opacity:1" /><path
       d="m 10966,1894 c -19,-49 1,-394 24,-418 5,-5 16,-6 26,-2 14,5 16,15 9,64 -4,31 -9,123 -11,204 -1,81 -6,152 -9,158 -10,16 -32,12 -39,-6 z"
       id="path31-8"
       style="fill:#485543;fill-opacity:1" /><path
       d="m 10807,1824 c -9,-9 -8,-361 1,-429 5,-36 12,-51 25,-53 16,-3 17,12 15,240 -3,210 -5,243 -18,246 -9,1 -19,0 -23,-4 z"
       id="path32-5"
       style="fill:#485543;fill-opacity:1" /><path
       d="m 9701,1696 c -10,-12 -8,-18 11,-30 13,-9 39,-21 58,-27 49,-16 78,-46 90,-90 16,-60 -7,-99 -59,-99 -21,0 -51,31 -81,87 -45,82 -74,65 -96,-58 -8,-46 -19,-97 -26,-113 -10,-25 -9,-31 7,-42 24,-18 48,-4 69,39 25,54 37,59 87,42 59,-22 100,-12 138,31 24,27 31,44 31,76 0,77 -73,163 -161,188 -45,13 -54,13 -68,-4 z"
       id="path33-1"
       style="fill:#485543;fill-opacity:1" /><path
       d="m 10634,1687 c -2,-7 2,-54 11,-103 9,-49 18,-147 21,-219 3,-71 8,-137 12,-145 19,-49 30,357 11,425 -14,50 -43,73 -55,42 z"
       id="path34-1"
       style="fill:#485543;fill-opacity:1" /><path
       d="m 9422,1565 c -40,-34 -56,-79 -36,-100 17,-17 20,-17 52,-9 45,13 70,104 33,124 -16,8 -26,5 -49,-15 z"
       id="path35-9"
       style="fill:#485543;fill-opacity:1" /><path
       d="m 10316,1485 c -12,-32 -6,-171 14,-310 11,-77 20,-141 20,-142 0,-2 7,-3 16,-3 14,0 15,11 9,93 -4,50 -10,155 -14,232 -5,118 -9,140 -22,143 -9,2 -19,-4 -23,-13 z"
       id="path36-5"
       style="fill:#485543;fill-opacity:1" /></g></svg>
